<svg width="36" height="36" viewBox="0 0 36 36" fill="none" xmlns="http://www.w3.org/2000/svg">
<path d="M20.1378 8.68619C20.5638 9.1046 21.2544 9.1046 21.6805 8.68619C22.1065 8.26777 22.1065 7.58937 21.6805 7.17096L18.7714 4.31381C18.3453 3.8954 17.6547 3.8954 17.2287 4.31381L14.3195 7.17096C13.8935 7.58937 13.8935 8.26777 14.3195 8.68619C14.7455 9.1046 15.4362 9.1046 15.8623 8.68619L18 6.58666L20.1378 8.68619Z" fill="#214CE8"/>
<path fill-rule="evenodd" clip-rule="evenodd" d="M3 14.5C3 13.1193 4.06841 12 5.38636 12H30.6136C31.9316 12 33 13.1193 33 14.5V29.5C33 30.8807 31.9316 32 30.6136 32H5.38636C4.06841 32 3 30.8807 3 29.5V14.5ZM14.9318 24.1429C14.367 24.1429 13.9091 24.6226 13.9091 25.2143C13.9091 25.806 14.367 26.2857 14.9318 26.2857H21.0682C21.633 26.2857 22.0909 25.806 22.0909 25.2143C22.0909 24.6226 21.633 24.1429 21.0682 24.1429H14.9318ZM9.47727 20.2143C10.2304 20.2143 10.8409 19.5747 10.8409 18.7857C10.8409 17.9967 10.2304 17.3571 9.47727 17.3571C8.72416 17.3571 8.11364 17.9967 8.11364 18.7857C8.11364 19.5747 8.72416 20.2143 9.47727 20.2143ZM9.47727 26.6429C10.2304 26.6429 10.8409 26.0033 10.8409 25.2143C10.8409 24.4253 10.2304 23.7857 9.47727 23.7857C8.72416 23.7857 8.11364 24.4253 8.11364 25.2143C8.11364 26.0033 8.72416 26.6429 9.47727 26.6429ZM27.8866 18.7857C27.8866 19.5747 27.2761 20.2143 26.523 20.2143C25.77 20.2143 25.1594 19.5747 25.1594 18.7857C25.1594 17.9967 25.77 17.3571 26.523 17.3571C27.2761 17.3571 27.8866 17.9967 27.8866 18.7857ZM26.523 26.6429C27.2761 26.6429 27.8866 26.0033 27.8866 25.2143C27.8866 24.4253 27.2761 23.7857 26.523 23.7857C25.77 23.7857 25.1594 24.4253 25.1594 25.2143C25.1594 26.0033 25.77 26.6429 26.523 26.6429ZM16.2955 18.7857C16.2955 19.5747 15.685 20.2143 14.9318 20.2143C14.1787 20.2143 13.5682 19.5747 13.5682 18.7857C13.5682 17.9967 14.1787 17.3571 14.9318 17.3571C15.685 17.3571 16.2955 17.9967 16.2955 18.7857ZM21.0682 20.2143C21.8213 20.2143 22.4318 19.5747 22.4318 18.7857C22.4318 17.9967 21.8213 17.3571 21.0682 17.3571C20.315 17.3571 19.7045 17.9967 19.7045 18.7857C19.7045 19.5747 20.315 20.2143 21.0682 20.2143Z" fill="#214CE8"/>
</svg>
