<svg width="22" height="22" viewBox="0 0 22 22" fill="none" xmlns="http://www.w3.org/2000/svg">
<path d="M12.6042 6.41667H3.4375M12.6042 6.41667C12.6042 4.77067 13.9374 3.4375 15.5833 3.4375C17.2293 3.4375 18.5625 4.77067 18.5625 6.41667C18.5625 8.06266 17.2293 9.39583 15.5833 9.39583C13.9374 9.39583 12.6042 8.06266 12.6042 6.41667Z" stroke="#2C2C2E" stroke-width="1.5" stroke-linecap="round" stroke-linejoin="round"/>
<path d="M18.5625 15.5834H11.2292M11.2292 15.5834C11.2292 17.2294 9.89597 18.5626 8.25 18.5626C6.60402 18.5626 5.27083 17.2294 5.27083 15.5834M11.2292 15.5834C11.2292 13.9374 9.89597 12.6042 8.25 12.6042C6.60402 12.6042 5.27083 13.9374 5.27083 15.5834M5.27083 15.5834H3.4375" stroke="#2C2C2E" stroke-width="1.5" stroke-linecap="round" stroke-linejoin="round"/>
</svg>
