<svg width="28" height="28" viewBox="0 0 28 28" fill="none" xmlns="http://www.w3.org/2000/svg">
<path fill-rule="evenodd" clip-rule="evenodd" d="M8.16667 5.54167C8.16667 4.41408 9.08075 3.5 10.2083 3.5H22.4583C23.5859 3.5 24.5 4.41408 24.5 5.54167V17.8033C24.5 18.9309 23.5859 19.845 22.4583 19.845H19.8333V22.4583C19.8333 23.5859 18.9192 24.5 17.7917 24.5H5.54167C4.41408 24.5 3.5 23.5859 3.5 22.4583V10.2083C3.5 9.08075 4.41408 8.16667 5.54167 8.16667H8.16667V5.54167ZM19.8333 18.095V10.2083C19.8333 9.08075 18.9192 8.16667 17.7917 8.16667H9.91667V5.54167C9.91667 5.38058 10.0473 5.25 10.2083 5.25H22.4583C22.6194 5.25 22.75 5.38058 22.75 5.54167V17.8033C22.75 17.9644 22.6194 18.095 22.4583 18.095H19.8333Z" fill="#214CE8"/>
</svg>
