<svg xmlns="http://www.w3.org/2000/svg" width="145" height="90" viewBox="0 0 146 90"><path style="stroke:none;fill-rule:nonzero;fill:#ff5f00;fill-opacity:1" d="M53.375 9.633h39.29v70.722h-39.29zm0 0"/><path style="stroke:none;fill-rule:nonzero;fill:#eb001b;fill-opacity:1" d="M55.867 44.992c0-13.742 6.363-26.863 17.09-35.36C53.497-5.733 25.184-2.362 9.84 17.255c-15.215 19.492-11.848 47.73 7.734 63.101a44.734 44.734 0 0 0 55.508 0C62.23 71.86 55.867 58.738 55.867 44.992zm0 0"/><path style="stroke:none;fill-rule:nonzero;fill:#f79e1b;fill-opacity:1" d="M145.676 44.992c0 24.867-20.082 44.985-44.903 44.985-10.105 0-19.835-3.375-27.691-9.622 19.457-15.37 22.824-43.609 7.484-63.226-2.246-2.746-4.742-5.371-7.484-7.496 19.457-15.367 47.773-11.996 62.988 7.62 6.239 7.876 9.606 17.618 9.606 27.74zm0 0"/></svg>