<svg width="90" height="55" viewBox="0 0 90 55" fill="none" xmlns="http://www.w3.org/2000/svg">
<path d="M57.1688 5.87953H32.8324V49.1205H57.1688V5.87953Z" fill="#FF5F00"/>
<path d="M34.3778 27.5C34.3739 23.3356 35.3283 19.2249 37.1688 15.4791C39.0092 11.7333 41.6874 8.4506 45.0007 5.87951C40.8977 2.69076 35.9701 0.707727 30.7812 0.15706C25.5922 -0.393607 20.3512 0.510295 15.6573 2.76549C10.9634 5.02069 7.00582 8.53618 4.23705 12.9101C1.46828 17.2841 0 22.34 0 27.5C0 32.66 1.46828 37.7159 4.23705 42.0899C7.00582 46.4638 10.9634 49.9793 15.6573 52.2345C20.3512 54.4897 25.5922 55.3936 30.7812 54.8429C35.9701 54.2923 40.8977 52.3092 45.0007 49.1205C41.6875 46.5494 39.0093 43.2667 37.1688 39.5209C35.3284 35.7751 34.3739 31.6644 34.3778 27.5Z" fill="#EB001B"/>
<path d="M90 27.5C90.0002 32.6599 88.5321 37.7158 85.7635 42.0898C82.9948 46.4637 79.0374 49.9792 74.3436 52.2344C69.6497 54.4897 64.4088 55.3936 59.22 54.8429C54.0311 54.2923 49.1036 52.3092 45.0007 49.1205C48.311 46.5468 50.9871 43.2636 52.8273 39.5184C54.6674 35.7732 55.6236 31.6638 55.6236 27.5C55.6236 23.3362 54.6674 19.2268 52.8273 15.4816C50.9871 11.7364 48.311 8.4532 45.0007 5.87951C49.1036 2.69076 54.0311 0.707713 59.22 0.157053C64.4088 -0.393607 69.6497 0.510334 74.3436 2.76555C79.0374 5.02077 82.9948 8.53626 85.7635 12.9102C88.5321 17.2841 90.0002 22.34 90 27.5Z" fill="#F79E1B"/>
<path d="M87.3465 44.5406V43.6553H87.7075V43.475H86.7881V43.6553H87.1492V44.5406H87.3465ZM89.1315 44.5406V43.4732H88.8497L88.5256 44.2074L88.2013 43.4732H87.9193V44.5406H88.1183V43.7355L88.4223 44.4296H88.6287L88.9327 43.7337V44.5406H89.1315Z" fill="#F79E1B"/>
</svg>
