<svg width="20" height="20" viewBox="0 0 20 20" fill="none" xmlns="http://www.w3.org/2000/svg">
<path d="M18.3337 10C18.3337 5.39764 14.6027 1.66667 10.0003 1.66667C5.39796 1.66667 1.66699 5.39764 1.66699 10C1.66699 13.9082 4.35749 17.1874 7.98719 18.0879V12.5465H6.26879V10H7.98719V8.90271C7.98719 6.06631 9.27079 4.75164 12.0555 4.75164C12.5834 4.75164 13.4944 4.85514 13.867 4.95867V7.26714C13.6703 7.24644 13.3287 7.23607 12.9043 7.23607C11.5379 7.23607 11.0099 7.75367 11.0099 9.09941V10H13.7319L13.2643 12.5465H11.0099V18.2723C15.1361 17.7739 18.3337 14.2606 18.3337 10Z" fill="#0866FF"/>
<path d="M13.264 12.5465L13.7317 10H11.0097V9.09938C11.0097 7.75364 11.5376 7.23608 12.9041 7.23608C13.3285 7.23608 13.6701 7.24641 13.8668 7.26711V4.95868C13.4941 4.85514 12.5832 4.75161 12.0552 4.75161C9.27059 4.75161 7.98695 6.06631 7.98695 8.90271V10H6.26855V12.5465H7.98695V18.0879C8.63172 18.2479 9.30589 18.3333 10.0001 18.3333C10.3419 18.3333 10.6787 18.3123 11.0097 18.2723V12.5465H13.264Z" fill="white"/>
</svg>
