<svg width="90" height="63" viewBox="0 0 90 63" fill="none" xmlns="http://www.w3.org/2000/svg">
<path d="M3.68044 49.119C3.68044 50.5918 4.72845 50.7621 5.66024 50.7621C9.7724 50.7621 11.1209 47.6485 11.1209 44.8001C11.1209 41.2284 8.8383 38.6484 5.16536 38.6484C4.38469 38.6484 4.02507 38.7032 3.68044 38.724V49.119ZM1.81657 40.1554C1.81657 38.437 0.92112 38.5503 0.0666193 38.5309V38.0371C0.807206 38.0716 1.56856 38.0716 2.31145 38.0716C3.11029 38.0716 4.19579 38.0371 5.60458 38.0371C10.5314 38.0371 13.2155 41.3404 13.2155 44.7248C13.2155 46.6167 12.113 51.3746 5.37589 51.3746C4.40747 51.3746 3.50971 51.3378 2.61657 51.3378C1.75976 51.3378 0.92112 51.3575 0.0666193 51.3746V50.8762C1.20547 50.7621 1.75976 50.7242 1.81657 49.4254V40.1554Z" fill="#231F20"/>
<path d="M15.9203 39.6991C15.4231 39.6991 14.9862 39.2395 14.9862 38.7437C14.9862 38.265 15.4427 37.824 15.9203 37.824C16.4132 37.824 16.8535 38.2262 16.8535 38.7437C16.8535 39.2592 16.4336 39.6991 15.9203 39.6991ZM13.8825 50.8768H14.2445C14.7768 50.8768 15.1569 50.8768 15.1569 50.2437V45.068C15.1569 44.227 14.8734 44.1118 14.1669 43.7321V43.426C15.0626 43.1564 16.1277 42.7965 16.2049 42.7359C16.3382 42.6615 16.4507 42.6421 16.5476 42.6421C16.6419 42.6421 16.6793 42.7553 16.6793 42.9085V50.2437C16.6793 50.8768 17.1004 50.8768 17.6305 50.8768H17.9549V51.3749C17.3075 51.3749 16.6419 51.3372 15.9569 51.3372C15.2717 51.3372 14.5868 51.3566 13.8825 51.3749V50.8768Z" fill="#231F20"/>
<path d="M19.7631 45.1815C19.7631 44.4766 19.5537 44.2846 18.6606 43.9235V43.5581C19.4776 43.2908 20.2568 43.0403 21.1719 42.6415C21.2287 42.6415 21.2844 42.6795 21.2844 42.8301V44.0756C22.371 43.2908 23.3042 42.6415 24.5798 42.6415C26.1965 42.6415 26.7678 43.8254 26.7678 45.3164V50.2443C26.7678 50.8774 27.1877 50.8774 27.7189 50.8774H28.0615V51.3743C27.3936 51.3743 26.728 51.3378 26.0451 51.3378C25.359 51.3378 24.6741 51.3572 23.9892 51.3743V50.8774H24.3315C24.8653 50.8774 25.2431 50.8774 25.2431 50.2443V45.2982C25.2431 44.207 24.5798 43.6733 23.4931 43.6733C22.8843 43.6733 21.9148 44.1694 21.2844 44.5907V50.2443C21.2844 50.8774 21.7066 50.8774 22.2389 50.8774H22.5815V51.3743C21.9148 51.3743 21.2469 51.3378 20.5608 51.3378C19.8779 51.3378 19.1921 51.3572 18.5069 51.3743V50.8774H18.8518C19.383 50.8774 19.7631 50.8774 19.7631 50.2443V45.1815Z" fill="#231F20"/>
<path d="M32.8785 45.4879C33.3518 45.4879 33.4074 45.2403 33.4074 45.0115C33.4074 44.0347 32.8182 43.252 31.7532 43.252C30.5936 43.252 29.7939 44.1112 29.5652 45.4879H32.8785ZM29.5093 46.1015C29.4695 46.2729 29.4695 46.5588 29.5093 47.2086C29.6209 49.0255 30.7837 50.5154 32.3049 50.5154C33.3518 50.5154 34.1734 49.9405 34.8753 49.2345L35.1418 49.5018C34.2657 50.6674 33.1825 51.6601 31.6223 51.6601C28.5945 51.6601 27.9868 48.7182 27.9868 47.4956C27.9868 43.7501 30.4981 42.6418 31.8282 42.6418C33.3711 42.6418 35.029 43.6154 35.0461 45.6399C35.0461 45.7578 35.0461 45.8707 35.029 45.9863L34.8549 46.1015H29.5093Z" fill="#231F20"/>
<path d="M35.4835 50.8768H35.9989C36.5313 50.8768 36.9094 50.8768 36.9094 50.2437V44.876C36.9094 44.2855 36.2071 44.17 35.9216 44.0156V43.7324C37.3093 43.1382 38.0733 42.6424 38.2449 42.6424C38.3577 42.6424 38.4145 42.6971 38.4145 42.8903V44.6087H38.4554C38.9287 43.8647 39.7287 42.6424 40.8894 42.6424C41.365 42.6424 41.9726 42.9647 41.9726 43.6536C41.9726 44.17 41.6142 44.6304 41.0795 44.6304C40.4877 44.6304 40.4877 44.17 39.8232 44.17C39.5 44.17 38.4338 44.6087 38.4338 45.7581V50.2437C38.4338 50.8768 38.8139 50.8768 39.3465 50.8768H40.4124V51.3752C39.3659 51.3569 38.5682 51.3372 37.75 51.3372C36.9682 51.3372 36.1696 51.3569 35.4835 51.3752V50.8768Z" fill="#231F20"/>
<path d="M42.8095 48.7185C43.0587 49.9788 43.8201 51.0502 45.2095 51.0502C46.3311 51.0502 46.7478 50.3616 46.7478 49.693C46.7478 47.4388 42.6025 48.1619 42.6025 45.0874C42.6025 44.0156 43.4593 42.6421 45.553 42.6421C46.1606 42.6421 46.9788 42.8136 47.7208 43.1952L47.8549 45.1444H47.418C47.228 43.9415 46.5598 43.2511 45.3425 43.2511C44.5802 43.2511 43.8587 43.6922 43.8587 44.5137C43.8587 46.751 48.2725 46.0618 48.2725 49.0622C48.2725 50.3225 47.2643 51.6604 45.001 51.6604C44.2365 51.6604 43.3433 51.3943 42.6774 51.0129L42.4684 48.8144L42.8095 48.7185Z" fill="#231F20"/>
<path d="M65.4571 41.4939H64.9813C64.6205 39.2592 63.0401 38.3612 60.9112 38.3612C58.7197 38.3612 55.5405 39.8314 55.5405 44.4155C55.5405 48.2786 58.2863 51.0502 61.214 51.0502C63.0981 51.0502 64.6594 49.7514 65.0404 47.7437L65.4764 47.857L65.0404 50.6483C64.2407 51.1464 62.0878 51.6604 60.8316 51.6604C56.3792 51.6604 53.565 48.7755 53.565 44.4761C53.565 40.5583 57.0459 37.7484 60.7768 37.7484C62.3188 37.7484 63.8015 38.2456 65.2671 38.7608L65.4571 41.4939Z" fill="#231F20"/>
<path d="M66.1418 50.8768H66.5048C67.0384 50.8768 67.4193 50.8768 67.4193 50.2437V39.6055C67.4193 38.3612 67.1338 38.3224 66.4102 38.1133V37.8069C67.1704 37.5581 67.9704 37.2167 68.3707 36.9842C68.5789 36.8701 68.7327 36.7728 68.7886 36.7728C68.9045 36.7728 68.9409 36.8883 68.9409 37.0424V50.2437C68.9409 50.8768 69.3608 50.8768 69.8934 50.8768H70.2164V51.3752C69.5724 51.3752 68.9045 51.3372 68.2173 51.3372C67.5344 51.3372 66.8495 51.3569 66.1418 51.3752V50.8768Z" fill="#231F20"/>
<path d="M78.3635 50.3222C78.3635 50.6686 78.5702 50.6857 78.8955 50.6857C79.1222 50.6857 79.4103 50.6686 79.658 50.6686V51.0705C78.8364 51.1461 77.2777 51.5472 76.9134 51.6613L76.8203 51.6042V50.0584C75.6803 50.9941 74.8018 51.6613 73.449 51.6613C72.4226 51.6613 71.3587 50.9941 71.3587 49.39V44.4963C71.3587 43.998 71.2812 43.5193 70.2184 43.4257V43.0623C70.9045 43.0417 72.4226 42.9297 72.6715 42.9297C72.8835 42.9297 72.8835 43.0623 72.8835 43.4828V48.4118C72.8835 48.9843 72.8835 50.6283 74.5377 50.6283C75.1828 50.6283 76.0396 50.1302 76.8387 49.4665V44.3214C76.8387 43.9409 75.926 43.7318 75.2419 43.539V43.1949C76.9547 43.0794 78.022 42.9297 78.2106 42.9297C78.3635 42.9297 78.3635 43.0623 78.3635 43.2737V50.3222Z" fill="#231F20"/>
<path d="M82.1486 49.2148C82.1486 49.9414 82.8338 51.1641 84.1102 51.1641C86.1483 51.1641 87.0039 49.1564 87.0039 47.455C87.0039 45.3929 85.4429 43.6733 83.9588 43.6733C83.2511 43.6733 82.6631 44.1326 82.1486 44.5736V49.2148ZM82.1486 44.0159C82.9096 43.3681 83.9398 42.6427 84.9855 42.6427C87.1928 42.6427 88.5252 44.5736 88.5252 46.6543C88.5252 49.1563 86.6988 51.661 83.975 51.661C82.5662 51.661 81.8265 51.2028 81.3304 50.9938L80.7603 51.4313L80.362 51.2223C80.5293 50.0958 80.6259 48.9852 80.6259 47.8208V39.6055C80.6259 38.3615 80.3415 38.3215 79.6179 38.1124V37.8063C80.3816 37.5581 81.1779 37.2167 81.5784 36.9836C81.7869 36.8704 81.9392 36.7734 81.9983 36.7734C82.1122 36.7734 82.1486 36.8886 82.1486 37.043V44.0159Z" fill="#231F20"/>
<path d="M0.0449925 62.4845H0.189764C0.561788 62.4845 0.956594 62.4353 0.956594 61.8926V56.4461C0.956594 55.9034 0.561788 55.8542 0.189764 55.8542H0.0449925V55.5377C0.450181 55.5377 1.07051 55.5811 1.57894 55.5811C2.0966 55.5811 2.71693 55.5377 3.20287 55.5377V55.8542H3.0581C2.68607 55.8542 2.29127 55.9034 2.29127 56.4461V61.8926C2.29127 62.4353 2.68607 62.4845 3.0581 62.4845H3.20287V62.7987C2.70655 62.7987 2.0842 62.7576 1.56769 62.7576C1.05897 62.7576 0.450181 62.7987 0.0449925 62.7987V62.4845Z" fill="#231F20"/>
<path d="M3.15845 62.7539L3.15961 62.532H3.05953C2.68982 62.532 2.24829 62.4672 2.24598 61.8923V56.4455C2.24829 55.871 2.68982 55.807 3.05953 55.807H3.15845V55.5866C2.68059 55.5866 2.08103 55.6266 1.57923 55.6266C1.08781 55.6266 0.491417 55.5875 0.090843 55.5866V55.807H0.189761C0.558612 55.807 0.99985 55.871 0.99985 56.4455V61.8923C0.99985 62.4672 0.558612 62.532 0.189761 62.532H0.090843V62.7539C0.491417 62.7481 1.07743 62.7116 1.56798 62.7116C2.0718 62.7116 2.67165 62.7504 3.15845 62.7539ZM3.20286 62.843C2.70337 62.843 2.08218 62.8019 1.56798 62.8019C1.06041 62.8019 0.451619 62.843 0.0452773 62.843H0V62.442H0.189761C0.565534 62.4327 0.907853 62.402 0.91016 61.8923V56.4455C0.907853 55.9373 0.565534 55.9028 0.189761 55.8962H0V55.4963H0.0452773C0.451619 55.4963 1.07166 55.5362 1.57923 55.5362C2.09458 55.5362 2.71375 55.4963 3.20286 55.4963H3.24843V55.8962H3.05953C2.6829 55.9028 2.33827 55.9373 2.33712 56.4455V61.8923C2.33827 62.402 2.6829 62.4327 3.05953 62.442H3.24843V62.843H3.20286Z" fill="#231F20"/>
<path d="M10.318 60.7496L10.3385 60.7291V56.8295C10.3385 55.9773 9.74788 55.8536 9.43613 55.8536H9.20974V55.5385C9.69539 55.5385 10.1735 55.5808 10.6595 55.5808C11.0825 55.5808 11.5094 55.5385 11.9316 55.5385V55.8536H11.779C11.3421 55.8536 10.8539 55.935 10.8539 57.1724V61.9048C10.8539 62.2682 10.8663 62.6314 10.9176 62.9537H10.5239L5.19073 56.9862V61.2683C5.19073 62.1756 5.36607 62.484 6.16376 62.484H6.33882V62.7982C5.89527 62.7982 5.44913 62.757 5.00299 62.757C4.53984 62.757 4.06197 62.7982 3.59651 62.7982V62.484H3.74099C4.45563 62.484 4.67423 61.9986 4.67423 61.1655V56.7872C4.67423 56.2046 4.19521 55.8536 3.7309 55.8536H3.59651V55.5385C3.98814 55.5385 4.39305 55.5808 4.78554 55.5808C5.09729 55.5808 5.39895 55.5385 5.70839 55.5385L10.318 60.7496Z" fill="#231F20"/>
<path d="M10.2932 60.7285V60.725L10.284 60.7184L10.2932 60.7285ZM10.5231 62.9085H10.8668C10.8201 62.5966 10.812 62.2491 10.812 61.9054V57.1718C10.812 55.924 11.3323 55.8076 11.7782 55.8076H11.8875V55.5857C11.4788 55.588 11.0704 55.6269 10.6598 55.6269C10.1854 55.6269 9.72308 55.588 9.25445 55.5857V55.8076H9.43527C9.75509 55.8076 10.3821 55.9492 10.3821 56.8301L10.3694 60.7606L10.348 60.78L10.3126 60.813L5.70898 55.5857C5.4004 55.5857 5.10018 55.6269 4.78613 55.6269C4.40718 55.6269 4.0167 55.588 3.6415 55.5857L3.64035 55.8076H3.73119C4.21713 55.8076 4.71778 56.18 4.71778 56.7878V61.1661C4.71778 61.9992 4.48678 62.5291 3.74158 62.5326L3.6415 62.5291V62.7541C4.08966 62.7486 4.55051 62.711 5.00328 62.711C5.43702 62.711 5.86701 62.7486 6.29354 62.7541V62.5326H6.1629C5.3482 62.5291 5.14546 62.175 5.14546 61.2689V56.8689L10.5231 62.9085ZM10.9167 63L10.4902 62.9838L5.23428 57.1032V61.2689C5.24784 62.175 5.38454 62.431 6.1629 62.4423H6.38583V62.8422H6.33911C5.8921 62.8422 5.44596 62.8022 5.00328 62.8022C4.54128 62.8022 4.06573 62.8422 3.59479 62.8422H3.54922V62.4423H3.74158C4.4265 62.4368 4.62117 61.9957 4.63011 61.1661V56.7878C4.6278 56.2347 4.17503 55.8976 3.73119 55.8965H3.54922V55.4957H3.59479C3.99161 55.4957 4.39565 55.5368 4.78613 55.5368C5.09326 55.5368 5.39376 55.4957 5.74301 55.5116L10.2932 60.6544V56.8301C10.2878 56.0027 9.73923 55.9034 9.43527 55.8965H9.16216V55.4957H9.20888C9.69713 55.4957 10.175 55.5368 10.6598 55.5368C11.0797 55.5368 11.505 55.4957 11.9319 55.4957H11.9783V55.8965H11.7782C11.3493 55.9092 10.9124 55.948 10.8997 57.1718V61.9054C10.8997 62.2665 10.9101 62.6296 10.96 62.9473L10.9692 63H10.9167Z" fill="#231F20"/>
<path d="M13.4824 56.0592C12.7051 56.0592 12.6766 56.2466 12.5197 57.005H12.2103C12.2524 56.7151 12.3023 56.4235 12.3354 56.1209C12.3752 55.8307 12.3966 55.5382 12.3966 55.2388H12.646C12.7291 55.5507 12.9872 55.5382 13.2672 55.5382H18.6105C18.8894 55.5382 19.1489 55.529 19.1706 55.2171L19.4163 55.2605C19.3785 55.5382 19.3364 55.8203 19.3047 56.1015C19.283 56.3812 19.283 56.6636 19.283 56.9436L18.9736 57.06C18.9531 56.6737 18.8995 56.0592 18.2065 56.0592H16.509V61.5915C16.509 62.3948 16.8721 62.4848 17.3681 62.4848H17.5637V62.7979C17.1611 62.7979 16.4349 62.757 15.8763 62.757C15.2562 62.757 14.5292 62.7979 14.1252 62.7979V62.4848H14.3221C14.8932 62.4848 15.181 62.4347 15.181 61.6143V56.0592H13.4824Z" fill="#231F20"/>
<path d="M17.5661 62.8425C17.1575 62.8425 16.4328 62.8013 15.8765 62.8013C15.2564 62.8013 14.5337 62.8425 14.1254 62.8425H14.0821V62.4414H14.3232C14.8945 62.4278 15.1243 62.4208 15.1356 61.614V56.1035H13.4822V56.0155H15.2267V61.614C15.2267 62.4472 14.8922 62.5329 14.3232 62.5329H14.1706V62.7521C14.5804 62.7486 15.2755 62.7113 15.8765 62.7113C16.4169 62.7113 17.1088 62.7486 17.5183 62.7521V62.5329H17.368C16.8674 62.5329 16.4625 62.4104 16.4625 61.5915V56.0155H18.2067C18.902 56.0166 18.9931 56.6086 19.0147 56.9949L19.2411 56.9115C19.2411 56.6419 19.2423 56.3699 19.2593 56.0942C19.2887 55.8293 19.3276 55.5631 19.3663 55.297L19.2091 55.2707C19.1581 55.5724 18.8676 55.5895 18.6095 55.586H13.2138C12.9692 55.586 12.705 55.5736 12.613 55.2843H12.44C12.44 55.5724 12.4195 55.8498 12.3786 56.1287C12.3489 56.4134 12.3036 56.6885 12.2647 56.9604H12.4856C12.6234 56.2385 12.7108 56.003 13.4822 56.0155V56.1035C12.7177 56.1194 12.7347 56.2474 12.564 57.0166L12.5585 57.0519H12.158L12.1646 56.9983C12.2047 56.7082 12.2592 56.4166 12.2909 56.1139C12.3319 55.8261 12.3523 55.5368 12.3523 55.2385V55.1931H12.6814L12.688 55.2261C12.7598 55.489 12.9499 55.4902 13.2138 55.4957H18.6095C18.8962 55.4902 19.1079 55.4855 19.1249 55.2133L19.1284 55.1655L19.1751 55.1748L19.4663 55.2203L19.4617 55.2649C19.4208 55.5449 19.3798 55.8261 19.3501 56.1035C19.3288 56.3824 19.3288 56.6636 19.3288 56.9433V56.9752L19.2991 56.9879L18.9317 57.1229L18.9305 57.0597C18.902 56.6702 18.861 56.1035 18.2067 56.1035H16.5536V61.5915C16.5637 62.3762 16.8743 62.4313 17.368 62.4414H17.6082V62.8425H17.5661Z" fill="#231F20"/>
<path d="M19.749 62.4845H19.8935C20.2655 62.4845 20.6591 62.4353 20.6591 61.8926V56.4461C20.6591 55.9034 20.2655 55.8542 19.8935 55.8542H19.749V55.5377C20.3782 55.5377 21.4591 55.5811 22.3263 55.5811C23.1978 55.5811 24.2732 55.5377 24.9752 55.5377C24.9582 55.9865 24.9683 56.6746 24.9991 57.1315L24.6862 57.2149C24.6372 56.5396 24.512 55.9993 23.4242 55.9993H21.9883V58.7208H23.2172C23.8395 58.7208 23.975 58.3701 24.0353 57.808H24.3448C24.3254 58.2134 24.3142 58.618 24.3142 59.0237C24.3142 59.4201 24.3254 59.8143 24.3448 60.2084L24.0353 60.2712C23.975 59.6475 23.943 59.242 23.2275 59.242H21.9883V61.6641C21.9883 62.3406 22.5867 62.3406 23.2477 62.3406C24.4927 62.3406 25.0401 62.2572 25.3507 61.0722L25.6396 61.1455C25.5055 61.6983 25.3812 62.2456 25.2881 62.7987C24.6271 62.7987 23.4346 62.7576 22.5025 62.7576C21.5696 62.7576 20.3384 62.7987 19.749 62.7987V62.4845Z" fill="#231F20"/>
<path d="M25.2506 62.7521C25.3391 62.2277 25.4577 61.7021 25.5863 61.1788L25.3812 61.1273C25.0706 62.2917 24.4711 62.3945 23.2477 62.3855C22.5948 62.3855 21.9428 62.3855 21.9393 61.6644V59.1974H23.2275C23.9511 59.1885 24.0226 59.6284 24.074 60.2203L24.2983 60.1733C24.2799 59.7905 24.2698 59.4045 24.2698 59.024C24.2698 58.6342 24.2799 58.2447 24.2983 57.8503H24.074C24.0171 58.3944 23.8499 58.7735 23.216 58.7668H21.9393V55.9515H23.4242C24.5019 55.9457 24.6816 56.5046 24.726 57.1556L24.9489 57.0951C24.9319 56.8014 24.9218 56.4278 24.9218 56.0806C24.9218 55.8991 24.925 55.7331 24.9296 55.586C24.2265 55.588 23.1774 55.6271 22.3263 55.6271C21.4761 55.6271 20.4273 55.588 19.7934 55.586V55.8076H19.8935C20.2632 55.8076 20.7035 55.8716 20.7061 56.4449V61.8929C20.7035 62.4663 20.2632 62.5283 19.8935 62.5326H19.7934V62.7521C20.3953 62.7498 21.5935 62.711 22.5025 62.711C23.4161 62.711 24.5815 62.7498 25.2506 62.7521ZM25.2881 62.8425C24.6236 62.8425 23.4334 62.8002 22.5025 62.8002C21.5696 62.8002 20.3407 62.8425 19.749 62.8425H19.7034V62.4425H19.8935C20.2678 62.4356 20.6104 62.4014 20.6139 61.8929V56.4449C20.6104 55.939 20.2678 55.9046 19.8935 55.8956H19.7034V55.4957H19.749C20.3794 55.4957 21.4591 55.5368 22.3263 55.5368C23.1955 55.5368 24.2709 55.4957 24.9752 55.4957H25.0219V55.5414C25.0127 55.6978 25.0092 55.882 25.0092 56.0806C25.0092 56.4383 25.0219 56.8312 25.0412 57.1272V57.1648L25.0081 57.1753L24.6441 57.2711L24.643 57.2164C24.5815 56.5434 24.4927 56.052 23.4242 56.043H22.0293V58.6753H23.216C23.8144 58.6707 23.9194 58.3634 23.9898 57.8025L23.9944 57.7625H24.3926V57.808C24.371 58.2137 24.3586 58.6183 24.3586 59.024C24.3586 59.417 24.371 59.8122 24.3926 60.2087V60.2443L24.3551 60.2533L23.9944 60.3242L23.9898 60.2762C23.9194 59.642 23.9159 59.2947 23.2275 59.2866L22.0293 59.2843V61.6644C22.0304 62.2963 22.572 62.2928 23.2477 62.2963C24.4962 62.2894 24.9945 62.2277 25.3063 61.0598L25.3166 61.0175L25.361 61.0268L25.6921 61.1125L25.6829 61.1559C25.5488 61.7044 25.4256 62.2563 25.3325 62.8045L25.3256 62.8425H25.2881Z" fill="#231F20"/>
<path d="M28.3643 59.0538H28.8699C29.9064 59.0538 30.465 58.6608 30.465 57.4327C30.465 56.5092 29.8744 55.9141 28.9529 55.9141C28.6398 55.9141 28.5077 55.9471 28.3643 55.9564V59.0538ZM27.0386 56.6419C27.0386 55.882 26.6245 55.8533 26.3038 55.8533H26.1149V55.5382C26.446 55.5382 27.0888 55.5805 27.7215 55.5805C28.3404 55.5805 28.8387 55.5382 29.3896 55.5382C30.6914 55.5382 31.851 55.8924 31.851 57.3707C31.851 58.3055 31.2318 58.8766 30.4139 59.2024L32.1855 61.8611C32.4745 62.3021 32.6792 62.4243 33.188 62.4848V62.7979C32.8465 62.7979 32.5154 62.757 32.174 62.757C31.851 62.757 31.5208 62.7979 31.2001 62.7979C30.4036 61.7493 29.7186 60.6248 29.0461 59.4274H28.3643V61.6531C28.3643 62.4564 28.7352 62.4848 29.2111 62.4848H29.4V62.7979C28.807 62.7979 28.2075 62.757 27.6168 62.757C27.1208 62.757 26.6337 62.7979 26.1149 62.7979V62.4848H26.3038C26.6839 62.4848 27.0386 62.3102 27.0386 61.9239V56.6419Z" fill="#231F20"/>
<path d="M28.8702 59.0095C29.8943 58.9994 30.4119 58.6429 30.4209 57.4339C30.4165 56.5269 29.8533 55.9634 28.9521 55.9579C28.6721 55.9579 28.5411 55.983 28.409 55.9978V59.0095H28.8702ZM28.8702 59.0975H28.3182V55.9133L28.3568 55.9098C28.499 55.8985 28.6377 55.871 28.9521 55.871C29.8943 55.871 30.5085 56.4866 30.5108 57.4339C30.5074 58.6748 29.9136 59.0975 28.8702 59.0975ZM28.3182 59.3831H29.0703L29.0827 59.406C29.7564 60.6022 30.4382 61.7244 31.2004 62.7539C31.5167 62.7539 31.8501 62.7116 32.1711 62.7116C32.5022 62.7116 32.822 62.7469 33.1438 62.7515V62.5231C32.6567 62.4646 32.4304 62.3186 32.1483 61.8877L30.3447 59.1798L30.3969 59.1581C31.2073 58.8384 31.8069 58.2829 31.808 57.3687C31.8069 55.928 30.6896 55.5909 29.3902 55.5866C28.8428 55.5866 28.343 55.6266 27.7218 55.6266C27.1107 55.6266 26.4985 55.5875 26.1596 55.5866V55.8081H26.3029C26.6239 55.8081 27.0801 55.8606 27.0801 56.6421V61.9242C27.0801 62.3426 26.6931 62.532 26.3029 62.532H26.1596V62.7515C26.6591 62.7504 27.1289 62.7116 27.6148 62.7116C28.1951 62.7116 28.7791 62.7504 29.3524 62.7515V62.532H29.2113C28.739 62.532 28.3182 62.4738 28.3182 61.6534V59.3831ZM33.1883 62.8419C32.8413 62.8419 32.5123 62.8019 32.1711 62.8019C31.8568 62.8019 31.5248 62.8419 31.1629 62.8268C30.371 61.7791 29.6904 60.6628 29.0204 59.4734H28.409V61.6534C28.4194 62.4362 28.7323 62.4292 29.2113 62.442H29.4435V62.8419H29.3968C28.8039 62.8419 28.202 62.8019 27.6148 62.8019C27.1199 62.8019 26.6352 62.8419 26.114 62.8419H26.0719V62.442H26.3029C26.6761 62.4385 26.9879 62.2752 26.9913 61.9242V56.6421C26.9847 55.9052 26.6239 55.9063 26.3029 55.8962H26.0719V55.4963H26.114C26.452 55.4963 27.0902 55.5362 27.7218 55.5362C28.3387 55.5362 28.837 55.4963 29.3902 55.4963C30.6928 55.4963 31.8957 55.8606 31.8989 57.3687C31.8989 58.3081 31.28 58.8943 30.4823 59.2209L32.221 61.8364C32.5102 62.2682 32.6899 62.3768 33.194 62.442L33.2315 62.4455V62.8419H33.1883Z" fill="#231F20"/>
<path d="M40.2181 60.7496L40.2374 60.7291V56.8295C40.2374 55.9773 39.6479 55.8536 39.3385 55.8536H39.1098V55.5385C39.598 55.5385 40.0713 55.5808 40.5607 55.5808C40.986 55.5808 41.4094 55.5385 41.8351 55.5385V55.8536H41.6813C41.2456 55.8536 40.7573 55.935 40.7573 57.1724V61.9048C40.7573 62.2682 40.7666 62.6314 40.8176 62.9537H40.4263L35.0931 56.9862V61.2683C35.0931 62.1756 35.2696 62.484 36.0673 62.484H36.2446V62.7982C35.7976 62.7982 35.3515 62.757 34.9065 62.757C34.4402 62.757 33.9643 62.7982 33.4988 62.7982V62.484H33.641C34.358 62.484 34.5743 61.9986 34.5743 61.1655V56.7872C34.5743 56.2046 34.0975 55.8536 33.6332 55.8536H33.4988V55.5385C33.8905 55.5385 34.2977 55.5808 34.6893 55.5808C34.9988 55.5808 35.2993 55.5385 35.6099 55.5385L40.2181 60.7496Z" fill="#231F20"/>
<path d="M40.1933 60.7285V60.725L40.1875 60.7184L40.1933 60.7285ZM40.4266 62.9085H40.7646C40.7213 62.5978 40.7121 62.2491 40.7121 61.9054V57.1718C40.7121 55.924 41.2366 55.8099 41.6805 55.8076H41.7883V55.5857C41.3811 55.588 40.9713 55.6269 40.5607 55.6269C40.0863 55.6269 39.6219 55.588 39.1556 55.5857V55.8076H39.3388C39.6571 55.8099 40.2855 55.9492 40.2855 56.8301L40.2705 60.7606L40.2512 60.78L40.2183 60.8154L35.6099 55.5857C35.3027 55.5857 34.9999 55.6269 34.6893 55.6269C34.3049 55.6269 33.9179 55.588 33.5424 55.5857V55.8076H33.6324C34.1195 55.8099 34.619 56.1776 34.619 56.7878V61.1649C34.619 61.9992 34.3833 62.5291 33.6404 62.5326H33.5424V62.7521C33.9908 62.7486 34.4517 62.711 34.9068 62.711C35.3391 62.711 35.7693 62.7486 36.1982 62.7521V62.5326H36.0675C35.2514 62.5326 35.0478 62.1761 35.0455 61.2689V56.8689L40.4266 62.9085ZM40.8179 63L40.3922 62.9838L35.1378 57.1032V61.2689C35.1502 62.1761 35.2869 62.431 36.0675 62.4423H36.287V62.8422H36.2426C35.7941 62.8422 35.3494 62.7999 34.9068 62.7999C34.4436 62.7999 33.9634 62.8422 33.4991 62.8422H33.4501V62.4423H33.6404C34.3242 62.4391 34.5221 61.9957 34.529 61.1649V56.7878C34.5267 56.2324 34.0774 55.8976 33.6324 55.8965H33.4501V55.4957H33.4991C33.8931 55.4957 34.2991 55.5368 34.6893 55.5368C34.9944 55.5368 35.2935 55.4957 35.6407 55.5081L40.1933 60.6544V56.8301C40.1921 56.0027 39.639 55.9011 39.3388 55.8965H39.0645V55.4957H39.1101C39.6003 55.4957 40.077 55.5368 40.5607 55.5368C40.9817 55.5368 41.4074 55.4957 41.8339 55.4957H41.8783V55.8965H41.6805C41.2537 55.9069 40.8133 55.948 40.802 57.1718V61.9054C40.802 62.2665 40.811 62.6264 40.8635 62.9473L40.8681 63H40.8179Z" fill="#231F20"/>
<path d="M45.0128 56.7041H44.9924L44.0286 59.6475H45.9639L45.0128 56.7041ZM43.5028 61.3111C43.397 61.6641 43.2707 61.9372 43.2707 62.1211C43.2707 62.4344 43.7087 62.4845 44.049 62.4845H44.1638V62.7976C43.7474 62.777 43.3243 62.7576 42.9087 62.7576C42.5356 62.7576 42.1647 62.777 41.7927 62.7976V62.4845H41.8529C42.2567 62.4845 42.6005 62.2456 42.7519 61.8092L44.4107 57.0392C44.5451 56.6529 44.734 56.1342 44.7942 55.7467C45.1256 55.6338 45.5406 55.4268 45.7376 55.3011C45.7693 55.2898 45.7854 55.2817 45.8195 55.2817C45.8492 55.2817 45.8708 55.2817 45.8924 55.3115C45.923 55.3949 45.9539 55.4884 45.9867 55.5718L47.8904 61.0105C48.0144 61.374 48.1396 61.76 48.2728 62.0722C48.3977 62.3623 48.6163 62.4845 48.9577 62.4845H49.018V62.7976C48.5537 62.777 48.0871 62.7576 47.5913 62.7576C47.0849 62.7576 46.5661 62.777 46.0392 62.7976V62.4845H46.1528C46.3896 62.4845 46.7936 62.4457 46.7936 62.1851C46.7936 62.0493 46.7014 61.7681 46.584 61.4357L46.1814 60.229H43.8307L43.5028 61.3111Z" fill="#231F20"/>
<path d="M44.0885 59.6035H45.9011L44.9999 56.8153L44.0885 59.6035ZM43.9645 59.6935L44.9566 56.6601H45.0431L46.0262 59.6935H43.9645ZM46.0819 62.7487C46.5929 62.7327 47.097 62.7113 47.591 62.7113C48.0732 62.7113 48.5228 62.7327 48.9733 62.7487V62.5329H48.9574C48.6044 62.5364 48.361 62.3933 48.2313 62.0896C48.0969 61.7742 47.9709 61.3879 47.8492 61.0247L45.9432 55.586C45.9112 55.5026 45.8794 55.4088 45.8544 55.3347C45.8443 55.3242 45.8477 55.3242 45.8385 55.3242H45.8192C45.7987 55.3242 45.7863 55.33 45.7601 55.3381C45.5599 55.467 45.1432 55.6729 44.8361 55.754C44.7735 56.1493 44.5869 56.6668 44.4516 57.0519L42.796 61.8255C42.6376 62.2769 42.2749 62.5329 41.8527 62.5329H41.8365V62.7487C42.1906 62.7327 42.5503 62.7113 42.9096 62.7113C43.3102 62.7113 43.7185 62.7327 44.1145 62.7487V62.5329H44.0487C43.7108 62.5283 43.2395 62.4918 43.2283 62.1226C43.2283 61.9158 43.3534 61.6485 43.457 61.299L43.5028 61.3111L43.457 61.2978L43.7984 60.1861H46.2105L46.6258 61.4212C46.7432 61.756 46.8375 62.0325 46.8375 62.1854C46.8216 62.5042 46.3859 62.5271 46.1526 62.5329H46.0819V62.7487ZM49.0154 62.8425C48.5525 62.8231 48.0868 62.8002 47.591 62.8002C47.0846 62.8002 46.569 62.8231 46.0389 62.8425L45.9922 62.846V62.4379H46.1526C46.3902 62.4379 46.7455 62.3855 46.7455 62.1854C46.7478 62.0667 46.6578 61.7811 46.543 61.451L46.1494 60.275H43.8645L43.5412 61.3242C43.4353 61.6804 43.3136 61.9546 43.3136 62.1226C43.3171 62.3762 43.705 62.4379 44.0487 62.4379H44.2068V62.846L44.1601 62.8425C43.7459 62.8231 43.3214 62.8002 42.9096 62.8002C42.5376 62.8002 42.1644 62.8231 41.7935 62.8425L41.748 62.846V62.4379H41.8527C42.2385 62.4379 42.5592 62.2164 42.7083 61.7948L44.3674 57.0232C44.5038 56.6372 44.6893 56.1195 44.7792 55.7059C45.1037 55.593 45.5187 55.3836 45.72 55.2582C45.7497 55.2478 45.7771 55.233 45.8192 55.233C45.8443 55.2319 45.9011 55.2397 45.9319 55.2959C45.9637 55.3804 45.9954 55.4728 46.0262 55.5565L47.9345 60.9961C48.0562 61.3595 48.1802 61.7432 48.3143 62.0496C48.4337 62.3285 48.6252 62.4379 48.9574 62.4379H49.0644V62.846L49.0154 62.8425Z" fill="#231F20"/>
<path d="M49.476 56.0592C48.6973 56.0592 48.6679 56.2466 48.5122 57.005H48.2004C48.2422 56.7151 48.2947 56.4235 48.3253 56.1209C48.3674 55.8307 48.3879 55.5382 48.3879 55.2388H48.6362C48.7192 55.5507 48.9785 55.5382 49.2574 55.5382H54.6007C54.8795 55.5382 55.1368 55.529 55.1584 55.2171L55.4073 55.2605C55.3675 55.5382 55.328 55.8203 55.2937 56.1015C55.2686 56.3812 55.2686 56.6636 55.2686 56.9436L54.9614 57.06C54.9444 56.6737 54.8896 56.0592 54.1969 56.0592H52.498V61.5915C52.498 62.3948 52.8608 62.4848 53.3583 62.4848H53.5538V62.7979C53.1512 62.7979 52.4262 62.757 51.8664 62.757C51.2461 62.757 50.5194 62.7979 50.1142 62.7979V62.4848H50.312C50.8845 62.4848 51.1746 62.4347 51.1746 61.6143V56.0592H49.476Z" fill="#231F20"/>
<path d="M53.5528 62.8425C53.149 62.8425 52.424 62.8013 51.8668 62.8013C51.2477 62.8013 50.5238 62.8425 50.1146 62.8425H50.071V62.4414H50.3124C50.8837 62.4278 51.1113 62.4208 51.126 61.614V56.1035H49.4749V56.0155H51.2159V61.614C51.2159 62.4472 50.8826 62.5283 50.3124 62.5329H50.1598V62.7533C50.5697 62.7486 51.2647 62.7113 51.8668 62.7113C52.4073 62.7113 53.1 62.7486 53.5098 62.7533L53.5075 62.5329H53.3561C52.8577 62.5283 52.4551 62.4104 52.454 61.5915V56.0155H54.1959C54.8935 56.0166 54.982 56.6086 55.0028 56.9949L55.228 56.9115C55.228 56.6419 55.228 56.3699 55.2494 56.0969C55.2779 55.8293 55.3189 55.5631 55.3552 55.299L55.2006 55.2707C55.1504 55.5724 54.8606 55.5895 54.5996 55.586H49.2041C48.9596 55.5872 48.6968 55.5736 48.602 55.2808H48.4327C48.4292 55.5724 48.4111 55.8498 48.3689 56.1287C48.3404 56.4154 48.2902 56.6885 48.2519 56.9604H48.4748C48.6115 56.2385 48.6989 56.0007 49.4749 56.0155V56.1035C48.7058 56.1174 48.724 56.2474 48.5555 57.0166L48.5475 57.0519H48.1469L48.1538 56.9983C48.1959 56.7082 48.2484 56.4166 48.279 56.1174C48.3211 55.8261 48.3404 55.5368 48.3404 55.2385V55.1931H48.6683L48.6772 55.2261C48.7502 55.489 48.9411 55.4902 49.2041 55.4957H54.5996C54.8866 55.4902 55.0971 55.4855 55.1141 55.2133L55.1153 55.1655L55.1652 55.1748L55.4602 55.2203L55.4509 55.2649C55.4065 55.5449 55.369 55.8261 55.3385 56.1035C55.3189 56.3824 55.3189 56.6636 55.3189 56.9433V56.9752L55.2871 56.9879L54.9197 57.1229V57.0597C54.8935 56.6702 54.8511 56.1035 54.1959 56.1035H52.5425V61.5915C52.5529 62.3762 52.8635 62.4313 53.3561 62.4414H53.5986V62.8425H53.5528Z" fill="#231F20"/>
<path d="M55.7891 62.4845H55.9336C56.3091 62.4845 56.7004 62.4353 56.7004 61.8926V56.4461C56.7004 55.9034 56.3091 55.8542 55.9336 55.8542H55.7891V55.5377C56.1931 55.5377 56.8132 55.5811 57.3208 55.5811C57.8384 55.5811 58.4596 55.5377 58.9487 55.5377V55.8542H58.8042C58.429 55.8542 58.0339 55.9034 58.0339 56.4461V61.8926C58.0339 62.4353 58.429 62.4845 58.8042 62.4845H58.9487V62.7987C58.4507 62.7987 57.8295 62.7576 57.3115 62.7576C56.8028 62.7576 56.1931 62.7987 55.7891 62.7987V62.4845Z" fill="#231F20"/>
<path d="M58.9008 62.7521V62.5326H58.8042C58.4322 62.5326 57.9918 62.4663 57.9918 61.8929V56.4449C57.9918 55.8716 58.4322 55.8076 58.8042 55.8076H58.9008V55.586C58.423 55.588 57.8257 55.6271 57.3205 55.6271C56.829 55.6271 56.235 55.588 55.8347 55.586V55.8076H55.9333C56.301 55.8076 56.7448 55.8716 56.7448 56.4449V61.8929C56.7448 62.4663 56.301 62.5326 55.9333 62.5326H55.8347V62.7521C56.235 62.7463 56.819 62.711 57.3115 62.711C57.8145 62.711 58.414 62.7486 58.9008 62.7521ZM58.9487 62.8425C58.4481 62.8425 57.828 62.8002 57.3115 62.8002C56.8051 62.8002 56.1929 62.8425 55.7888 62.8425H55.7459V62.4425H55.9333C56.3088 62.4356 56.6517 62.4014 56.6526 61.8929V56.4449C56.6517 55.939 56.3088 55.9034 55.9333 55.8956H55.7459V55.4957H55.7888C56.1929 55.4957 56.8152 55.5368 57.3205 55.5368C57.8384 55.5368 58.4582 55.4957 58.9487 55.4957H58.9908V55.8956H58.8042C58.4253 55.9034 58.0838 55.939 58.0807 56.4449V61.8929C58.0838 62.4014 58.4253 62.4356 58.8042 62.4425H58.9908V62.8425H58.9487Z" fill="#231F20"/>
<path d="M63.2333 62.4967C65.2449 62.4967 65.5924 60.7178 65.5924 59.2027C65.5924 57.682 64.7774 55.8426 63.058 55.8426C61.2466 55.8426 60.7085 57.4637 60.7085 58.8554C60.7085 60.7178 61.5572 62.4967 63.2333 62.4967ZM63.0788 55.3842C65.2849 55.3842 67.0453 56.7577 67.0453 58.973C67.0453 61.3647 65.3374 62.954 63.131 62.954C60.9326 62.954 59.2599 61.4582 59.2599 59.22C59.2599 57.0606 60.9259 55.3842 63.0788 55.3842Z" fill="#231F20"/>
<path d="M60.6615 58.8555C60.6649 57.457 61.2109 55.7957 63.0577 55.7957C64.818 55.7989 65.6374 57.6739 65.6385 59.2027C65.6374 60.7178 65.2809 62.5401 63.233 62.5401V62.4524C65.2051 62.451 65.5451 60.7178 65.5497 59.2027C65.5497 57.6945 64.7405 55.8892 63.0577 55.8869C61.2815 55.8892 60.7558 57.4718 60.7523 58.8555C60.7546 60.7097 61.5956 62.4475 63.233 62.4524V62.5401C61.516 62.5378 60.6649 60.7279 60.6615 58.8555ZM59.2117 59.2209C59.2175 57.0342 60.9026 55.3419 63.0782 55.3373V55.4299C60.947 55.4299 59.2994 57.082 59.2994 59.2209C59.3029 61.4319 60.9559 62.907 63.1304 62.9082C65.3141 62.907 66.9971 61.3392 67.0026 58.9707C67.0014 56.7838 65.2676 55.4323 63.0782 55.4299V55.3373C65.3017 55.3419 67.0845 56.729 67.088 58.9707C67.0868 61.3873 65.3585 62.9951 63.1304 62.9994C60.9164 62.9951 59.2175 61.48 59.2117 59.2209Z" fill="#231F20"/>
<path d="M74.0249 60.7496L74.0448 60.7291V56.8295C74.0448 55.9773 73.4545 55.8536 73.1404 55.8536H72.9175V55.5385C73.4014 55.5385 73.8801 55.5808 74.3649 55.5808C74.7929 55.5808 75.2162 55.5385 75.6393 55.5385V55.8536H75.4842C75.0478 55.8536 74.5604 55.935 74.5604 57.1724V61.9048C74.5604 62.2682 74.5731 62.6314 74.6245 62.9537H74.2297L68.8973 56.9862V61.2683C68.8973 62.1756 69.0727 62.484 69.8715 62.484H70.0469V62.7982C69.6019 62.7982 69.158 62.757 68.711 62.757C68.2456 62.757 67.7674 62.7982 67.3011 62.7982V62.484H67.4479C68.1645 62.484 68.3776 61.9986 68.3776 61.1655V56.7872C68.3776 56.2046 67.9041 55.8536 67.4355 55.8536H67.3011V55.5385C67.6959 55.5385 68.0988 55.5808 68.4936 55.5808C68.803 55.5808 69.1035 55.5385 69.4141 55.5385L74.0249 60.7496Z" fill="#231F20"/>
<path d="M73.9981 60.7285V60.725L73.9889 60.7184L73.9981 60.7285ZM74.2294 62.9085H74.5717C74.5258 62.5966 74.5172 62.2491 74.5172 61.9054V57.1718C74.5172 55.9228 75.0403 55.8099 75.4842 55.8076H75.5958V55.5857C75.1845 55.588 74.7764 55.6269 74.3623 55.6269C73.8937 55.6269 73.4302 55.588 72.9605 55.5857V55.8076H73.1401C73.4634 55.8099 74.0881 55.9515 74.0881 56.8301L74.0757 60.7606L74.0572 60.78L74.0243 60.8154L69.4135 55.5857C69.109 55.5857 68.8062 55.6269 68.4933 55.6269C68.1109 55.6269 67.7204 55.588 67.3464 55.5857V55.8076H67.4349C67.9234 55.8099 68.4238 56.1776 68.4238 56.7878V61.1661C68.4238 61.9992 68.1928 62.5291 67.4476 62.5326H67.3464V62.7521C67.7957 62.7486 68.2554 62.711 68.7116 62.711C69.1442 62.711 69.5742 62.7486 70.0021 62.7521V62.5326H69.8678C69.0554 62.5326 68.8529 62.1761 68.8529 61.2689V56.8689L74.2294 62.9085ZM74.6239 63L74.1951 62.9838L68.9406 57.1032V61.2689C68.953 62.1761 69.0905 62.4298 69.8678 62.4391H70.093V62.8422H70.0477C69.5993 62.8422 69.1543 62.8022 68.7116 62.8022C68.2476 62.8022 67.7717 62.8422 67.3008 62.8422H67.2587V62.4391H67.4476C68.1302 62.4368 68.3272 61.9957 68.3327 61.1661V56.7878C68.3327 56.2324 67.8822 55.8976 67.4349 55.8965H67.2587V55.4957H67.3008C67.6979 55.4957 68.1019 55.5368 68.4933 55.5368C68.7996 55.5368 69.0975 55.4957 69.4502 55.5116L73.9981 60.6544V56.8301C73.9958 56.0027 73.4464 55.9034 73.1401 55.8965H72.8708V55.4957H72.916C73.4028 55.4957 73.883 55.5368 74.3623 55.5368C74.7889 55.5368 75.2087 55.4957 75.6387 55.4957H75.6834V55.8965H75.4842C75.0588 55.9092 74.617 55.948 74.6077 57.1718V61.9054C74.6077 62.2665 74.617 62.6296 74.6648 62.9473L74.6738 63H74.6239Z" fill="#231F20"/>
<path d="M78.8157 56.7041H78.7955L77.8317 59.6475H79.7714L78.8157 56.7041ZM77.3036 61.3111C77.2021 61.6641 77.0772 61.9372 77.0772 62.1211C77.0772 62.4344 77.515 62.4845 77.8519 62.4845H77.9681V62.7976C77.5528 62.777 77.1294 62.7576 76.7141 62.7576C76.3375 62.7576 75.9678 62.777 75.5981 62.7976V62.4845H75.6549C76.0609 62.4845 76.4047 62.2456 76.5584 61.8092L78.2172 57.0392C78.3516 56.6529 78.5371 56.1342 78.5985 55.7467C78.9296 55.6338 79.3437 55.4268 79.5407 55.3011C79.5724 55.2898 79.594 55.2817 79.6249 55.2817C79.6543 55.2817 79.6739 55.2817 79.6967 55.3115C79.7284 55.3949 79.7581 55.4884 79.7921 55.5718L81.6955 61.0105C81.8175 61.374 81.945 61.76 82.0791 62.0722C82.2019 62.3623 82.4217 62.4845 82.7631 62.4845H82.8243V62.7976C82.3591 62.777 81.8913 62.7576 81.3953 62.7576C80.888 62.7576 80.3689 62.777 79.8412 62.7976V62.4845H79.9559C80.1924 62.4845 80.5988 62.4457 80.5988 62.1851C80.5988 62.0493 80.5045 61.7681 80.3894 61.4357L79.9877 60.229H77.6393L77.3036 61.3111Z" fill="#231F20"/>
<path d="M77.8954 59.6008H79.7079L78.8044 56.8176L77.8954 59.6008ZM77.7688 59.69L78.7669 56.6601H78.85L79.8285 59.69H77.7688ZM79.8864 62.7498C80.3972 62.7327 80.9024 62.7113 81.3964 62.7113C81.8766 62.7113 82.3274 62.7327 82.7778 62.7486V62.5329H82.762C82.4116 62.5329 82.1656 62.3933 82.037 62.0895C81.8982 61.7742 81.7754 61.3879 81.6525 61.0247L79.7486 55.586C79.718 55.5026 79.684 55.4088 79.6589 55.3381C79.6511 55.3242 79.6511 55.3242 79.643 55.3242H79.6249C79.6032 55.3242 79.5917 55.33 79.5646 55.3381C79.3642 55.465 78.9512 55.6741 78.6406 55.754C78.5792 56.1493 78.39 56.6668 78.2582 57.0519L76.5991 61.8254C76.441 62.2769 76.0826 62.5329 75.656 62.5329H75.6387V62.7486C75.9975 62.7327 76.3545 62.7113 76.7153 62.7113C77.1159 62.7113 77.5234 62.7327 77.9248 62.7486V62.5329H77.8518C77.5164 62.5283 77.0441 62.4918 77.0317 62.1214C77.0337 61.9158 77.1626 61.6497 77.2638 61.299L77.3036 61.3111L77.2638 61.2978L77.603 60.1861H80.0197L80.4327 61.4212C80.5489 61.7559 80.6409 62.0325 80.6409 62.1854C80.6262 62.5042 80.1916 62.5271 79.9536 62.5329H79.8864V62.7498ZM82.8222 62.8425C82.3556 62.8242 81.8879 62.8013 81.3964 62.8013C80.89 62.8013 80.3712 62.8242 79.8435 62.8425L79.7976 62.8459V62.4426H79.9536C80.1947 62.4426 80.5523 62.3855 80.5544 62.1854C80.5555 62.0667 80.4635 61.7823 80.3453 61.451L79.9525 60.275H77.6667L77.348 61.3242C77.2445 61.6815 77.119 61.9546 77.1228 62.1214C77.1228 62.3762 77.5107 62.4426 77.8518 62.4426H78.0113V62.8459L77.9646 62.8425C77.5516 62.8242 77.1263 62.8013 76.7153 62.8013C76.3421 62.8013 75.9712 62.8242 75.5981 62.8425L75.5525 62.8459V62.4426H75.656C76.0416 62.4379 76.3661 62.2152 76.516 61.7947L78.174 57.0232C78.3058 56.6372 78.4926 56.1194 78.5823 55.7059C78.9091 55.593 79.3258 55.3836 79.5248 55.2582C79.5522 55.2478 79.5839 55.2353 79.6249 55.2353C79.6511 55.2319 79.7056 55.2397 79.7385 55.297C79.7682 55.3793 79.7988 55.4728 79.8316 55.5565L81.7379 60.9961C81.8608 61.3595 81.9859 61.7432 82.1212 62.0519C82.2432 62.3285 82.4283 62.4379 82.762 62.4426H82.8678V62.8459L82.8222 62.8425Z" fill="#231F20"/>
<path d="M85.4352 61.7791C85.4352 62.1949 85.723 62.3198 86.0541 62.362C86.4783 62.3939 86.944 62.3939 87.4231 62.3415C87.8553 62.2911 88.2308 62.0397 88.4151 61.7791C88.5801 61.5495 88.6712 61.2605 88.737 61.0297H89.0375C88.9215 61.6227 88.777 62.2065 88.6516 62.7984C87.7414 62.7984 86.829 62.7573 85.9211 62.7573C85.0087 62.7573 84.0959 62.7984 83.1854 62.7984V62.4842H83.3279C83.7043 62.4842 84.1074 62.435 84.1074 61.7884V56.4455C84.1074 55.9028 83.7043 55.8539 83.3279 55.8539H83.1854V55.5385C83.734 55.5385 84.2733 55.5808 84.8206 55.5808C85.3498 55.5808 85.8675 55.5385 86.3967 55.5385V55.8539H86.136C85.7435 55.8539 85.4352 55.864 85.4352 56.416V61.7791Z" fill="#231F20"/>
<path d="M88.6169 62.7521C88.7366 62.1889 88.873 61.6358 88.9811 61.0737H88.7686C88.7057 61.3033 88.6137 61.581 88.4496 61.806C88.2575 62.0768 87.8728 62.3305 87.4235 62.3855C87.1513 62.415 86.8831 62.4278 86.6305 62.4278C86.43 62.4278 86.2333 62.4185 86.0465 62.4058C85.7122 62.3681 85.3843 62.2242 85.3878 61.7797V56.4154C85.3878 55.8359 85.7509 55.8076 86.1367 55.8076H86.3504V55.586C85.8406 55.588 85.3353 55.6271 84.8211 55.6271C84.283 55.6271 83.7584 55.588 83.2295 55.586V55.8076H83.3284C83.6993 55.8076 84.1509 55.8716 84.1509 56.4438V61.7878C84.1509 62.4608 83.7004 62.5326 83.3284 62.5326H83.2295V62.7521C84.1223 62.7498 85.0204 62.711 85.9216 62.711C86.8205 62.711 87.718 62.7498 88.6169 62.7521ZM88.6524 62.8425C87.7396 62.8425 86.8294 62.8013 85.9216 62.8013C85.0091 62.8013 84.0964 62.8425 83.1839 62.8425H83.1418V62.4425H83.3284C83.7039 62.4333 84.0612 62.4058 84.0644 61.7878V56.4438C84.0612 55.939 83.7073 55.9034 83.3284 55.8956H83.1418V55.4957H83.1839C83.7359 55.4957 84.274 55.5368 84.8211 55.5368C85.348 55.5368 85.8657 55.4957 86.3972 55.4957H86.4381V55.8956H86.1367C85.7347 55.9069 85.4847 55.8886 85.4754 56.4154V61.7797C85.4798 62.1672 85.7315 62.27 86.058 62.318C86.2377 62.3305 86.4323 62.3374 86.6305 62.3374C86.8831 62.3374 87.1458 62.325 87.4166 62.2963C87.8377 62.2459 88.1996 62.0027 88.3793 61.7545C88.5387 61.5306 88.6296 61.2463 88.6899 61.0189L88.7011 60.9833H89.0916L89.0815 61.0407C88.9653 61.6334 88.8231 62.2152 88.6979 62.8092L88.6867 62.8425H88.6524Z" fill="#231F20"/>
<path d="M88.7371 56.3427H88.8646C89.0056 56.3427 89.0705 56.2364 89.0705 56.0638C89.0705 55.8889 88.967 55.8284 88.8565 55.8284H88.7371V56.3427ZM88.3686 56.9207V56.866C88.5004 56.8478 88.5266 56.8535 88.5266 56.7675V55.9587C88.5266 55.8432 88.5142 55.8044 88.372 55.8113V55.7543H88.9315C89.1204 55.7543 89.2981 55.8478 89.2981 56.0456C89.2981 56.2101 89.1922 56.3279 89.0408 56.3757L89.2185 56.6282C89.3038 56.7392 89.3981 56.8478 89.4607 56.8854V56.9207H89.2482C89.1467 56.9207 89.0581 56.7035 88.8565 56.4168H88.7371V56.7791C88.7371 56.8535 88.7619 56.8478 88.894 56.866V56.9207H88.3686ZM88.9102 57.2303C89.3981 57.2303 89.7725 56.8145 89.7725 56.3427C89.7725 55.8707 89.4051 55.4491 88.9102 55.4491C88.4185 55.4491 88.0453 55.8707 88.0453 56.3427C88.0453 56.8145 88.4185 57.2303 88.9102 57.2303ZM88.9102 55.2458C89.5337 55.2458 90 55.7279 90 56.3427C90 56.9572 89.5337 57.4336 88.9102 57.4336C88.2878 57.4336 87.8189 56.9572 87.8189 56.3427C87.8189 55.7279 88.2878 55.2458 88.9102 55.2458Z" fill="#231F20"/>
<path d="M24.2634 18.5564C24.2634 8.82948 32.1157 0.944919 41.8028 0.944919C51.4895 0.944919 59.3418 8.82948 59.3418 18.5564C59.3418 28.2836 51.4895 36.1681 41.8028 36.1681C32.1157 36.1681 24.2634 28.2836 24.2634 18.5564Z" fill="white"/>
<path d="M52.4103 18.2095C52.4023 13.6989 49.5954 9.85345 45.6389 8.32994V28.0893C49.5954 26.5634 52.4023 22.7215 52.4103 18.2095ZM38.092 28.0846V8.3311C34.1402 9.8604 31.3365 13.7012 31.3264 18.2095C31.3365 22.7169 34.1402 26.5588 38.092 28.0846ZM41.8676 1.50874C32.6824 1.51222 25.2402 8.98614 25.2391 18.2095C25.2402 27.4319 32.6824 34.9047 41.8676 34.9058C51.0532 34.9047 58.4974 27.4319 58.4997 18.2095C58.4974 8.98614 51.0532 1.51222 41.8676 1.50874ZM41.8267 36.4832C31.7754 36.5301 23.5027 28.3542 23.5027 18.4C23.5027 7.52228 31.7754 -0.00202669 41.8267 4.09738e-07H46.5381C56.4697 -0.00202669 65.535 7.51765 65.535 18.4C65.535 28.3496 56.4697 36.4832 46.5381 36.4832H41.8267Z" fill="#0069AA"/>
</svg>
