<svg width="20" height="20" viewBox="0 0 20 20" fill="none" xmlns="http://www.w3.org/2000/svg">
<g clip-path="url(#clip0_984_22286)">
<path fill-rule="evenodd" clip-rule="evenodd" d="M20 10C20 4.47722 15.5227 0 9.99998 0C4.47722 0 0 4.47722 0 10C0 15.5231 4.47722 20 9.99998 20C15.5227 20 20 15.5231 20 10ZM8.17986 4.44444C8.10124 4.59874 8.10124 4.80073 8.10124 5.2047V7.49426C8.10124 7.59518 8.10124 7.64563 8.11399 7.69228C8.12527 7.73361 8.14384 7.77259 8.1688 7.80741C8.19696 7.84671 8.23612 7.87852 8.31445 7.94215L8.8936 8.41262C8.98801 8.48931 9.03521 8.52765 9.05234 8.57382C9.06737 8.6143 9.06737 8.65884 9.05234 8.69933C9.03521 8.74548 8.98801 8.78383 8.8936 8.86051L8.31446 9.331C8.23614 9.39462 8.19696 9.42642 8.1688 9.46572C8.14384 9.50054 8.12527 9.53953 8.11399 9.58087C8.10124 9.62752 8.10124 9.67797 8.10124 9.77888V14.7953C8.10124 15.1992 8.10124 15.4012 8.17986 15.5554C8.24902 15.6913 8.35936 15.8015 8.49509 15.8707C8.64939 15.9494 8.85138 15.9494 9.25534 15.9494H10.7446C11.1486 15.9494 11.3506 15.9494 11.5048 15.8707C11.6406 15.8015 11.7509 15.6913 11.8201 15.5554C11.8987 15.4012 11.8987 15.1992 11.8987 14.7953V12.5056C11.8987 12.4047 11.8987 12.3543 11.886 12.3077C11.8747 12.2663 11.8561 12.2273 11.8312 12.1925C11.8029 12.1532 11.7638 12.1214 11.6855 12.0578L11.1064 11.5873C11.012 11.5106 10.9647 11.4723 10.9476 11.4261C10.9326 11.3856 10.9326 11.3411 10.9476 11.3006C10.9647 11.2544 11.0119 11.2161 11.1064 11.1394L11.6855 10.6689C11.7638 10.6053 11.8029 10.5735 11.8312 10.5342C11.8561 10.4994 11.8747 10.4604 11.886 10.4191C11.8987 10.3724 11.8987 10.322 11.8987 10.2211V5.2047C11.8987 4.80073 11.8987 4.59874 11.8201 4.44444C11.7509 4.30872 11.6406 4.19837 11.5048 4.12922C11.3506 4.0506 11.1486 4.0506 10.7446 4.0506H9.25534C8.85138 4.0506 8.64939 4.0506 8.49509 4.12922C8.35936 4.19837 8.24902 4.30872 8.17986 4.44444Z" fill="#1A285F"/>
</g>
<defs>
<clipPath id="clip0_984_22286">
<rect width="20" height="20" fill="white"/>
</clipPath>
</defs>
</svg>
