<svg width="70" height="70" viewBox="0 0 70 70" fill="none" xmlns="http://www.w3.org/2000/svg">
<path d="M34.2614 64.3414C34.2716 64.3415 34.2772 64.3415 34.2772 64.3415H34.2422L34.2614 64.3414Z" fill="#214CE8"/>
<path d="M16.6221 60.4556C16.9812 60.8185 17.4686 61 17.956 61C18.469 61 18.9564 60.7926 19.3411 60.4037L23.6248 55.9706C24.3687 55.1929 24.3687 53.9744 23.5992 53.2226C22.8296 52.4967 21.6241 52.4967 20.8802 53.2744L16.5965 57.7076C15.8526 58.4853 15.8526 59.7038 16.6221 60.4556Z" fill="#214CE8"/>
<path fill-rule="evenodd" clip-rule="evenodd" d="M34.7061 60.9741C34.7956 60.9966 35.0029 60.9995 35.0536 60.9997C35.5359 60.9964 35.992 60.8152 36.3477 60.4815L43.6839 53.5855C45.1203 52.2634 45.9412 50.3449 45.9412 48.3747V44.0452C57.7406 37.6418 62.486 27.3755 61.3317 10.9651C61.2804 10.0059 60.5109 9.25409 59.5618 9.17632C43.3248 7.98378 33.167 12.8058 26.8568 24.7052H22.5731C20.598 24.7052 18.7255 25.5348 17.3917 26.9866L10.5685 34.4012C10.1325 34.8419 9.9529 35.4641 10.0812 36.0863C10.2094 36.7085 10.5942 37.227 11.1585 37.4863C11.1585 37.4863 11.1737 37.4935 11.194 37.5034C11.8321 37.8119 20.7009 42.1011 24.7278 46.171C28.7357 50.2469 33.0095 59.2306 33.305 59.8521C33.314 59.871 33.3209 59.8852 33.3209 59.8852C33.6031 60.4556 34.1161 60.8445 34.7061 60.9741ZM44.6838 31.0307C47.5172 31.0307 49.8139 28.7095 49.8139 25.8459C49.8139 22.9823 47.5172 20.6609 44.6838 20.6609C41.8504 20.6609 39.5536 22.9823 39.5536 25.8459C39.5536 28.7095 41.8504 31.0307 44.6838 31.0307Z" fill="#214CE8"/>
<path d="M8.08039 57.5002C8.4395 57.8631 8.92687 58.0446 9.41423 58.0446C9.92725 58.0446 10.4146 57.8372 10.7994 57.4483L17.9303 50.0338C18.6742 49.2561 18.6742 48.0376 17.9047 47.2858C17.1351 46.5599 15.9296 46.5599 15.1857 47.3377L8.05474 54.7521C7.31087 55.5299 7.31087 56.7483 8.08039 57.5002Z" fill="#214CE8"/>
<path d="M45.6196 63H47.3803C47.8779 63 48.2416 62.7033 48.3468 62.2153L48.8445 60.11C49.2177 59.9856 49.5813 59.8421 49.8971 59.6889L51.7439 60.8181C52.1555 61.0765 52.6244 61.0382 52.9688 60.6937L54.2033 59.4688C54.5478 59.1244 54.5957 58.6268 54.3181 58.2152L53.1889 56.3875C53.3517 56.0526 53.4952 55.7082 53.6005 55.3636L55.7248 54.8564C56.2129 54.7512 56.5 54.3875 56.5 53.8899V52.1579C56.5 51.6698 56.2129 51.3062 55.7248 51.2009L53.6196 50.6938C53.4952 50.3014 53.3421 49.9473 53.2081 49.6507L54.3373 47.7943C54.6053 47.3828 54.5765 46.9139 54.2224 46.5694L52.9688 45.3349C52.6148 45.0096 52.1937 44.9522 51.7727 45.1914L49.8971 46.3493C49.5909 46.1866 49.2368 46.0431 48.8445 45.9187L48.3468 43.7847C48.2416 43.2966 47.8779 43 47.3803 43H45.6196C45.122 43 44.7584 43.2966 44.6435 43.7847L44.1459 45.8995C43.7727 46.0239 43.4091 46.1675 43.0837 46.3397L41.2273 45.1914C40.8062 44.9522 40.3756 45 40.0215 45.3349L38.7775 46.5694C38.4234 46.9139 38.3852 47.3828 38.6627 47.7943L39.7823 49.6507C39.6579 49.9473 39.5048 50.3014 39.3804 50.6938L37.2751 51.2009C36.7871 51.3062 36.5 51.6698 36.5 52.1579V53.8899C36.5 54.3875 36.7871 54.7512 37.2751 54.8564L39.3995 55.3636C39.5048 55.7082 39.6483 56.0526 39.8014 56.3875L38.6818 58.2152C38.3947 58.6268 38.4522 59.1244 38.7966 59.4688L40.0215 60.6937C40.366 61.0382 40.8445 61.0765 41.256 60.8181L43.0933 59.6889C43.4186 59.8421 43.7727 59.9856 44.1459 60.11L44.6435 62.2153C44.7584 62.7033 45.122 63 45.6196 63ZM46.5 56.3779C44.6435 56.3779 43.122 54.8468 43.122 52.9904C43.122 51.1435 44.6435 49.622 46.5 49.622C48.3564 49.622 49.8779 51.1435 49.8779 52.9904C49.8779 54.8468 48.3564 56.3779 46.5 56.3779Z" fill="white"/>
<path d="M36.5 53.8899C36.5 54.3875 36.7871 54.7512 37.2751 54.8564L39.3995 55.3636C39.5048 55.7082 39.6483 56.0526 39.8014 56.3875L38.6818 58.2152C38.3947 58.6268 38.4522 59.1244 38.7966 59.4688L40.0215 60.6937C40.366 61.0382 40.8445 61.0765 41.256 60.8181L43.0933 59.6889C43.4186 59.8421 43.7727 59.9856 44.1459 60.11L44.6435 62.2153C44.7584 62.7033 45.122 63 45.6196 63H47.3803C47.8779 63 48.2416 62.7033 48.3468 62.2153L48.8445 60.11C49.2177 59.9856 49.5813 59.8421 49.8971 59.6889L51.7439 60.8181C52.1555 61.0765 52.6244 61.0382 52.9688 60.6937L54.2033 59.4688C54.5048 59.1674 54.5793 58.7487 54.4072 58.373L54.3181 58.2152L53.1889 56.3875C53.3517 56.0526 53.4952 55.7082 53.6005 55.3636L55.7248 54.8564C56.2129 54.7512 56.5 54.3875 56.5 53.8899V52.1579C56.5 51.7309 56.2803 51.3988 55.8984 51.252L55.7248 51.2009L53.6196 50.6938C53.4952 50.3014 53.3421 49.9473 53.2081 49.6507L54.3373 47.7943C54.6053 47.3828 54.5765 46.9139 54.2224 46.5694L52.9688 45.3349C52.6148 45.0096 52.1937 44.9522 51.7727 45.1914L49.8971 46.3493L49.6582 46.2305C49.4112 46.1158 49.1384 46.0119 48.8445 45.9187L48.3468 43.7847C48.2416 43.2966 47.8779 43 47.3803 43L47.3799 41C48.0364 41 48.7114 41.2011 49.2725 41.6572C49.8225 42.1044 50.1518 42.7073 50.293 43.3301H50.2949L50.3809 43.6992L50.7217 43.4893L50.7842 43.4521C51.3128 43.1518 51.9531 42.9807 52.6426 43.0664C53.2414 43.1408 53.7505 43.3932 54.1553 43.7188L54.3223 43.8623L54.3477 43.8857L54.3721 43.9102L55.626 45.1445C56.117 45.6258 56.4445 46.2646 56.5059 46.9873C56.5645 47.679 56.3669 48.3162 56.0439 48.833L56.0459 48.834L55.8398 49.1709L56.1934 49.2568L56.1924 49.2578C56.8146 49.4016 57.412 49.7335 57.8535 50.2822C58.305 50.8435 58.5 51.5136 58.5 52.1582V53.8896C58.5 54.5305 58.3104 55.2026 57.8584 55.7686C57.4149 56.3239 56.8128 56.6563 56.1885 56.7998L56.1895 56.8018L55.8457 56.8828L56.0195 57.1641H56.0176C56.7752 58.3503 56.6285 59.8717 55.6172 60.8828L55.6123 60.8887L54.3779 62.1133L54.377 62.1123C53.3391 63.1455 51.8488 63.2325 50.7002 62.5225V62.5244L50.375 62.3252L50.293 62.6758L50.291 62.6748C50.1492 63.2957 49.821 63.8968 49.2725 64.3428C48.7115 64.7988 48.0365 65 47.3799 65H45.6191C44.9611 64.9999 44.2899 64.7975 43.7314 64.3467C43.1762 63.8984 42.8423 63.2942 42.6963 62.6738L42.6152 62.3301L42.3027 62.5225L42.3018 62.5215C41.1538 63.2322 39.6484 63.1485 38.6074 62.1074L37.3828 60.8828C36.4038 59.904 36.1934 58.3895 36.9775 57.1709L37.1523 56.8828L36.8105 56.8018V56.7998C36.1865 56.6562 35.5849 56.3236 35.1416 55.7686C34.6897 55.2026 34.5 54.5305 34.5 53.8896V52.1582C34.5 51.5137 34.695 50.8435 35.1465 50.2822C35.5878 49.7337 36.1847 49.4017 36.8066 49.2578L37.1572 49.1719L36.9502 48.8271L36.9512 48.8262C36.6221 48.3032 36.429 47.6647 36.4912 46.9766C36.5567 46.2518 36.8904 45.6209 37.3691 45.1494L38.6123 43.915L38.6475 43.8818C39.0907 43.4627 39.6744 43.1425 40.3672 43.0615C41.0577 42.9808 41.6942 43.1564 42.2148 43.4521L42.248 43.4707L42.2793 43.4902L42.6094 43.6943L42.6963 43.3262C42.8423 42.7058 43.1762 42.1016 43.7314 41.6533C44.29 41.2025 44.9612 41.0001 45.6191 41L45.6196 43C45.122 43 44.7584 43.2966 44.6435 43.7847L44.1459 45.8995C43.7727 46.0239 43.4091 46.1675 43.0837 46.3397L41.2273 45.1914C40.8062 44.9522 40.3756 45 40.0215 45.3349L38.7775 46.5694C38.4234 46.9139 38.3852 47.3828 38.6627 47.7943L39.7823 49.6507C39.6579 49.9473 39.5048 50.3014 39.3804 50.6938L37.2751 51.2009L37.1016 51.252C36.7197 51.3987 36.5 51.7308 36.5 52.1579V53.8899ZM47.8779 52.9902C47.8778 52.2517 47.2555 51.6221 46.5 51.6221C45.7444 51.6221 45.1222 52.2517 45.1221 52.9902C45.1221 53.7494 45.7554 54.3779 46.5 54.3779V56.3779L46.3271 56.373C44.6072 56.2845 43.2139 54.8835 43.126 53.1631L43.122 52.9904C43.122 51.1435 44.6435 49.622 46.5 49.622L46.6729 49.626C48.4499 49.7169 49.8778 51.2012 49.8779 52.9904L49.873 53.1631C49.7822 54.9408 48.2985 56.3779 46.5 56.3779V54.3779C47.2445 54.3779 47.8779 53.7495 47.8779 52.9902ZM47.3799 41L47.3803 43H45.6196L45.6191 41H47.3799Z" fill="white"/>
<path d="M45.6196 63H47.3803C47.8779 63 48.2416 62.7033 48.3468 62.2153L48.8445 60.11C49.2177 59.9856 49.5813 59.8421 49.8971 59.6889L51.7439 60.8181C52.1555 61.0765 52.6244 61.0382 52.9688 60.6937L54.2033 59.4688C54.5478 59.1244 54.5957 58.6268 54.3181 58.2152L53.1889 56.3875C53.3517 56.0526 53.4952 55.7082 53.6005 55.3636L55.7248 54.8564C56.2129 54.7512 56.5 54.3875 56.5 53.8899V52.1579C56.5 51.6698 56.2129 51.3062 55.7248 51.2009L53.6196 50.6938C53.4952 50.3014 53.3421 49.9473 53.2081 49.6507L54.3373 47.7943C54.6053 47.3828 54.5765 46.9139 54.2224 46.5694L52.9688 45.3349C52.6148 45.0096 52.1937 44.9522 51.7727 45.1914L49.8971 46.3493C49.5909 46.1866 49.2368 46.0431 48.8445 45.9187L48.3468 43.7847C48.2416 43.2966 47.8779 43 47.3803 43H45.6196C45.122 43 44.7584 43.2966 44.6435 43.7847L44.1459 45.8995C43.7727 46.0239 43.4091 46.1675 43.0837 46.3397L41.2273 45.1914C40.8062 44.9522 40.3756 45 40.0215 45.3349L38.7775 46.5694C38.4234 46.9139 38.3852 47.3828 38.6627 47.7943L39.7823 49.6507C39.6579 49.9473 39.5048 50.3014 39.3804 50.6938L37.2751 51.2009C36.7871 51.3062 36.5 51.6698 36.5 52.1579V53.8899C36.5 54.3875 36.7871 54.7512 37.2751 54.8564L39.3995 55.3636C39.5048 55.7082 39.6483 56.0526 39.8014 56.3875L38.6818 58.2152C38.3947 58.6268 38.4522 59.1244 38.7966 59.4688L40.0215 60.6937C40.366 61.0382 40.8445 61.0765 41.256 60.8181L43.0933 59.6889C43.4186 59.8421 43.7727 59.9856 44.1459 60.11L44.6435 62.2153C44.7584 62.7033 45.122 63 45.6196 63ZM46.5 56.3779C44.6435 56.3779 43.122 54.8468 43.122 52.9904C43.122 51.1435 44.6435 49.622 46.5 49.622C48.3564 49.622 49.8779 51.1435 49.8779 52.9904C49.8779 54.8468 48.3564 56.3779 46.5 56.3779Z" fill="#214CE8" fill-opacity="0.3"/>
</svg>
