<svg width="40" height="24" viewBox="0 0 40 24" fill="none" xmlns="http://www.w3.org/2000/svg">
<rect width="40" height="24" rx="2" fill="#FFFFFF"/>
<path d="M0 12C0 5.373 5.373 0 12 0H28C34.627 0 40 5.373 40 12V12C40 18.627 34.627 24 28 24H12C5.373 24 0 18.627 0 12V12Z" fill="white"/>
<path d="M20 17C23.866 17 27 13.866 27 10C27 6.13401 23.866 3 20 3C16.134 3 13 6.13401 13 10C13 13.866 16.134 17 20 17Z" fill="#F48120"/>
<path d="M4 9H5.5C6.88 9 7.5 9.75 7.5 10.75C7.5 11.75 6.88 12.5 5.5 12.5H4V9ZM5.25 11.75C5.95 11.75 6.5 11.4 6.5 10.75C6.5 10.1 5.95 9.75 5.25 9.75H5V11.75H5.25Z" fill="#231F20"/>
<path d="M8 9H9V12.5H8V9Z" fill="#231F20"/>
<path d="M9.5 11.25C9.5 10.25 10.25 9.75 11.25 9.75C11.75 9.75 12.25 9.9 12.5 10.1V11C12.25 10.75 11.75 10.5 11.25 10.5C10.75 10.5 10.5 10.75 10.5 11.25C10.5 11.75 10.75 12 11.25 12C11.5 12 11.75 11.95 12 11.85L12.15 12.5C11.85 12.65 11.5 12.75 11 12.75C10 12.75 9.5 12.25 9.5 11.25Z" fill="#231F20"/>
<path d="M28 9L29.25 12.5H28L27.75 11.75H26.25L26 12.5H24.75L26 9H28ZM27.5 11L27 9.75L26.5 11H27.5Z" fill="#231F20"/>
<path d="M29.5 9H31.25C32.25 9 32.75 9.5 32.75 10.25C32.75 10.75 32.5 11.1 32 11.3L33 12.5H31.75L30.9 11.5H30.5V12.5H29.5V9ZM31 10.75C31.4 10.75 31.75 10.6 31.75 10.25C31.75 9.9 31.4 9.75 31 9.75H30.5V10.75H31Z" fill="#231F20"/>
<path d="M33.5 9H35.75V9.75H34.5V10.5H35.75V11.25H34.5V11.75H35.75V12.5H33.5V9Z" fill="#231F20"/>
<path d="M36.25 9H38.5V9.75H37.25V10.5H38.5V11.25H37.25V12.5H36.25V9Z" fill="#231F20"/>
</svg>
