<svg width="90" height="90" viewBox="0 0 90 90" fill="none" xmlns="http://www.w3.org/2000/svg">
<path d="M0.987976 2.96423V87.036C0.987976 88.1229 1.87721 89.0121 2.96404 89.0121H41.5566C65.8623 89.0121 85.5735 69.3107 85.5735 44.9952C85.5735 20.6896 65.8722 0.988159 41.5566 0.988159H2.96404C1.87721 0.988159 0.987976 1.87739 0.987976 2.96423Z" fill="white"/>
<path d="M7.66782 38.7614H4.17035V50.9926H7.65794C9.50547 50.9926 10.8491 50.5579 12.0248 49.5798C13.4179 48.4239 14.2478 46.685 14.2478 44.8869C14.2478 41.2807 11.5506 38.7614 7.6777 38.7614H7.66782ZM10.4539 47.9496C9.70307 48.6215 8.73484 48.9178 7.19359 48.9178H6.5514V40.8262H7.19359C8.73484 40.8262 9.67343 41.1029 10.4539 41.8142C11.2838 42.5453 11.7778 43.6914 11.7778 44.8572C11.7778 46.0231 11.2838 47.2086 10.4539 47.9397V47.9496Z" fill="#231F20"/>
<path d="M17.7161 38.7609H15.335V50.9921H17.7161V38.7609Z" fill="#231F20"/>
<path d="M23.5545 43.453C22.1219 42.9195 21.707 42.5737 21.707 41.9118C21.707 41.1411 22.4578 40.5582 23.4853 40.5582C24.1967 40.5582 24.7895 40.8546 25.4119 41.5462L26.6568 39.916C25.6293 39.017 24.4042 38.5625 23.0605 38.5625C20.8968 38.5625 19.2469 40.0642 19.2469 42.0699C19.2469 43.7593 20.0175 44.6189 22.2602 45.4191C23.1889 45.7452 23.6731 45.9724 23.9102 46.1107C24.3844 46.417 24.6215 46.8616 24.6215 47.3753C24.6215 48.3633 23.8311 49.1043 22.7641 49.1043C21.6279 49.1043 20.7091 48.5313 20.1558 47.4741L18.6146 48.9561C19.7112 50.5665 21.0351 51.2878 22.853 51.2878C25.3329 51.2878 27.0717 49.6378 27.0717 47.2765C27.0717 45.3302 26.2715 44.4509 23.5545 43.4629V43.453Z" fill="#231F20"/>
<path d="M27.8225 44.886C27.8225 48.4823 30.6481 51.2684 34.2741 51.2684C35.3016 51.2684 36.1809 51.0708 37.2677 50.5571V47.7512C36.3093 48.7096 35.4695 49.0949 34.3827 49.0949C31.9819 49.0949 30.2727 47.356 30.2727 44.8762C30.2727 42.5248 32.0313 40.6772 34.2741 40.6772C35.4102 40.6772 36.2698 41.0823 37.2677 42.0505V39.2446C36.2204 38.7111 35.3608 38.4938 34.3333 38.4938C30.7173 38.4938 27.8225 41.3392 27.8225 44.8959V44.886Z" fill="#231F20"/>
<path d="M56.1886 46.971L52.9184 38.7609H50.32L55.5069 51.3083H56.7913L62.077 38.7609H59.4885L56.1886 46.971Z" fill="#231F20"/>
<path d="M63.1546 50.9921H69.9223V48.9174H65.5357V45.6175H69.7544V43.5427H65.5357V40.8356H69.9223V38.7609H63.1546V50.9921Z" fill="#231F20"/>
<path d="M79.3684 42.367C79.3684 40.0749 77.7876 38.7609 75.041 38.7609H71.5041V50.9921H73.8851V46.0818H74.2013L77.5011 50.9921H80.4355L76.5823 45.8348C78.3804 45.4693 79.3684 44.2442 79.3684 42.367ZM74.5767 44.3924H73.8752V40.6874H74.6063C76.0883 40.6874 76.8985 41.3099 76.8985 42.5053C76.8985 43.7008 76.0883 44.3924 74.5668 44.3924H74.5767Z" fill="#231F20"/>
<path d="M81.2691 39.4036C81.2691 39.1856 81.1204 39.0667 80.8628 39.0667H80.5159V40.1468H80.7736V39.7306L81.0808 40.1468H81.3979L81.0412 39.7009C81.1898 39.6613 81.279 39.5522 81.279 39.4036H81.2691ZM80.8132 39.5522H80.7736V39.2649H80.8231C80.952 39.2649 81.0213 39.3144 81.0213 39.4036C81.0213 39.4928 80.952 39.5522 80.8231 39.5522H80.8132Z" fill="#231F20"/>
<path d="M80.9104 38.6615C80.3866 38.6615 79.9716 39.0766 79.9716 39.6004C79.9716 40.1241 80.3965 40.5392 80.9104 40.5392C81.4243 40.5392 81.8394 40.1143 81.8394 39.6004C81.8394 39.0865 81.4243 38.6615 80.9104 38.6615ZM80.9104 40.3811C80.4953 40.3811 80.1593 40.0352 80.1593 39.6102C80.1593 39.1853 80.4953 38.8394 80.9104 38.8394C81.3255 38.8394 81.6516 39.1952 81.6516 39.6102C81.6516 40.0253 81.3156 40.3811 80.9104 40.3811Z" fill="#231F20"/>
<path d="M50.9936 44.8668C50.9936 48.4433 48.0988 51.348 44.5124 51.348C40.926 51.348 38.0312 48.4532 38.0312 44.8668C38.0312 41.2804 40.926 38.3856 44.5124 38.3856C48.0988 38.3856 50.9936 41.2804 50.9936 44.8668Z" fill="url(#paint0_linear_21_235)"/>
<path style="mix-blend-mode:multiply" opacity="0.65" d="M50.9936 44.8668C50.9936 48.4433 48.0988 51.348 44.5124 51.348C40.926 51.348 38.0312 48.4532 38.0312 44.8668C38.0312 41.2804 40.926 38.3856 44.5124 38.3856C48.0988 38.3856 50.9936 41.2804 50.9936 44.8668Z" fill="url(#paint1_linear_21_235)"/>
<g style="mix-blend-mode:multiply" opacity="0.5">
<mask id="mask0_21_235" style="mask-type:luminance" maskUnits="userSpaceOnUse" x="38" y="38" width="13" height="14">
<path d="M50.9936 44.8668C50.9936 48.4433 48.0889 51.348 44.5124 51.348C40.9359 51.348 38.0312 48.4532 38.0312 44.8668C38.0312 41.2804 40.926 38.3856 44.5124 38.3856C48.0988 38.3856 50.9936 41.2804 50.9936 44.8668Z" fill="white"/>
</mask>
<g mask="url(#mask0_21_235)">
<path d="M44.5503 38.2861C48.196 38.2861 51.16 41.2402 51.16 44.8859C51.16 48.5315 48.196 51.4955 44.5503 51.4955C40.9047 51.4955 37.9407 48.5414 37.9407 44.8859C37.9407 41.2402 40.8948 38.2762 44.5503 38.2762V38.2861Z" fill="#020000"/>
<path d="M44.5504 38.2954C48.196 38.2954 51.16 41.2396 51.16 44.8853C51.16 48.5309 48.196 51.5048 44.5504 51.5048C40.9047 51.5048 37.9407 48.5507 37.9407 44.905C37.9407 41.2594 40.9047 38.2954 44.5504 38.2954Z" fill="#030100"/>
<path d="M44.5608 38.3066C48.2065 38.3066 51.1803 41.2508 51.1803 44.8965C51.1803 48.5422 48.2164 51.516 44.5608 51.516C40.9053 51.516 37.9512 48.5619 37.9611 44.9163C37.9611 41.2706 40.925 38.3066 44.5608 38.3165V38.3066Z" fill="#050100"/>
<path d="M44.5707 38.3162C48.2163 38.3162 51.1902 41.2505 51.1902 44.8962C51.1902 48.5418 48.2163 51.5157 44.5707 51.5157C40.925 51.5157 37.961 48.5616 37.9709 44.9159C37.9709 41.2703 40.9349 38.3063 44.5707 38.3162Z" fill="#070200"/>
<path d="M44.5703 38.3356C48.216 38.3356 51.1898 41.26 51.1898 44.9057C51.1898 48.5514 48.216 51.5351 44.5703 51.5351C40.9246 51.5351 37.9607 48.581 37.9705 44.9353C37.9705 41.2897 40.9345 38.3257 44.5703 38.3356Z" fill="#080200"/>
<path d="M44.5804 38.3457C48.2261 38.3457 51.1999 41.2702 51.1999 44.9158C51.1999 48.5615 48.2261 51.5452 44.5804 51.5452C40.9347 51.5452 37.9708 48.5911 37.9806 44.9455C37.9806 41.2998 40.9446 38.3358 44.5804 38.3457Z" fill="#0A0300"/>
<path d="M44.5907 38.3555C48.2364 38.3555 51.2201 41.2701 51.2201 44.9157C51.2201 48.5614 48.2364 51.555 44.5907 51.555C40.945 51.555 37.9811 48.6009 37.991 44.9552C37.991 41.3096 40.9549 38.3456 44.5907 38.3555Z" fill="#0C0300"/>
<path d="M44.6006 38.3654C48.2463 38.3654 51.23 41.2799 51.23 44.9157C51.23 48.5515 48.2463 51.555 44.6006 51.555C40.955 51.555 37.991 48.6009 38.0009 44.9552C38.0009 41.3096 40.9648 38.3456 44.6006 38.3555V38.3654Z" fill="#0E0400"/>
<path d="M44.6006 38.3755C48.2463 38.3854 51.23 41.2802 51.23 44.9259C51.23 48.5715 48.2364 51.575 44.6006 51.575C40.9648 51.575 37.991 48.6209 38.0009 44.9753C38.0009 41.3296 40.9648 38.3656 44.6006 38.3755Z" fill="#0F0400"/>
<path d="M44.6113 38.3854C48.257 38.3953 51.2407 41.2802 51.2407 44.9259C51.2407 48.5715 48.2471 51.575 44.6113 51.575C40.9755 51.575 38.0017 48.6209 38.0116 44.9753C38.0215 41.3296 40.9755 38.3656 44.6113 38.3755V38.3854Z" fill="#110500"/>
<path d="M44.6214 38.3956C48.267 38.4055 51.2606 41.2904 51.2606 44.9262C51.2606 48.562 48.267 51.5852 44.6214 51.5852C40.9757 51.5852 38.0117 48.6312 38.0315 44.9954C38.0414 41.3497 40.9955 38.3857 44.6214 38.4055V38.3956Z" fill="#130500"/>
<path d="M44.6211 38.4052C48.2569 38.415 51.2604 41.2901 51.2604 44.9357C51.2604 48.5814 48.2569 51.5948 44.6211 51.5948C40.9853 51.5948 38.0115 48.6407 38.0313 45.0049C38.0411 41.3592 40.9952 38.3953 44.6211 38.415V38.4052Z" fill="#140600"/>
<path d="M44.6295 38.4145C48.2653 38.4244 51.2688 41.2896 51.2688 44.9352C51.2688 48.5809 48.2653 51.5943 44.6295 51.5943C40.9937 51.5943 38.0199 48.6402 38.0396 45.0044C38.0495 41.3587 41.0135 38.3948 44.6295 38.4145Z" fill="#160600"/>
<path d="M44.6398 38.4343C48.2755 38.4541 51.2889 41.3093 51.2889 44.9451C51.2889 48.5809 48.2854 51.614 44.6398 51.614C40.9941 51.614 38.04 48.66 38.0499 45.0242C38.0598 41.3785 41.0237 38.4145 44.6398 38.4343Z" fill="#180600"/>
<path d="M44.6492 38.4446C48.2849 38.4643 51.2983 41.3097 51.2983 44.9554C51.2983 48.6011 48.2849 51.6243 44.6492 51.6243C41.0134 51.6243 38.0494 48.6702 38.0593 45.0344C38.079 41.3888 41.0331 38.4248 44.6492 38.4446Z" fill="#190700"/>
<path d="M44.6493 38.4546C48.2851 38.4743 51.2985 41.3197 51.2985 44.9555C51.2985 48.5913 48.2851 51.6343 44.6493 51.6343C41.0135 51.6343 38.0496 48.6802 38.0594 45.0444C38.0792 41.3988 41.0333 38.4348 44.6493 38.4546Z" fill="#1B0700"/>
<path d="M44.6596 38.4644C48.2954 38.4842 51.3087 41.3197 51.3087 44.9555C51.3087 48.5913 48.2954 51.6343 44.6596 51.6343C41.0238 51.6343 38.0598 48.6901 38.0697 45.0444C38.0895 41.3988 41.0435 38.4348 44.6596 38.4546V38.4644Z" fill="#1D0800"/>
<path d="M44.6698 38.4747C48.3056 38.4945 51.3289 41.3201 51.3289 44.9658C51.3289 48.6114 48.3056 51.6544 44.6698 51.6544C41.0341 51.6544 38.0701 48.7102 38.08 45.0646C38.0997 41.409 41.0538 38.4549 44.6698 38.4747Z" fill="#1F0800"/>
<path d="M44.6703 38.484C48.3061 38.5038 51.3294 41.3294 51.3294 44.9652C51.3294 48.601 48.3061 51.6539 44.6703 51.6539C41.0345 51.6539 38.0706 48.7097 38.0903 45.0739C38.1101 41.4183 41.0642 38.4642 44.6703 38.4939V38.484Z" fill="#200900"/>
<path d="M44.6804 38.494C48.3162 38.5138 51.3394 41.3295 51.3394 44.9653C51.3394 48.6011 48.3162 51.6639 44.6804 51.6639C41.0446 51.6639 38.0806 48.7197 38.1004 45.0839C38.1202 41.4283 41.0742 38.4743 44.6804 38.5039V38.494Z" fill="#220900"/>
<path d="M44.6896 38.504C48.3254 38.5238 51.3486 41.3395 51.3486 44.9654C51.3486 48.5913 48.3155 51.664 44.6896 51.664C41.0637 51.664 38.0899 48.7198 38.1096 45.084C38.1294 41.4284 41.0835 38.4744 44.6896 38.504Z" fill="#240A00"/>
<path d="M44.6999 38.5138C48.3357 38.5434 51.3688 41.3394 51.3688 44.9752C51.3688 48.611 48.3357 51.6737 44.6999 51.6737C41.0641 51.6737 38.1001 48.7295 38.1199 45.0938C38.1396 41.4382 41.0937 38.4841 44.6999 38.5138Z" fill="#250A00"/>
<path d="M44.6999 38.5234C48.3357 38.5531 51.3688 41.3392 51.3688 44.975C51.3688 48.6107 48.3357 51.6834 44.6999 51.6834C41.0641 51.6834 38.1001 48.7392 38.1199 45.1034C38.1396 41.4479 41.1036 38.4938 44.6999 38.5234Z" fill="#270B00"/>
<path d="M44.709 38.5433C48.3448 38.5729 51.3779 41.3591 51.3779 44.985C51.3779 48.6109 48.3349 51.6934 44.709 51.6934C41.0831 51.6934 38.1092 48.7492 38.129 45.1134C38.1488 41.4579 41.1127 38.5137 44.709 38.5334V38.5433Z" fill="#290B00"/>
<path d="M44.7185 38.5533C48.3543 38.583 51.3973 41.3592 51.3973 44.995C51.3973 48.6308 48.3543 51.7133 44.7185 51.7133C41.0827 51.7133 38.1187 48.7691 38.1385 45.1333C38.1681 41.4778 41.1222 38.5336 44.7185 38.5533Z" fill="#2A0C00"/>
<path d="M44.7185 38.5632C48.3543 38.5928 51.3973 41.3592 51.3973 44.995C51.3973 48.6308 48.3543 51.7133 44.7185 51.7133C41.0827 51.7133 38.1187 48.7691 38.1385 45.1333C38.1681 41.4778 41.1222 38.5336 44.7185 38.5533V38.5632Z" fill="#2C0C00"/>
<path d="M44.7292 38.5726C48.3551 38.6022 51.408 41.3686 51.408 44.9945C51.408 48.6204 48.3551 51.7227 44.7292 51.7227C41.1033 51.7227 38.1294 48.7785 38.1492 45.1526C38.1788 41.497 41.1329 38.5528 44.7292 38.5726Z" fill="#2E0D00"/>
<path d="M44.7388 38.5833C48.3647 38.6129 51.4176 41.3694 51.4176 45.0052C51.4176 48.641 48.3647 51.7334 44.7388 51.7334C41.1129 51.7334 38.139 48.7892 38.1687 45.1632C38.1983 41.5077 41.1524 38.5635 44.7388 38.5931V38.5833Z" fill="#300D00"/>
<path d="M44.7482 38.5928C48.3741 38.6224 51.4369 41.3789 51.4369 45.0048C51.4369 48.6307 48.384 51.7429 44.7482 51.7429C41.1124 51.7429 38.1484 48.7987 38.1781 45.1728C38.2077 41.5172 41.1618 38.573 44.7482 38.6027V38.5928Z" fill="#310D00"/>
<path d="M44.7482 38.6023C48.3741 38.6319 51.4369 41.3785 51.4369 45.0044C51.4369 48.6303 48.3741 51.7425 44.7482 51.7425C41.1223 51.7425 38.1484 48.7983 38.1781 45.1724C38.2077 41.5168 41.1618 38.5726 44.7482 38.6023Z" fill="#330E00"/>
<path d="M44.7582 38.6125C48.3841 38.652 51.4468 41.3789 51.4468 45.0147C51.4468 48.6505 48.3841 51.7527 44.7582 51.7527C41.1323 51.7527 38.1584 48.8085 38.1881 45.1826C38.2177 41.5271 41.1718 38.5829 44.7582 38.6125Z" fill="#350E00"/>
<path d="M44.7692 38.6225C48.3952 38.6621 51.4678 41.3889 51.4678 45.0148C51.4678 48.6407 48.405 51.7627 44.7692 51.7627C41.1335 51.7627 38.1695 48.8186 38.1991 45.1926C38.2288 41.5371 41.1829 38.5929 44.7692 38.6225Z" fill="#360F00"/>
<path d="M44.7692 38.6324C48.3952 38.6719 51.4678 41.3889 51.4678 45.0148C51.4678 48.6407 48.3952 51.7627 44.7692 51.7627C41.1433 51.7627 38.1695 48.8186 38.1991 45.1926C38.2288 41.5371 41.1829 38.5929 44.7692 38.6225V38.6324Z" fill="#380F00"/>
<path d="M44.7785 38.6517C48.4044 38.6912 51.4771 41.4082 51.4771 45.0341C51.4771 48.66 48.4044 51.7919 44.7785 51.7919C41.1526 51.7919 38.1788 48.8477 38.2084 45.2218C38.2381 41.5663 41.202 38.6221 44.7785 38.6517Z" fill="#3A1000"/>
<path d="M44.7889 38.6616C48.4148 38.7011 51.4874 41.4082 51.4874 45.0341C51.4874 48.66 48.4148 51.7919 44.7889 51.7919C41.163 51.7919 38.1891 48.8477 38.2188 45.2218C38.2583 41.5663 41.2124 38.6221 44.7889 38.6517V38.6616Z" fill="#3B1000"/>
<path d="M44.7971 38.6722C48.423 38.7118 51.5056 41.409 51.5056 45.0349C51.5056 48.6608 48.423 51.8026 44.7971 51.8026C41.1712 51.8026 38.1974 48.8584 38.2369 45.2424C38.2764 41.5868 41.2305 38.6426 44.7971 38.6821V38.6722Z" fill="#3D1100"/>
<path d="M44.7971 38.6818C48.423 38.7213 51.5056 41.4185 51.5056 45.0444C51.5056 48.6703 48.423 51.8121 44.7971 51.8121C41.1712 51.8121 38.1974 48.8778 38.2369 45.2519C38.2764 41.5963 41.2305 38.6521 44.7971 38.6916V38.6818Z" fill="#3F1100"/>
<path d="M44.8078 38.6928C48.4337 38.7323 51.5163 41.4196 51.5163 45.0455C51.5163 48.6714 48.4337 51.8132 44.8078 51.8132C41.1819 51.8132 38.2081 48.8789 38.2476 45.253C38.2871 41.5975 41.2412 38.6533 44.8078 38.6928Z" fill="#411200"/>
<path d="M44.8178 38.7012C48.4438 38.7407 51.5263 41.4182 51.5263 45.0441C51.5263 48.67 48.4339 51.8217 44.8178 51.8217C41.2018 51.8217 38.2181 48.8873 38.2576 45.2614C38.2971 41.6059 41.2512 38.6617 44.8178 38.7012Z" fill="#421200"/>
<path d="M44.8179 38.7119C48.4438 38.7613 51.5362 41.4289 51.5362 45.0548C51.5362 48.6807 48.4438 51.8324 44.8179 51.8324C41.1919 51.8324 38.2181 48.8981 38.2576 45.2722C38.2971 41.6166 41.2512 38.6724 44.8179 38.7119Z" fill="#441300"/>
<path d="M44.8274 38.7211C48.4533 38.7705 51.5457 41.4282 51.5457 45.0541C51.5457 48.68 48.4533 51.8416 44.8274 51.8416C41.2015 51.8416 38.2277 48.9072 38.2672 45.2813C38.3067 41.6258 41.2608 38.6816 44.8274 38.7211Z" fill="#461300"/>
<path d="M44.8378 38.731C48.4538 38.7804 51.5561 41.4381 51.5561 45.0541C51.5561 48.6701 48.4538 51.8416 44.8378 51.8416C41.2218 51.8416 38.2381 48.9072 38.2776 45.2813C38.3171 41.6258 41.2712 38.6816 44.8378 38.7211V38.731Z" fill="#471300"/>
<path d="M44.8474 38.751C48.4634 38.8004 51.5755 41.4482 51.5755 45.0741C51.5755 48.7 48.4733 51.8715 44.8474 51.8715C41.2215 51.8715 38.2476 48.9371 38.2871 45.3112C38.3267 41.6557 41.2807 38.7115 44.8474 38.751Z" fill="#491400"/>
<path d="M44.8474 38.761C48.4634 38.8104 51.5755 41.4483 51.5755 45.0742C51.5755 48.7001 48.4733 51.8716 44.8474 51.8716C41.2215 51.8716 38.2476 48.9372 38.2871 45.3212C38.3365 41.6657 41.2807 38.7215 44.8474 38.7709V38.761Z" fill="#4B1400"/>
<path d="M44.858 38.7706C48.4741 38.82 51.5862 41.4579 51.5862 45.074C51.5862 48.69 48.4741 51.8812 44.858 51.8812C41.242 51.8812 38.2583 48.9469 38.3077 45.3309C38.3571 41.6753 41.3112 38.7311 44.858 38.7805V38.7706Z" fill="#4C1500"/>
<path d="M44.8672 38.7813C48.4833 38.8307 51.5954 41.4587 51.5954 45.0747C51.5954 48.6908 48.4833 51.8819 44.8672 51.8819C41.2512 51.8819 38.2675 48.9476 38.3169 45.3316C38.3663 41.6761 41.3204 38.7319 44.8672 38.7813Z" fill="#4E1500"/>
<path d="M44.8672 38.79C48.4833 38.8394 51.6053 41.4675 51.6053 45.0835C51.6053 48.6995 48.4931 51.8907 44.8672 51.8907C41.2413 51.8907 38.2675 48.9564 38.3169 45.3404C38.3663 41.6848 41.3204 38.7406 44.8672 38.79Z" fill="#501600"/>
<path d="M44.8761 38.8004C48.4921 38.8498 51.6141 41.468 51.6141 45.084C51.6141 48.7 48.4921 51.9011 44.8761 51.9011C41.2601 51.9011 38.2763 48.9668 38.3257 45.3508C38.3751 41.6952 41.3292 38.751 44.8761 38.8004Z" fill="#521600"/>
<path d="M44.8861 38.8103C48.5021 38.8696 51.6241 41.468 51.6241 45.084C51.6241 48.7 48.5021 51.9011 44.8861 51.9011C41.27 51.9011 38.2863 48.9668 38.3357 45.3508C38.3851 41.6952 41.3392 38.751 44.8861 38.8004V38.8103Z" fill="#531700"/>
<path d="M44.8968 38.8203C48.5128 38.8796 51.6349 41.478 51.6349 45.094C51.6349 48.7101 48.5128 51.921 44.8968 51.921C41.2808 51.921 38.2971 48.9867 38.3465 45.3707C38.3959 41.7151 41.3499 38.7709 44.8968 38.8203Z" fill="#551700"/>
<path d="M44.8968 38.8302C48.5128 38.8895 51.6447 41.478 51.6447 45.094C51.6447 48.7101 48.5128 51.921 44.8968 51.921C41.2808 51.921 38.2971 48.9867 38.3465 45.3707C38.3959 41.7151 41.3499 38.7709 44.8968 38.8203V38.8302Z" fill="#571800"/>
<path d="M44.906 38.8395C48.5221 38.8988 51.654 41.4774 51.654 45.0934C51.654 48.7095 48.5221 51.9303 44.906 51.9303C41.29 51.9303 38.3063 48.996 38.3557 45.3799C38.4051 41.7244 41.3592 38.7802 44.906 38.8296V38.8395Z" fill="#581800"/>
<path d="M44.9167 38.8596C48.5328 38.9189 51.6647 41.4975 51.6647 45.1136C51.6647 48.7296 48.5328 51.9504 44.9167 51.9504C41.3007 51.9504 38.317 49.0161 38.3763 45.41C38.4257 41.7544 41.3797 38.8102 44.9167 38.8695V38.8596Z" fill="#5A1900"/>
<path d="M44.9167 38.8693C48.5328 38.9285 51.6746 41.4973 51.6746 45.1133C51.6746 48.7294 48.5328 51.9601 44.9167 51.9601C41.3007 51.9601 38.317 49.0258 38.3763 45.4196C38.4355 41.7641 41.3797 38.8199 44.9167 38.8791V38.8693Z" fill="#5C1900"/>
<path d="M44.9275 38.8797C48.5435 38.9389 51.6853 41.5077 51.6853 45.1139C51.6853 48.72 48.5435 51.9606 44.9275 51.9606C41.3114 51.9606 38.3277 49.0263 38.387 45.4201C38.4463 41.7646 41.4004 38.8204 44.9275 38.8797Z" fill="#5E1A00"/>
<path d="M44.9375 38.8893C48.5535 38.9486 51.6953 41.5075 51.6953 45.1235C51.6953 48.7395 48.5535 51.9702 44.9375 51.9702C41.3214 51.9702 38.3377 49.0458 38.397 45.4298C38.4563 41.7742 41.4103 38.83 44.9375 38.8893Z" fill="#5F1A00"/>
<path d="M44.9463 38.8992C48.5524 38.9585 51.7041 41.5075 51.7041 45.1235C51.7041 48.7395 48.5524 51.9801 44.9463 51.9801C41.3401 51.9801 38.3465 49.0557 38.4058 45.4397C38.4651 41.7841 41.4192 38.8399 44.9463 38.8992Z" fill="#611A00"/>
<path d="M44.9463 38.9091C48.5524 38.9782 51.714 41.5174 51.714 45.1235C51.714 48.7297 48.5623 51.9801 44.9463 51.9801C41.3302 51.9801 38.3465 49.0557 38.4058 45.4397C38.4651 41.7841 41.4192 38.8399 44.9463 38.8992V38.9091Z" fill="#631B00"/>
<path d="M44.9555 38.9188C48.5616 38.988 51.7232 41.5173 51.7232 45.1333C51.7232 48.7493 48.5616 51.9998 44.9555 51.9998C41.3493 51.9998 38.3557 49.0753 38.415 45.4593C38.4743 41.8038 41.4284 38.8596 44.9555 38.9188Z" fill="#641B00"/>
<path d="M44.9655 38.9287C48.5716 38.9979 51.7332 41.5271 51.7332 45.1333C51.7332 48.7394 48.5716 51.9998 44.9655 51.9998C41.3593 51.9998 38.3657 49.0753 38.425 45.4593C38.4843 41.8038 41.4384 38.8596 44.9655 38.9188V38.9287Z" fill="#661C00"/>
<path d="M44.9659 38.9382C48.572 39.0074 51.7336 41.5268 51.7336 45.1329C51.7336 48.7391 48.572 52.0093 44.9659 52.0093C41.3597 52.0093 38.3661 49.0848 38.4353 45.4787C38.4946 41.8232 41.4486 38.879 44.9659 38.9481V38.9382Z" fill="#681C00"/>
<path d="M44.9755 38.9486C48.5816 39.0178 51.753 41.5273 51.753 45.1433C51.753 48.7593 48.5816 52.0197 44.9755 52.0197C41.3693 52.0197 38.3757 49.0952 38.4449 45.4891C38.5041 41.8335 41.4582 38.8893 44.9755 38.9585V38.9486Z" fill="#691D00"/>
<path d="M44.9858 38.9678C48.592 39.0369 51.7634 41.5464 51.7634 45.1526C51.7634 48.7587 48.592 52.0388 44.9858 52.0388C41.3797 52.0388 38.3861 49.1144 38.4552 45.5082C38.5145 41.8527 41.4686 38.9085 44.9858 38.9777V38.9678Z" fill="#6B1D00"/>
<path d="M44.9958 38.9786C48.6019 39.0478 51.7734 41.5474 51.7734 45.1535C51.7734 48.7597 48.6019 52.0398 44.9958 52.0398C41.3896 52.0398 38.396 49.1153 38.4652 45.5092C38.5344 41.8537 41.4786 38.9095 44.9958 38.9786Z" fill="#6D1E00"/>
<path d="M44.9958 38.9878C48.6019 39.0569 51.7832 41.5466 51.7832 45.1627C51.7832 48.7787 48.6019 52.0489 44.9958 52.0489C41.3896 52.0489 38.396 49.1245 38.4652 45.5184C38.5344 41.8628 41.4786 38.9186 44.9958 38.9878Z" fill="#6F1E00"/>
<path d="M45.0065 38.9985C48.6127 39.0775 51.794 41.5574 51.794 45.1635C51.794 48.7697 48.6127 52.0597 45.0065 52.0597C41.4004 52.0597 38.4068 49.1352 38.4759 45.5291C38.5451 41.8735 41.4992 38.9293 45.0065 38.9985Z" fill="#701F00"/>
<path d="M45.0154 39.008C48.6216 39.0871 51.8029 41.557 51.8029 45.1632C51.8029 48.7693 48.6216 52.0593 45.0154 52.0593C41.4093 52.0593 38.4256 49.1349 38.4848 45.5287C38.554 41.8732 41.5081 38.929 45.0154 38.9981V39.008Z" fill="#721F00"/>
<path d="M45.0154 39.0177C48.6216 39.0967 51.8029 41.5667 51.8029 45.1728C51.8029 48.779 48.6117 52.0788 45.0154 52.0788C41.4192 52.0788 38.4256 49.1544 38.4848 45.5483C38.554 41.8927 41.5081 38.9485 45.0154 39.0177Z" fill="#742000"/>
<path d="M45.0247 39.0277C48.6308 39.1067 51.822 41.5668 51.822 45.173C51.822 48.7791 48.6308 52.079 45.0247 52.079C41.4185 52.079 38.4348 49.1545 38.4941 45.5484C38.5632 41.8928 41.5173 38.9486 45.0247 39.0277Z" fill="#752000"/>
<path d="M45.035 39.0372C48.6412 39.1163 51.8324 41.5665 51.8324 45.1726C51.8324 48.7788 48.6412 52.0885 45.035 52.0885C41.4289 52.0885 38.4451 49.1641 38.5143 45.5678C38.5835 41.9123 41.5375 38.9681 45.035 39.0471V39.0372Z" fill="#772000"/>
<path d="M45.0439 39.0468C48.65 39.1259 51.8412 41.5761 51.8412 45.1724C51.8412 48.7686 48.6401 52.0883 45.0439 52.0883C41.4476 52.0883 38.454 49.1638 38.5231 45.5675C38.5923 41.912 41.5464 38.9678 45.0439 39.0468Z" fill="#792100"/>
<path d="M45.0439 39.0672C48.6401 39.1463 51.8511 41.5866 51.8511 45.1927C51.8511 48.7989 48.65 52.1086 45.0439 52.1086C41.4377 52.1086 38.454 49.1842 38.5232 45.5879C38.5923 41.9324 41.5464 38.9882 45.0439 39.0672Z" fill="#7A2100"/>
<path d="M45.0534 39.0771C48.6497 39.1562 51.8607 41.5965 51.8607 45.1928C51.8607 48.789 48.6596 52.1185 45.0534 52.1185C41.4473 52.1185 38.4636 49.1941 38.5327 45.5978C38.6118 41.9423 41.556 38.9981 45.0534 39.0771Z" fill="#7C2200"/>
<path d="M45.0638 39.087C48.6601 39.166 51.871 41.5965 51.871 45.1928C51.871 48.789 48.6601 52.1185 45.0638 52.1185C41.4675 52.1185 38.4739 49.1941 38.5431 45.5978C38.6221 41.9423 41.5663 38.9981 45.0638 39.0771V39.087Z" fill="#7E2200"/>
<path d="M45.0638 39.0968C48.6601 39.1857 51.871 41.5964 51.871 45.2025C51.871 48.8087 48.6601 52.1382 45.0638 52.1382C41.4675 52.1382 38.4739 49.2236 38.5431 45.6175C38.6221 41.9619 41.5663 39.0177 45.0638 39.0968Z" fill="#802300"/>
<path d="M45.0738 39.1067C48.67 39.1956 51.8909 41.6063 51.8909 45.2025C51.8909 48.7988 48.6799 52.1382 45.0738 52.1382C41.4676 52.1382 38.4839 49.2236 38.5531 45.6175C38.6321 41.9619 41.5763 39.0177 45.0738 39.0968V39.1067Z" fill="#812300"/>
<path d="M45.0845 39.117C48.6808 39.2059 51.9016 41.6067 51.9016 45.203C51.9016 48.7993 48.6808 52.1486 45.0845 52.1486C41.4882 52.1486 38.4946 49.234 38.5638 45.6279C38.6428 41.9723 41.5969 39.0281 45.0845 39.1071V39.117Z" fill="#832400"/>
<path d="M45.0945 39.1266C48.6908 39.2155 51.9116 41.6163 51.9116 45.2126C51.9116 48.8088 48.6908 52.1581 45.0945 52.1581C41.4983 52.1581 38.5047 49.2436 38.5837 45.6473C38.6628 41.9917 41.6168 39.0476 45.0945 39.1365V39.1266Z" fill="#852400"/>
<path d="M45.0945 39.1362C48.6908 39.2251 51.9116 41.6161 51.9116 45.2123C51.9116 48.8086 48.6908 52.1678 45.0945 52.1678C41.4983 52.1678 38.5047 49.2532 38.5837 45.6569C38.6628 42.0014 41.6168 39.0572 45.0945 39.1461V39.1362Z" fill="#862500"/>
<path d="M45.1045 39.1462C48.7008 39.2352 51.9315 41.6162 51.9315 45.2125C51.9315 48.8088 48.7008 52.1679 45.1045 52.1679C41.5083 52.1679 38.5147 49.2533 38.5937 45.6571C38.6727 42.0015 41.6268 39.0573 45.1045 39.1462Z" fill="#882500"/>
<path d="M45.1141 39.1563C48.7104 39.2452 51.9411 41.6262 51.9411 45.2225C51.9411 48.8188 48.7104 52.1779 45.1141 52.1779C41.5178 52.1779 38.5242 49.2634 38.6033 45.6671C38.6823 42.0115 41.6364 39.0673 45.1141 39.1563Z" fill="#8A2600"/>
<path d="M45.1141 39.1762C48.7104 39.2651 51.9411 41.6362 51.9411 45.2325C51.9411 48.8288 48.7104 52.1978 45.1141 52.1978C41.5178 52.1978 38.5242 49.2833 38.6033 45.687C38.6823 42.0314 41.6364 39.0872 45.1141 39.1762Z" fill="#8B2600"/>
<path d="M45.123 39.186C48.7192 39.275 51.9598 41.6362 51.9598 45.2325C51.9598 48.8288 48.7192 52.1978 45.123 52.1978C41.5267 52.1978 38.5331 49.2833 38.6121 45.687C38.701 42.0314 41.6452 39.0872 45.123 39.1762V39.186Z" fill="#8D2600"/>
<path d="M45.1329 39.1957C48.7292 39.2945 51.9698 41.6459 51.9698 45.2422C51.9698 48.8384 48.7292 52.2173 45.1329 52.2173C41.5366 52.2173 38.543 49.3028 38.6221 45.7065C38.711 42.051 41.6552 39.1068 45.1329 39.1957Z" fill="#8F2700"/>
<path d="M45.1433 39.2056C48.7395 39.3044 51.9801 41.6459 51.9801 45.2422C51.9801 48.8384 48.7395 52.2173 45.1433 52.2173C41.547 52.2173 38.5534 49.3028 38.6325 45.7065C38.7214 42.051 41.6656 39.1068 45.1433 39.1957V39.2056Z" fill="#912700"/>
<path d="M45.1434 39.2161C48.7298 39.3149 51.9802 41.6564 51.9802 45.2428C51.9802 48.8292 48.7298 52.2278 45.1434 52.2278C41.557 52.2278 38.5535 49.3133 38.6424 45.7269C38.7313 42.0713 41.6755 39.1271 45.1434 39.2259V39.2161Z" fill="#922800"/>
<path d="M45.1538 39.226C48.7402 39.3248 52.0005 41.6564 52.0005 45.2527C52.0005 48.8489 48.75 52.2377 45.1538 52.2377C41.5575 52.2377 38.5639 49.3232 38.6528 45.7368C38.7417 42.0812 41.6958 39.137 45.1538 39.2358V39.226Z" fill="#942800"/>
<path d="M45.1637 39.2352C48.7501 39.334 52.0105 41.6558 52.0105 45.2521C52.0105 48.8483 48.76 52.247 45.1637 52.247C41.5674 52.247 38.5738 49.3324 38.6628 45.7461C38.7517 42.0905 41.7058 39.1463 45.1637 39.2451V39.2352Z" fill="#962900"/>
<path d="M45.1637 39.2453C48.7501 39.3441 52.0104 41.6659 52.0104 45.2523C52.0104 48.8387 48.7501 52.2472 45.1637 52.2472C41.5773 52.2472 38.5738 49.3327 38.6628 45.7463C38.7517 42.0907 41.7057 39.1465 45.1637 39.2453Z" fill="#972900"/>
<path d="M45.1741 39.2552C48.7605 39.354 52.0208 41.6659 52.0208 45.2622C52.0208 48.8585 48.7605 52.2571 45.1741 52.2571C41.5877 52.2571 38.5842 49.3426 38.6731 45.7562C38.762 42.1006 41.7161 39.1564 45.1741 39.2552Z" fill="#992A00"/>
<path d="M45.1833 39.2645C48.7697 39.3633 52.0399 41.6752 52.0399 45.2616C52.0399 48.848 48.7796 52.2664 45.1833 52.2664C41.587 52.2664 38.5934 49.3518 38.6824 45.7654C38.7713 42.1099 41.7253 39.1657 45.1833 39.2645Z" fill="#9B2A00"/>
<path d="M45.1929 39.2851C48.7793 39.3839 52.0495 41.6859 52.0495 45.2723C52.0495 48.8587 48.7793 52.2771 45.1929 52.2771C41.6065 52.2771 38.603 49.3626 38.6919 45.7762C38.7808 42.1206 41.7349 39.1764 45.1929 39.2752V39.2851Z" fill="#9C2B00"/>
<path d="M45.1929 39.294C48.7793 39.4027 52.0495 41.685 52.0495 45.2812C52.0495 48.8775 48.7793 52.2959 45.1929 52.2959C41.6065 52.2959 38.603 49.3814 38.6919 45.795C38.7907 42.1394 41.7349 39.1952 45.1929 39.294Z" fill="#9E2B00"/>
<path d="M45.2021 39.3039C48.7885 39.4126 52.0686 41.6948 52.0686 45.2812C52.0686 48.8676 48.7984 52.2959 45.2021 52.2959C41.6058 52.2959 38.6122 49.3814 38.7011 45.795C38.7999 42.1394 41.7441 39.1952 45.2021 39.294V39.3039Z" fill="#A02C00"/>
<path d="M45.2122 39.3135C48.7986 39.4222 52.0787 41.6945 52.0787 45.2809C52.0787 48.8673 48.7986 52.3055 45.2122 52.3055C41.6258 52.3055 38.6224 49.4008 38.7212 45.8144C38.8199 42.1589 41.7641 39.2147 45.2122 39.3234V39.3135Z" fill="#A22C00"/>
<path d="M45.2122 39.3237C48.7986 39.4324 52.0787 41.6949 52.0787 45.2813C52.0787 48.8677 48.7986 52.3059 45.2122 52.3059C41.6258 52.3059 38.6224 49.4012 38.7212 45.8148C38.8199 42.1592 41.7641 39.215 45.2122 39.3237Z" fill="#A32D00"/>
<path d="M45.2222 39.3334C48.8086 39.4421 52.0887 41.7045 52.0887 45.2909C52.0887 48.8773 48.8086 52.3254 45.2222 52.3254C41.6358 52.3254 38.6323 49.4207 38.7311 45.8343C38.8299 42.1788 41.7741 39.2346 45.2222 39.3433V39.3334Z" fill="#A52D00"/>
<path d="M45.2325 39.3432C48.8189 39.4519 52.1089 41.7045 52.1089 45.2909C52.1089 48.8773 48.8189 52.3254 45.2325 52.3254C41.6462 52.3254 38.6427 49.4207 38.7415 45.8343C38.8403 42.1788 41.7944 39.2346 45.2325 39.3432Z" fill="#A72D00"/>
<path d="M45.2421 39.3531C48.8285 39.4618 52.1185 41.7144 52.1185 45.2909C52.1185 48.8674 48.8285 52.3254 45.2421 52.3254C41.6557 52.3254 38.6523 49.4207 38.7511 45.8343C38.8499 42.1788 41.8039 39.2346 45.2421 39.3432V39.3531Z" fill="#A82E00"/>
<path d="M45.2421 39.3628C48.8285 39.4715 52.1185 41.7142 52.1185 45.3006C52.1185 48.887 48.8285 52.3449 45.2421 52.3449C41.6557 52.3449 38.6523 49.4402 38.7511 45.8538C38.8499 42.1983 41.8039 39.2541 45.2421 39.3628Z" fill="#AA2E00"/>
<path d="M45.2529 39.3834C48.8294 39.4921 52.1292 41.7249 52.1292 45.3113C52.1292 48.8977 48.8294 52.3557 45.2529 52.3557C41.6764 52.3557 38.663 49.451 38.7618 45.8646C38.8606 42.209 41.8147 39.2648 45.2529 39.3735V39.3834Z" fill="#AC2F00"/>
<path d="M45.2628 39.3927C48.8394 39.5112 52.1491 41.7342 52.1491 45.3107C52.1491 48.8872 48.8492 52.3649 45.2628 52.3649C41.6765 52.3649 38.673 49.4603 38.7718 45.8739C38.8706 42.2183 41.8247 39.2741 45.2628 39.3828V39.3927Z" fill="#AD2F00"/>
<path d="M45.2627 39.4041C48.8392 39.5226 52.1489 41.7357 52.1489 45.3221C52.1489 48.9085 48.8491 52.3763 45.2627 52.3763C41.6763 52.3763 38.6728 49.4716 38.7815 45.8951C38.8902 42.2396 41.8344 39.2954 45.2627 39.4139V39.4041Z" fill="#AF3000"/>
<path d="M45.2715 39.4128C48.848 39.5314 52.1578 41.7445 52.1578 45.321C52.1578 48.8975 48.848 52.3851 45.2715 52.3851C41.695 52.3851 38.6816 49.4804 38.7903 45.9039C38.899 42.2484 41.8432 39.3042 45.2715 39.4227V39.4128Z" fill="#B13000"/>
<path d="M45.2815 39.4224C48.858 39.541 52.1776 41.7442 52.1776 45.3207C52.1776 48.8972 48.8679 52.3848 45.2815 52.3848C41.6951 52.3848 38.6916 49.4801 38.8003 45.9036C38.909 42.248 41.8532 39.3038 45.2815 39.4224Z" fill="#B33100"/>
<path d="M45.2918 39.4331C48.8683 39.5517 52.188 41.745 52.188 45.3314C52.188 48.9178 48.8782 52.3955 45.2918 52.3955C41.7054 52.3955 38.702 49.4908 38.8106 45.9143C38.9193 42.2588 41.8635 39.3146 45.2918 39.4331Z" fill="#B43100"/>
<path d="M45.2918 39.4424C48.8683 39.561 52.188 41.7543 52.188 45.3308C52.188 48.9073 48.8683 52.4048 45.2918 52.4048C41.7153 52.4048 38.7019 49.5001 38.8106 45.9236C38.9193 42.2681 41.8635 39.3239 45.2918 39.4424Z" fill="#B63200"/>
<path d="M45.3026 39.4523C48.8791 39.5709 52.1987 41.7543 52.1987 45.3308C52.1987 48.9073 48.8791 52.4048 45.3026 52.4048C41.726 52.4048 38.7127 49.5001 38.8214 45.9236C38.93 42.2681 41.8742 39.3239 45.3026 39.4424V39.4523Z" fill="#B83200"/>
<path d="M45.3118 39.4627C48.8883 39.5813 52.2178 41.7548 52.2178 45.3412C52.2178 48.9276 48.8883 52.4251 45.3118 52.4251C41.7353 52.4251 38.7219 49.5204 38.8306 45.9439C38.9393 42.2785 41.8933 39.3441 45.3118 39.4627Z" fill="#B93300"/>
<path d="M52.2178 45.3412C52.2178 48.9177 48.8883 52.4251 45.3118 52.4251C41.7353 52.4251 38.7219 49.5204 38.8306 45.9439C38.9393 42.2785 41.8933 39.3441 45.3118 39.4627C48.8883 39.5911 52.2178 41.7548 52.2178 45.3313V45.3412Z" fill="#BB3300"/>
<path opacity="0.99" d="M45.3218 39.4822C48.8983 39.6007 52.2278 41.7743 52.2278 45.3607C52.2278 48.9471 48.9081 52.4446 45.3218 52.4446C41.7354 52.4446 38.7319 49.5399 38.8406 45.9634C38.9492 42.3078 41.9033 39.3735 45.3218 39.4822Z" fill="#BC3502"/>
<path opacity="0.98" d="M45.3316 39.4921C48.9081 39.6106 52.2278 41.7941 52.2278 45.3706C52.2278 48.9471 48.9081 52.4446 45.3316 52.4446C41.7551 52.4446 38.7516 49.5399 38.8504 45.9634C38.9591 42.3078 41.9033 39.3735 45.3316 39.4822V39.4921Z" fill="#BC3705"/>
<path opacity="0.97" d="M45.3316 39.5021C48.9081 39.6206 52.2278 41.814 52.2278 45.3905C52.2278 48.967 48.9081 52.4644 45.3316 52.4644C41.7551 52.4644 38.7516 49.5598 38.8504 45.9833C38.9591 42.3277 41.9033 39.3934 45.3316 39.5021Z" fill="#BD3907"/>
<path opacity="0.96" d="M45.3416 39.512C48.9181 39.6305 52.2279 41.8238 52.2279 45.4003C52.2279 48.9769 48.9181 52.4644 45.3416 52.4644C41.7651 52.4644 38.7616 49.5598 38.8604 45.9833C38.9691 42.3277 41.9133 39.3934 45.3416 39.5021V39.512Z" fill="#BD3A09"/>
<path opacity="0.95" d="M45.3416 39.5216C48.9181 39.6401 52.2279 41.8434 52.2279 45.4199C52.2279 48.9964 48.9181 52.4741 45.3416 52.4741C41.7651 52.4741 38.7616 49.5694 38.8604 45.9929C38.9691 42.3374 41.9133 39.403 45.3416 39.5117V39.5216Z" fill="#BE3C0C"/>
<path opacity="0.95" d="M45.352 39.5216C48.9285 39.6401 52.2382 41.8434 52.2382 45.4199C52.2382 48.9964 48.9384 52.4741 45.352 52.4741C41.7656 52.4741 38.772 49.5694 38.8708 45.9929C38.9795 42.3374 41.9237 39.403 45.352 39.5117V39.5216Z" fill="#BF3E0E"/>
<path opacity="0.94" d="M45.352 39.5323C48.9285 39.6509 52.2284 41.864 52.2284 45.4405C52.2284 49.017 48.9285 52.4848 45.352 52.4848C41.7755 52.4848 38.772 49.5802 38.8708 46.0036C38.9795 42.3481 41.9237 39.4138 45.352 39.5225V39.5323Z" fill="#BF4010"/>
<path opacity="0.93" d="M45.3623 39.5415C48.9388 39.6601 52.2387 41.8731 52.2387 45.4496C52.2387 49.0262 48.9388 52.494 45.3623 52.494C41.7858 52.494 38.7823 49.5893 38.8811 46.0128C38.9799 42.3573 41.9241 39.4229 45.3623 39.5316V39.5415Z" fill="#C04213"/>
<path opacity="0.92" d="M45.3623 39.5519C48.9388 39.6605 52.2288 41.8934 52.2288 45.4699C52.2288 49.0464 48.9388 52.5044 45.3623 52.5044C41.7858 52.5044 38.7823 49.5997 38.8811 46.0232C38.9799 42.3676 41.9241 39.4333 45.3623 39.542V39.5519Z" fill="#C14415"/>
<path opacity="0.91" d="M45.3723 39.5614C48.9488 39.6701 52.2388 41.9029 52.2388 45.4893C52.2388 49.0757 48.9488 52.5238 45.3723 52.5238C41.7958 52.5238 38.7923 49.6191 38.8911 46.0426C38.9899 42.387 41.9341 39.4626 45.3723 39.5614Z" fill="#C14617"/>
<path opacity="0.9" d="M45.38 39.5713C48.9565 39.6799 52.2465 41.9227 52.2465 45.4992C52.2465 49.0757 48.9565 52.5238 45.38 52.5238C41.8034 52.5238 38.8 49.6191 38.8988 46.0426C38.9976 42.387 41.9418 39.4626 45.38 39.5614V39.5713Z" fill="#C24719"/>
<path opacity="0.89" d="M45.3807 39.5814C48.9572 39.6901 52.2373 41.9427 52.2373 45.5192C52.2373 49.0957 48.9572 52.5438 45.3807 52.5438C41.8042 52.5438 38.8106 49.6391 38.8995 46.0626C38.9983 42.407 41.9425 39.4826 45.3807 39.5814Z" fill="#C2491C"/>
<path opacity="0.88" d="M45.3906 39.5813C48.9672 39.69 52.2473 41.9426 52.2473 45.5191C52.2473 49.0956 48.9672 52.5338 45.3906 52.5338C41.8141 52.5338 38.8205 49.6291 38.9095 46.0526C39.0083 42.397 41.9525 39.4726 45.3906 39.5714V39.5813Z" fill="#C34B1E"/>
<path opacity="0.87" d="M45.3906 39.5913C48.9672 39.7 52.2374 41.9624 52.2374 45.539C52.2374 49.1155 48.9672 52.5438 45.3906 52.5438C41.8141 52.5438 38.8205 49.6391 38.9095 46.0626C39.0083 42.4169 41.9525 39.4826 45.3906 39.5814V39.5913Z" fill="#C44D20"/>
<path opacity="0.86" d="M45.3999 39.6008C48.9764 39.7095 52.2466 41.972 52.2466 45.5485C52.2466 49.125 48.9764 52.5533 45.3999 52.5533C41.8234 52.5533 38.8298 49.6486 38.9187 46.0721C39.0175 42.4264 41.9518 39.4921 45.3999 39.5909V39.6008Z" fill="#C44F23"/>
<path opacity="0.85" d="M45.3999 39.6112C48.9764 39.7199 52.2466 41.9922 52.2466 45.5687C52.2466 49.1452 48.9764 52.5637 45.3999 52.5637C41.8234 52.5637 38.8298 49.659 38.9187 46.0825C39.0175 42.4368 41.9518 39.5025 45.3999 39.6013V39.6112Z" fill="#C55125"/>
<path opacity="0.85" d="M45.4094 39.6208C48.986 39.7295 52.2463 42.0019 52.2463 45.5784C52.2463 49.1549 48.986 52.5733 45.4094 52.5733C41.8329 52.5733 38.8393 49.6686 38.9283 46.0921C39.0271 42.4465 41.9614 39.5121 45.4094 39.6109V39.6208Z" fill="#C65327"/>
<path opacity="0.84" d="M45.4094 39.63C48.986 39.7288 52.2463 42.0209 52.2463 45.5974C52.2463 49.1739 48.986 52.5825 45.4094 52.5825C41.8329 52.5825 38.8393 49.6778 38.9283 46.1013C39.0172 42.4556 41.9614 39.5213 45.4094 39.6201V39.63Z" fill="#C6542A"/>
<path opacity="0.83" d="M45.4194 39.6309C48.9959 39.7297 52.2464 42.0218 52.2464 45.6082C52.2464 49.1946 48.9959 52.5933 45.4194 52.5933C41.8429 52.5933 38.8493 49.6886 38.9382 46.1121C39.0272 42.4664 41.9714 39.542 45.4194 39.6309Z" fill="#C7562C"/>
<path opacity="0.82" d="M45.4298 39.6408C49.0063 39.7396 52.2568 42.0416 52.2568 45.6181C52.2568 49.1946 49.0063 52.5933 45.4298 52.5933C41.8533 52.5933 38.8597 49.6886 38.9486 46.1121C39.0375 42.4664 41.9817 39.542 45.4298 39.6309V39.6408Z" fill="#C7582E"/>
<path opacity="0.81" d="M45.4298 39.6499C49.0063 39.7487 52.2568 42.0606 52.2568 45.6371C52.2568 49.2136 49.0063 52.6024 45.4298 52.6024C41.8533 52.6024 38.8597 49.6977 38.9486 46.1212C39.0375 42.4756 41.9817 39.5511 45.4298 39.64V39.6499Z" fill="#C85A31"/>
<path opacity="0.8" d="M45.4394 39.6603C49.0159 39.7591 52.2565 42.071 52.2565 45.6475C52.2565 49.224 49.0159 52.6128 45.4394 52.6128C41.8629 52.6128 38.8791 49.7081 38.9582 46.1316C39.0471 42.4859 41.9814 39.5615 45.4394 39.6504V39.6603Z" fill="#C95C33"/>
<path opacity="0.79" d="M45.4394 39.6698C49.0159 39.7686 52.2565 42.0904 52.2565 45.6669C52.2565 49.2434 49.0159 52.6223 45.4394 52.6223C41.8629 52.6223 38.8791 49.7176 38.9582 46.1411C39.0471 42.4955 41.9814 39.571 45.4394 39.6599V39.6698Z" fill="#C95E35"/>
<path opacity="0.78" d="M45.4501 39.6806C49.0266 39.7794 52.2573 42.1011 52.2573 45.6776C52.2573 49.2541 49.0266 52.6331 45.4501 52.6331C41.8736 52.6331 38.8899 49.7284 38.9689 46.1519C39.0578 42.5062 41.9922 39.5818 45.4501 39.6707V39.6806Z" fill="#CA6038"/>
<path opacity="0.77" d="M45.4501 39.6806C49.0266 39.7794 52.2573 42.111 52.2573 45.6875C52.2573 49.264 49.0266 52.6331 45.4501 52.6331C41.8736 52.6331 38.8899 49.7284 38.9689 46.1519C39.0578 42.5062 41.9922 39.5818 45.4501 39.6707V39.6806Z" fill="#CA613A"/>
<path opacity="0.76" d="M45.4593 39.6895C49.0358 39.7883 52.2665 42.1199 52.2665 45.7063C52.2665 49.2927 49.0358 52.6519 45.4593 52.6519C41.8828 52.6519 38.8991 49.7472 38.9781 46.1707C39.067 42.525 42.0014 39.6006 45.4593 39.6895Z" fill="#CB633C"/>
<path opacity="0.75" d="M45.4697 39.6994C49.0462 39.7883 52.267 42.1397 52.267 45.7162C52.267 49.2927 49.0462 52.6518 45.4697 52.6518C41.8932 52.6518 38.9094 49.7472 38.9885 46.1707C39.0774 42.5349 42.0117 39.6006 45.4697 39.6895V39.6994Z" fill="#CC653F"/>
<path opacity="0.75" d="M45.4701 39.7091C49.0466 39.798 52.2674 42.1593 52.2674 45.7358C52.2674 49.3123 49.0466 52.6715 45.4701 52.6715C41.8936 52.6715 38.9098 49.7668 38.9889 46.1903C39.0679 42.5545 42.0121 39.6202 45.4701 39.7091Z" fill="#CC6741"/>
<path opacity="0.74" d="M45.48 39.7186C49.0565 39.8075 52.2774 42.1688 52.2774 45.7453C52.2774 49.3218 49.0664 52.6711 45.48 52.6711C41.8937 52.6711 38.9198 49.7664 38.9989 46.1899C39.0779 42.5541 42.0122 39.6297 45.48 39.7087V39.7186Z" fill="#CD6943"/>
<path opacity="0.73" d="M45.4796 39.7293C49.0561 39.8183 52.2671 42.1894 52.2671 45.7659C52.2671 49.3424 49.0561 52.6818 45.4796 52.6818C41.9031 52.6818 38.9194 49.7772 38.9985 46.2006C39.0775 42.5649 42.0118 39.6404 45.4796 39.7195V39.7293Z" fill="#CE6B46"/>
<path opacity="0.72" d="M45.4885 39.7293C49.065 39.8183 52.2759 42.1894 52.2759 45.7659C52.2759 49.3424 49.065 52.6818 45.4885 52.6818C41.912 52.6818 38.9282 49.7772 39.0073 46.2006C39.0863 42.5649 42.0206 39.6404 45.4885 39.7195V39.7293Z" fill="#CE6C48"/>
<path opacity="0.71" d="M45.4881 39.7385C49.0646 39.8274 52.2657 42.2085 52.2657 45.785C52.2657 49.3615 49.0646 52.691 45.4881 52.691C41.9116 52.691 38.9378 49.7863 39.0069 46.2098C39.086 42.574 42.0203 39.6496 45.4881 39.7286V39.7385Z" fill="#CF6E4A"/>
<path opacity="0.7" d="M45.4981 39.7481C49.0746 39.8371 52.2757 42.2181 52.2757 45.7946C52.2757 49.3711 49.0746 52.7006 45.4981 52.7006C41.9216 52.7006 38.9477 49.796 39.0169 46.2194C39.0959 42.5837 42.0303 39.6592 45.4981 39.7383V39.7481Z" fill="#CF704C"/>
<path opacity="0.69" d="M45.4981 39.7585C49.0746 39.8474 52.2757 42.2384 52.2757 45.8149C52.2757 49.3914 49.0845 52.711 45.4981 52.711C41.9117 52.711 38.9477 49.8063 39.0169 46.2298C39.0959 42.594 42.0303 39.6696 45.4981 39.7486V39.7585Z" fill="#D0724F"/>
<path opacity="0.68" d="M45.5085 39.7682C49.085 39.8571 52.2762 42.248 52.2762 45.8344C52.2762 49.4208 49.085 52.7305 45.5085 52.7305C41.932 52.7305 38.9581 49.8259 39.0273 46.2494C39.1063 42.6136 42.0406 39.6891 45.5085 39.7682Z" fill="#D17451"/>
<path opacity="0.67" d="M45.5188 39.778C49.0953 39.8571 52.2865 42.2678 52.2865 45.8443C52.2865 49.4208 49.0953 52.7305 45.5188 52.7305C41.9423 52.7305 38.9685 49.8259 39.0376 46.2494C39.1167 42.6136 42.0411 39.6891 45.5188 39.7682V39.778Z" fill="#D17653"/>
<path opacity="0.66" d="M45.5188 39.7877C49.0953 39.8667 52.2766 42.2873 52.2766 45.8638C52.2766 49.4403 49.0953 52.7501 45.5188 52.7501C41.9423 52.7501 38.9685 49.8454 39.0376 46.2689C39.1167 42.6331 42.0411 39.7087 45.5188 39.7877Z" fill="#D27856"/>
<path opacity="0.65" d="M45.5288 39.7877C49.1053 39.8667 52.2866 42.2873 52.2866 45.8638C52.2866 49.4403 49.1053 52.7402 45.5288 52.7402C41.9523 52.7402 38.9784 49.8355 39.0476 46.259C39.1168 42.6232 42.0511 39.7087 45.5288 39.7778V39.7877Z" fill="#D27958"/>
<path opacity="0.65" d="M45.5288 39.7984C49.1053 39.8775 52.2866 42.3079 52.2866 45.8844C52.2866 49.4609 49.1152 52.7509 45.5288 52.7509C41.9424 52.7509 38.9784 49.8463 39.0476 46.2697C39.1168 42.634 42.0511 39.7194 45.5288 39.7886V39.7984Z" fill="#D37B5A"/>
<path opacity="0.64" d="M45.5384 39.808C49.1149 39.887 52.2863 42.3174 52.2863 45.894C52.2863 49.4705 49.1149 52.7605 45.5384 52.7605C41.9619 52.7605 38.988 49.8558 39.0572 46.2793C39.1263 42.6534 42.0607 39.7289 45.5384 39.7981V39.808Z" fill="#D47D5D"/>
<path opacity="0.63" d="M45.5384 39.818C49.1149 39.897 52.2863 42.3373 52.2863 45.9138C52.2863 49.4903 49.1149 52.7705 45.5384 52.7705C41.9619 52.7705 38.988 49.8658 39.0572 46.2893C39.1263 42.6634 42.0607 39.7389 45.5384 39.8081V39.818Z" fill="#D47F5F"/>
<path opacity="0.62" d="M45.5488 39.828C49.1253 39.907 52.2869 42.3473 52.2869 45.9238C52.2869 49.5004 49.1253 52.7805 45.5488 52.7805C41.9723 52.7805 39.0083 49.8758 39.0676 46.2993C39.1368 42.6734 42.0612 39.7489 45.5488 39.8181V39.828Z" fill="#D58161"/>
<path opacity="0.61" d="M45.5488 39.8375C49.1253 39.9165 52.2869 42.3667 52.2869 45.9432C52.2869 49.5198 49.1253 52.79 45.5488 52.79C41.9723 52.79 39.0083 49.8853 39.0676 46.3088C39.1368 42.6829 42.0612 39.7585 45.5488 39.8276V39.8375Z" fill="#D68364"/>
<path opacity="0.6" d="M45.5584 39.8376C49.1349 39.9167 52.2965 42.3768 52.2965 45.9533C52.2965 49.5298 49.1349 52.8 45.5584 52.8C41.9819 52.8 39.0179 49.8953 39.0772 46.3188C39.1464 42.6929 42.0708 39.7685 45.5584 39.8376Z" fill="#D68566"/>
<path opacity="0.59" d="M45.5688 39.8475C49.1453 39.9167 52.2969 42.3866 52.2969 45.9631C52.2969 49.5397 49.1453 52.8 45.5688 52.8C41.9923 52.8 39.0283 49.8953 39.0876 46.3188C39.1567 42.6929 42.0812 39.7685 45.5688 39.8376V39.8475Z" fill="#D78668"/>
<path opacity="0.58" d="M45.5688 39.8575C49.1453 39.9267 52.2969 42.4065 52.2969 45.983C52.2969 49.5595 49.1453 52.81 45.5688 52.81C41.9923 52.81 39.0283 49.9053 39.0876 46.3288C39.1567 42.7029 42.0812 39.7785 45.5688 39.8476V39.8575Z" fill="#D7886B"/>
<path opacity="0.57" d="M45.5787 39.8679C49.1553 39.9371 52.297 42.4169 52.297 45.9935C52.297 49.57 49.1553 52.8204 45.5787 52.8204C42.0022 52.8204 39.0383 49.9158 39.0976 46.3393C39.1568 42.7133 42.0912 39.7988 45.5787 39.8581V39.8679Z" fill="#D88A6D"/>
<path opacity="0.56" d="M45.5787 39.8775C49.1553 39.9466 52.297 42.4364 52.297 46.0129C52.297 49.5894 49.1553 52.83 45.5787 52.83C42.0022 52.83 39.0383 49.9253 39.0976 46.3488C39.1568 42.7229 42.0912 39.8083 45.5787 39.8676V39.8775Z" fill="#D98C6F"/>
<path opacity="0.55" d="M45.5895 39.8875C49.166 39.9566 52.3078 42.4464 52.3078 46.0229C52.3078 49.5994 49.166 52.84 45.5895 52.84C42.013 52.84 39.049 49.9353 39.1083 46.3588C39.1676 42.7329 42.092 39.8183 45.5895 39.8776V39.8875Z" fill="#D98E72"/>
<path opacity="0.55" d="M45.5895 39.8875C49.166 39.9566 52.2979 42.4562 52.2979 46.0327C52.2979 49.6093 49.166 52.84 45.5895 52.84C42.013 52.84 39.049 49.9353 39.1083 46.3588C39.1676 42.7329 42.092 39.8183 45.5895 39.8776V39.8875Z" fill="#DA9074"/>
<path opacity="0.54" d="M45.5968 39.8975C49.1733 39.9667 52.3052 42.4663 52.3052 46.0526C52.3052 49.639 49.1733 52.8599 45.5968 52.8599C42.0203 52.8599 39.0563 49.9552 39.1156 46.3787C39.1749 42.7528 42.0993 39.8382 45.5968 39.8975Z" fill="#DB9276"/>
<path opacity="0.53" d="M45.5976 39.9074C49.1742 39.9765 52.2962 42.486 52.2962 46.0625C52.2962 49.639 49.1742 52.8599 45.5976 52.8599C42.0211 52.8599 39.0671 49.9552 39.1165 46.3787C39.1757 42.7528 42.1002 39.8382 45.5976 39.8975V39.9074Z" fill="#DB9379"/>
<path opacity="0.52" d="M45.6076 39.9171C49.1841 39.9764 52.3062 42.5057 52.3062 46.0822C52.3062 49.6587 49.1841 52.8795 45.6076 52.8795C42.0311 52.8795 39.077 49.9748 39.1264 46.3983C39.1857 42.7823 42.1102 39.8579 45.6076 39.9171Z" fill="#DC957B"/>
<path opacity="0.51" d="M45.6176 39.927C49.1941 39.9863 52.3161 42.5155 52.3161 46.0921C52.3161 49.6686 49.1941 52.8795 45.6176 52.8795C42.0411 52.8795 39.087 49.9748 39.1364 46.3983C39.1957 42.7823 42.1201 39.8579 45.6176 39.9171V39.927Z" fill="#DC977D"/>
<path opacity="0.5" d="M45.6176 39.9373C49.1941 39.9966 52.3063 42.5357 52.3063 46.1122C52.3063 49.6887 49.1941 52.8898 45.6176 52.8898C42.0411 52.8898 39.087 49.9851 39.1364 46.4086C39.1957 42.7926 42.1201 39.8681 45.6176 39.9274V39.9373Z" fill="#DD9980"/>
<path opacity="0.49" d="M45.6279 39.937C49.2045 39.9963 52.3166 42.5354 52.3166 46.1119C52.3166 49.6884 49.2045 52.8895 45.6279 52.8895C42.0514 52.8895 39.0974 49.9848 39.1468 46.4083C39.206 42.7923 42.1206 39.8777 45.6279 39.9271V39.937Z" fill="#DE9B82"/>
<path opacity="0.48" d="M45.6279 39.9478C49.2045 40.007 52.3067 42.556 52.3067 46.1325C52.3067 49.7091 49.2045 52.9003 45.6279 52.9003C42.0514 52.9003 39.0974 49.9956 39.1468 46.4191C39.1962 42.803 42.1206 39.8885 45.6279 39.9379V39.9478Z" fill="#DE9D84"/>
<path opacity="0.47" d="M45.6379 39.957C49.2144 40.0163 52.3167 42.5653 52.3167 46.1418C52.3167 49.7183 49.2144 52.9095 45.6379 52.9095C42.0614 52.9095 39.1073 50.0049 39.1567 46.4283C39.2061 42.8123 42.1306 39.8978 45.6379 39.9472V39.957Z" fill="#DF9F86"/>
<path opacity="0.46" d="M45.6379 39.9666C49.2144 40.0258 52.3167 42.5847 52.3167 46.1612C52.3167 49.7377 49.2144 52.9191 45.6379 52.9191C42.0614 52.9191 39.1073 50.0144 39.1567 46.4379C39.2061 42.8218 42.1306 39.9073 45.6379 39.9567V39.9666Z" fill="#DFA089"/>
<path opacity="0.45" d="M45.6475 39.9771C49.2241 40.0363 52.3164 42.5952 52.3164 46.1816C52.3164 49.768 49.2241 52.9394 45.6475 52.9394C42.071 52.9394 39.117 50.0348 39.1664 46.4582C39.2158 42.8422 42.1402 39.9277 45.6475 39.9771Z" fill="#E0A28B"/>
<path opacity="0.45" d="M45.6575 39.9869C49.234 40.0462 52.3264 42.615 52.3264 46.1915C52.3264 49.768 49.234 52.9394 45.6575 52.9394C42.081 52.9394 39.1269 50.0348 39.1763 46.4582C39.2257 42.8422 42.1501 39.9277 45.6575 39.9771V39.9869Z" fill="#E1A48D"/>
<path opacity="0.44" d="M45.6584 39.9871C49.2349 40.0365 52.3273 42.625 52.3273 46.2015C52.3273 49.778 49.2448 52.9494 45.6584 52.9494C42.072 52.9494 39.1377 50.0448 39.1772 46.4683C39.2266 42.8522 42.1511 39.9377 45.6584 39.9871Z" fill="#E1A690"/>
<path opacity="0.43" d="M45.668 39.9969C49.2445 40.0463 52.327 42.6349 52.327 46.2114C52.327 49.7879 49.2445 52.9494 45.668 52.9494C42.0915 52.9494 39.1473 50.0448 39.1868 46.4683C39.2362 42.8522 42.1508 39.9377 45.668 39.9871V39.9969Z" fill="#E2A892"/>
<path opacity="0.42" d="M45.668 40.0065C49.2445 40.0559 52.327 42.6543 52.327 46.2308C52.327 49.8073 49.2445 52.959 45.668 52.959C42.0915 52.959 39.1473 50.0543 39.1868 46.4778C39.2362 42.8618 42.1508 39.9472 45.668 39.9966V40.0065Z" fill="#E3AA94"/>
<path opacity="0.41" d="M45.678 40.0163C49.2545 40.0657 52.3271 42.6641 52.3271 46.2406C52.3271 49.8171 49.2545 52.9688 45.678 52.9688C42.1015 52.9688 39.1573 50.0641 39.1968 46.4876C39.2462 42.8715 42.1608 39.9669 45.678 40.0064V40.0163Z" fill="#E3AC97"/>
<path opacity="0.4" d="M45.678 40.0254C49.2545 40.0748 52.3271 42.6831 52.3271 46.2596C52.3271 49.8361 49.2545 52.9779 45.678 52.9779C42.1015 52.9779 39.1573 50.0732 39.1968 46.4967C39.2462 42.8906 42.1608 39.976 45.678 40.0155V40.0254Z" fill="#E4AD99"/>
<path opacity="0.39" d="M45.6864 40.0362C49.263 40.0856 52.3356 42.6938 52.3356 46.2704C52.3356 49.8469 49.2728 52.9887 45.6864 52.9887C42.1001 52.9887 39.1657 50.084 39.2053 46.5075C39.2448 42.9013 42.1692 39.9868 45.6864 40.0263V40.0362Z" fill="#E4AF9B"/>
<path opacity="0.38" d="M45.6864 40.0462C49.263 40.0956 52.3257 42.7137 52.3257 46.2902C52.3257 49.8667 49.263 52.9987 45.6864 52.9987C42.1099 52.9987 39.1657 50.094 39.2053 46.5175C39.2448 42.9113 42.1692 39.9968 45.6864 40.0363V40.0462Z" fill="#E5B19E"/>
<path opacity="0.37" d="M45.6964 40.0456C49.2729 40.095 52.3357 42.723 52.3357 46.2995C52.3357 49.876 49.2729 53.0079 45.6964 53.0079C42.1199 53.0079 39.1757 50.1033 39.2152 46.5268C39.2548 42.9206 42.1792 40.006 45.6964 40.0456Z" fill="#E6B3A0"/>
<path opacity="0.36" d="M45.7072 40.0554C49.2837 40.1048 52.3366 42.7329 52.3366 46.3094C52.3366 49.8859 49.2837 53.0079 45.7072 53.0079C42.1307 53.0079 39.1865 50.1033 39.226 46.5268C39.2655 42.9206 42.1801 40.006 45.7072 40.0456V40.0554Z" fill="#E6B5A2"/>
<path opacity="0.35" d="M45.7072 40.0657C49.2837 40.1052 52.3366 42.753 52.3366 46.3295C52.3366 49.906 49.2837 53.0182 45.7072 53.0182C42.1307 53.0182 39.1865 50.1135 39.226 46.537C39.2655 42.9309 42.1801 40.0163 45.7072 40.0558V40.0657Z" fill="#E7B7A5"/>
<path opacity="0.35" d="M45.717 40.0764C49.2935 40.116 52.3464 42.7638 52.3464 46.3403C52.3464 49.9168 49.3034 53.0289 45.717 53.0289C42.1306 53.0289 39.2061 50.1243 39.2358 46.5477C39.2753 42.9416 42.1899 40.027 45.717 40.0666V40.0764Z" fill="#E8B9A7"/>
<path opacity="0.34" d="M45.717 40.0857C49.2935 40.1252 52.3365 42.7829 52.3365 46.3594C52.3365 49.9359 49.2935 53.0382 45.717 53.0382C42.1405 53.0382 39.2061 50.1335 39.2358 46.557C39.2753 42.9509 42.1899 40.0363 45.717 40.0758V40.0857Z" fill="#E8BAA9"/>
<path opacity="0.33" d="M45.7269 40.0952C49.3034 40.1348 52.3464 42.7924 52.3464 46.369C52.3464 49.9455 49.3034 53.0477 45.7269 53.0477C42.1504 53.0477 39.2161 50.1431 39.2457 46.5665C39.2853 42.9604 42.1998 40.0458 45.7269 40.0854V40.0952Z" fill="#E9BCAC"/>
<path opacity="0.32" d="M45.7269 40.0951C49.3034 40.1346 52.3366 42.8021 52.3366 46.3787C52.3366 49.9552 49.3034 53.0476 45.7269 53.0476C42.1504 53.0476 39.2161 50.1429 39.2457 46.5664C39.2853 42.9602 42.1998 40.0555 45.7269 40.0852V40.0951Z" fill="#E9BEAE"/>
<path opacity="0.31" d="M45.7365 40.1056C49.313 40.1451 52.3462 42.8127 52.3462 46.399C52.3462 49.9854 49.313 53.0679 45.7365 53.0679C42.16 53.0679 39.2257 50.1633 39.2553 46.5868C39.285 42.9806 42.2094 40.0759 45.7365 40.1056Z" fill="#EAC0B0"/>
<path opacity="0.3" d="M45.7365 40.1154C49.313 40.155 52.3462 42.8324 52.3462 46.4089C52.3462 49.9854 49.3229 53.0679 45.7365 53.0679C42.1502 53.0679 39.2257 50.1633 39.2554 46.5868C39.285 42.9806 42.1996 40.0759 45.7365 40.1056V40.1154Z" fill="#EBC2B3"/>
<path opacity="0.29" d="M45.7473 40.1255C49.3238 40.165 52.347 42.8523 52.347 46.4288C52.347 50.0053 49.3238 53.0878 45.7473 53.0878C42.1708 53.0878 39.2365 50.1832 39.2661 46.6067C39.2957 43.0005 42.2103 40.0958 45.7473 40.1255Z" fill="#EBC4B5"/>
<path opacity="0.28" d="M45.7573 40.1353C49.3338 40.1749 52.357 42.8622 52.357 46.4387C52.357 50.0152 49.3338 53.0878 45.7573 53.0878C42.1808 53.0878 39.2464 50.1832 39.2761 46.6067C39.3057 43.0104 42.2203 40.0958 45.7573 40.1255V40.1353Z" fill="#ECC6B7"/>
<path opacity="0.27" d="M45.7573 40.1443C49.3338 40.1739 52.3471 42.881 52.3471 46.4575C52.3471 50.034 49.3338 53.0968 45.7573 53.0968C42.1808 53.0968 39.2464 50.1921 39.2761 46.6156C39.3057 43.0193 42.2203 40.1047 45.7573 40.1344V40.1443Z" fill="#ECC7B9"/>
<path opacity="0.26" d="M45.7676 40.1443C49.3441 40.1739 52.3575 42.881 52.3575 46.4575C52.3575 50.034 49.3441 53.0968 45.7676 53.0968C42.1911 53.0968 39.2568 50.1921 39.2864 46.6156C39.3161 43.0193 42.2306 40.1047 45.7676 40.1344V40.1443Z" fill="#EDC9BC"/>
<path opacity="0.25" d="M45.7675 40.153C49.344 40.1827 52.3574 42.8996 52.3574 46.4762C52.3574 50.0527 49.344 53.1055 45.7675 53.1055C42.191 53.1055 39.2665 50.2009 39.2863 46.6244C39.3159 43.0281 42.2305 40.1135 45.7675 40.1432V40.153Z" fill="#EECBBE"/>
<path opacity="0.25" d="M45.7767 40.1638C49.3532 40.1934 52.3567 42.9104 52.3567 46.4869C52.3567 50.0634 49.3532 53.1163 45.7767 53.1163C42.2002 53.1163 39.2757 50.2116 39.2955 46.6351C39.3251 43.0388 42.2298 40.1243 45.7767 40.1539V40.1638Z" fill="#EECDC0"/>
<path opacity="0.24" d="M45.7763 40.1737C49.3528 40.2033 52.3563 42.9302 52.3563 46.5067C52.3563 50.0832 49.3528 53.1262 45.7763 53.1262C42.1998 53.1262 39.2754 50.2215 39.2951 46.645C39.3248 43.0487 42.2294 40.144 45.7763 40.1638V40.1737Z" fill="#EFCFC3"/>
<path opacity="0.23" d="M45.7863 40.1833C49.3628 40.213 52.3564 42.9497 52.3564 46.5262C52.3564 50.1027 49.3628 53.1457 45.7863 53.1457C42.2098 53.1457 39.2853 50.241 39.3051 46.6645C39.3347 43.0682 42.2394 40.1636 45.7863 40.1833Z" fill="#F0D1C5"/>
<path opacity="0.22" d="M45.7951 40.1932C49.3716 40.2228 52.3652 42.9596 52.3652 46.5361C52.3652 50.1126 49.3716 53.1457 45.7951 53.1457C42.2186 53.1457 39.2942 50.241 39.3139 46.6645C39.3337 43.0682 42.2482 40.1636 45.7951 40.1833V40.1932Z" fill="#F0D2C7"/>
<path opacity="0.21" d="M45.7951 40.193C49.3716 40.2226 52.3652 42.9692 52.3652 46.5457C52.3652 50.1222 49.3716 53.1553 45.7951 53.1553C42.2186 53.1553 39.2942 50.2507 39.3139 46.6742C39.3337 43.0779 42.2482 40.1732 45.7951 40.193Z" fill="#F1D4CA"/>
<path opacity="0.2" d="M45.8055 40.2028C49.382 40.2325 52.3657 42.9791 52.3657 46.5556C52.3657 50.1321 49.382 53.1553 45.8055 53.1553C42.229 53.1553 39.3045 50.2507 39.3243 46.6742C39.344 43.0779 42.2586 40.1732 45.8055 40.193V40.2028Z" fill="#F1D6CC"/>
<path opacity="0.19" d="M45.8053 40.2127C49.3818 40.2325 52.3656 42.9989 52.3656 46.5754C52.3656 50.1519 49.3818 53.1652 45.8053 53.1652C42.2288 53.1652 39.3044 50.2606 39.3241 46.684C39.3439 43.0878 42.2585 40.1831 45.8053 40.2029V40.2127Z" fill="#F2D8CE"/>
<path opacity="0.18" d="M45.8153 40.2224C49.3918 40.2421 52.3656 43.0085 52.3656 46.585C52.3656 50.1615 49.3918 53.1749 45.8153 53.1749C42.2388 53.1749 39.3144 50.2702 39.3341 46.6937C39.3539 43.0974 42.2586 40.1927 45.8153 40.2125V40.2224Z" fill="#F3DAD1"/>
<path opacity="0.17" d="M45.8152 40.2319C49.3917 40.2517 52.3656 43.0279 52.3656 46.6044C52.3656 50.1809 49.3917 53.1844 45.8152 53.1844C42.2387 53.1844 39.3143 50.2797 39.334 46.7032C39.3538 43.1069 42.2585 40.2023 45.8152 40.222V40.2319Z" fill="#F3DCD3"/>
<path opacity="0.16" d="M45.824 40.2418C49.4005 40.2616 52.3743 43.0378 52.3743 46.6242C52.3743 50.2106 49.4005 53.2042 45.824 53.2042C42.2474 53.2042 39.3329 50.2995 39.3428 46.723C39.3625 43.1366 42.2672 40.222 45.824 40.2418Z" fill="#F4DED5"/>
<path opacity="0.15" d="M45.824 40.2426C49.4005 40.2623 52.3644 43.0484 52.3644 46.625C52.3644 50.2015 49.4005 53.1951 45.824 53.1951C42.2474 53.1951 39.3329 50.2904 39.3428 46.7139C39.3625 43.1275 42.2672 40.2228 45.824 40.2327V40.2426Z" fill="#F4DFD8"/>
<path opacity="0.15" d="M45.8347 40.2517C49.4112 40.2715 52.3752 43.0675 52.3752 46.644C52.3752 50.2205 49.4112 53.2141 45.8347 53.2141C42.2582 53.2141 39.3436 50.3094 39.3535 46.7329C39.3733 43.1465 42.2779 40.2419 45.8347 40.2517Z" fill="#F5E1DA"/>
<path opacity="0.14" d="M45.8447 40.2616C49.4212 40.2814 52.3851 43.0774 52.3851 46.6539C52.3851 50.2304 49.4311 53.2141 45.8447 53.2141C42.2583 53.2141 39.3536 50.3094 39.3635 46.7329C39.3832 43.1465 42.2879 40.2419 45.8447 40.2517V40.2616Z" fill="#F6E3DC"/>
<path opacity="0.13" d="M45.8447 40.272C49.4212 40.2917 52.3753 43.0976 52.3753 46.6741C52.3753 50.2507 49.4212 53.2245 45.8447 53.2245C42.2682 53.2245 39.3536 50.3198 39.3635 46.7433C39.3734 43.1569 42.2879 40.2522 45.8447 40.2621V40.272Z" fill="#F6E5DF"/>
<path opacity="0.12" d="M45.855 40.2815C49.4315 40.2914 52.3856 43.1072 52.3856 46.6837C52.3856 50.2602 49.4315 53.234 45.855 53.234C42.2785 53.234 39.364 50.3293 39.3738 46.7528C39.3837 43.1664 42.2884 40.2618 45.855 40.2716V40.2815Z" fill="#F7E7E1"/>
<path opacity="0.11" d="M45.855 40.2919C49.4315 40.3018 52.3757 43.1274 52.3757 46.7039C52.3757 50.2804 49.4315 53.2444 45.855 53.2444C42.2785 53.2444 39.364 50.3397 39.3738 46.7632C39.3837 43.1768 42.2884 40.2721 45.855 40.282V40.2919Z" fill="#F8E9E3"/>
<path opacity="0.1" d="M45.865 40.3015C49.4415 40.3114 52.3857 43.1371 52.3857 46.7136C52.3857 50.2901 49.4415 53.254 45.865 53.254C42.2885 53.254 39.3739 50.3493 39.3838 46.7728C39.3937 43.1865 42.2984 40.2818 45.865 40.2917V40.3015Z" fill="#F8EBE6"/>
<path opacity="0.09" d="M45.865 40.3015C49.4415 40.3114 52.3857 43.1469 52.3857 46.7234C52.3857 50.3 49.4514 53.254 45.865 53.254C42.2786 53.254 39.3739 50.3493 39.3838 46.7728C39.3937 43.1865 42.2984 40.2818 45.865 40.2917V40.3015Z" fill="#F9ECE8"/>
<path opacity="0.08" d="M45.8746 40.3104C49.4511 40.3203 52.3854 43.1559 52.3854 46.7422C52.3854 50.3286 49.4511 53.2728 45.8746 53.2728C42.2981 53.2728 39.3934 50.3681 39.3934 46.7916C39.3934 43.2053 42.3079 40.3006 45.8746 40.3104Z" fill="#F9EEEA"/>
<path opacity="0.07" d="M45.8746 40.3214C49.4511 40.3214 52.3854 43.1767 52.3854 46.7532C52.3854 50.3297 49.4511 53.2739 45.8746 53.2739C42.2981 53.2739 39.3934 50.3692 39.3934 46.7927C39.3934 43.2063 42.3079 40.3115 45.8746 40.3115V40.3214Z" fill="#FAF0EC"/>
<path opacity="0.06" d="M45.8826 40.3315C49.4591 40.3315 52.3836 43.1967 52.3836 46.7732C52.3836 50.3497 49.4591 53.2939 45.8826 53.2939C42.3061 53.2939 39.4014 50.3892 39.4014 46.8127C39.4014 43.2263 42.316 40.3315 45.8826 40.3315Z" fill="#FBF2EF"/>
<path opacity="0.05" d="M45.8934 40.3414C49.4699 40.3414 52.3943 43.2066 52.3943 46.7831C52.3943 50.3596 49.4699 53.2939 45.8934 53.2939C42.3169 53.2939 39.4122 50.3892 39.4122 46.8127C39.4122 43.2263 42.3169 40.3315 45.8934 40.3315V40.3414Z" fill="#FBF4F1"/>
<path opacity="0.05" d="M45.8934 40.3509C49.4699 40.3509 52.3943 43.226 52.3943 46.8025C52.3943 50.379 49.4798 53.3034 45.8934 53.3034C42.307 53.3034 39.4122 50.3988 39.4122 46.8223C39.4122 43.2457 42.3169 40.3411 45.8934 40.3411V40.3509Z" fill="#FCF6F3"/>
<path opacity="0.04" d="M45.9033 40.3509C49.4798 40.3509 52.3944 43.226 52.3944 46.8025C52.3944 50.379 49.4798 53.3034 45.9033 53.3034C42.3268 53.3034 39.4221 50.3988 39.4221 46.8223C39.4221 43.2457 42.3268 40.3411 45.9033 40.3411V40.3509Z" fill="#FDF8F6"/>
<path opacity="0.03" d="M45.9033 40.3606C49.4798 40.3606 52.3944 43.2455 52.3944 46.822C52.3944 50.3985 49.4798 53.3131 45.9033 53.3131C42.3268 53.3131 39.4221 50.4084 39.4221 46.8319C39.4221 43.2554 42.3268 40.3507 45.9033 40.3507V40.3606Z" fill="#FDF9F8"/>
<path opacity="0.02" d="M45.9137 40.3713C49.4902 40.3713 52.3948 43.2563 52.3948 46.8328C52.3948 50.4093 49.4902 53.3238 45.9137 53.3238C42.3371 53.3238 39.4325 50.4191 39.4325 46.8426C39.4325 43.2661 42.3371 40.3615 45.9137 40.3615V40.3713Z" fill="#FEFBFA"/>
</g>
</g>
<mask id="mask1_21_235" style="mask-type:luminance" maskUnits="userSpaceOnUse" x="0" y="0" width="90" height="90">
<path d="M87.0359 0H2.9641C1.32397 0 0 1.32397 0 2.9641V87.0359C0 88.676 1.32397 90 2.9641 90H87.0359C88.676 90 90 88.676 90 87.0359V2.9641C90 1.32397 88.676 0 87.0359 0ZM2.9641 89.012C1.87726 89.012 0.988034 88.1227 0.988034 87.0359V2.9641C0.988034 1.87726 1.87726 0.988034 2.9641 0.988034H41.5567C65.8623 0.988034 85.5736 20.6894 85.5736 45.0049C85.5736 69.3106 65.8722 89.0218 41.5567 89.0218H2.9641V89.012Z" fill="white"/>
</mask>
<g mask="url(#mask1_21_235)">
<mask id="mask2_21_235" style="mask-type:luminance" maskUnits="userSpaceOnUse" x="-64" y="-39" width="168" height="168">
<path d="M19.6919 128.484C65.7961 128.484 103.171 91.1089 103.171 45.0047C103.171 -1.09943 65.7961 -38.4742 19.6919 -38.4742C-26.4123 -38.4742 -63.7871 -1.09943 -63.7871 45.0047C-63.7871 91.1089 -26.4123 128.484 19.6919 128.484Z" fill="white"/>
</mask>
<g mask="url(#mask2_21_235)">
<path d="M50.2551 -69.0403L-94.3433 14.4436L-10.8594 159.042L133.739 75.5581L50.2551 -69.0403Z" fill="#E04E15"/>
<path d="M51.9849 -66.0298L-92.6135 17.4541L-9.12961 162.052L135.469 78.5686L51.9849 -66.0298Z" fill="#E04F15"/>
<path d="M53.723 -63.015L-90.8754 20.4689L-7.39145 165.067L137.207 81.5833L53.723 -63.015Z" fill="#E15015"/>
<path d="M55.4562 -60.0089L-89.1422 23.475L-5.65829 168.073L138.94 84.5894L55.4562 -60.0089Z" fill="#E15115"/>
<path d="M57.2039 -56.9942L-87.3945 26.4897L-3.91055 171.088L140.688 87.6042L57.2039 -56.9942Z" fill="#E25215"/>
<path d="M58.9421 -53.9793L-85.6562 29.5046L-2.17233 174.103L142.426 90.6191L58.9421 -53.9793Z" fill="#E25316"/>
<path d="M60.6753 -50.9822L-83.9231 32.5017L-0.439178 177.1L144.159 93.6162L60.6753 -50.9822Z" fill="#E35416"/>
<path d="M62.4138 -47.968L-82.1846 35.5159L1.29935 180.114L145.898 96.6303L62.4138 -47.968Z" fill="#E35516"/>
<path d="M64.1616 -44.9536L-80.4368 38.5303L3.04709 183.129L147.645 99.6447L64.1616 -44.9536Z" fill="#E35616"/>
<path d="M65.8948 -41.9475L-78.7036 41.5364L4.7803 186.135L149.379 102.651L65.8948 -41.9475Z" fill="#E45716"/>
<path d="M67.6333 -38.9417L-76.9651 44.5422L6.51883 189.141L151.117 105.657L67.6333 -38.9417Z" fill="#E45716"/>
<path d="M69.363 -35.9217L-75.2354 47.5623L8.24857 192.161L152.847 108.677L69.363 -35.9217Z" fill="#E55816"/>
<path d="M71.0973 -32.9158L-73.5011 50.5681L9.98282 195.166L154.581 111.683L71.0973 -32.9158Z" fill="#E55916"/>
<path d="M72.8455 -29.9009L-71.7529 53.583L11.731 198.181L156.329 114.697L72.8455 -29.9009Z" fill="#E55A16"/>
<path d="M74.5825 -26.896L-70.0159 56.5879L13.468 201.186L158.066 117.702L74.5825 -26.896Z" fill="#E65B16"/>
<path d="M76.316 -23.8892L-68.2823 59.5947L15.2016 204.193L159.8 120.709L76.316 -23.8892Z" fill="#E65C17"/>
<path d="M78.0534 -20.8744L-66.545 62.6095L16.9389 207.208L161.537 123.724L78.0534 -20.8744Z" fill="#E75D17"/>
<path d="M79.8023 -17.8603L-64.7961 65.6237L18.6878 210.222L163.286 126.738L79.8023 -17.8603Z" fill="#E75E17"/>
<path d="M81.5355 -14.8636L-63.0629 68.6204L20.4211 213.219L165.019 129.735L81.5355 -14.8636Z" fill="#E85F17"/>
<path d="M83.2729 -11.8487L-61.3254 71.6353L22.1585 216.234L166.757 132.75L83.2729 -11.8487Z" fill="#E86017"/>
<path d="M83.9438 -10.6814L-60.6545 72.8025L22.8294 217.401L167.428 133.917L83.9438 -10.6814Z" fill="#E86117"/>
<path d="M84.6206 -9.52176L-59.9778 73.9622L23.5061 218.561L168.105 135.077L84.6206 -9.52176Z" fill="#E96217"/>
<path d="M85.2915 -8.35391L-59.3069 75.13L24.177 219.728L168.775 136.244L85.2915 -8.35391Z" fill="#E96317"/>
<path d="M85.9617 -7.19583L-58.6367 76.2881L24.8472 220.886L169.446 137.403L85.9617 -7.19583Z" fill="#E96418"/>
<path d="M86.6327 -6.02811L-57.9657 77.4558L25.5182 222.054L170.117 138.57L86.6327 -6.02811Z" fill="#E96518"/>
<path d="M87.3032 -4.86075L-57.2952 78.6232L26.1888 223.222L170.787 139.738L87.3032 -4.86075Z" fill="#EA6618"/>
<path d="M87.9783 -3.70145L-56.6201 79.7825L26.8639 224.381L171.462 140.897L87.9783 -3.70145Z" fill="#EA6718"/>
<path d="M88.6489 -2.54251L-55.9495 80.9414L27.5345 225.54L172.133 142.056L88.6489 -2.54251Z" fill="#EA6818"/>
<path d="M89.3195 -1.37564L-55.2789 82.1083L28.205 226.707L172.803 143.223L89.3195 -1.37564Z" fill="#EA6918"/>
<path d="M89.9919 -0.208282L-54.6064 83.2756L28.8775 227.874L173.476 144.39L89.9919 -0.208282Z" fill="#EB6A18"/>
<path d="M90.6667 0.951385L-53.9316 84.4353L29.5523 229.034L174.151 145.55L90.6667 0.951385Z" fill="#EB6B19"/>
<path d="M91.3381 2.11838L-53.2603 85.6023L30.2236 230.201L174.822 146.717L91.3381 2.11838Z" fill="#EB6C19"/>
<path d="M92.0082 3.27805L-52.5901 86.762L30.8938 231.36L175.492 147.876L92.0082 3.27805Z" fill="#EB6D19"/>
<path d="M92.6791 4.44492L-51.9193 87.9288L31.5647 232.527L176.163 149.043L92.6791 4.44492Z" fill="#EC6E19"/>
<path d="M93.3494 5.6124L-51.249 89.0963L32.2349 233.695L176.833 150.211L93.3494 5.6124Z" fill="#EC6F19"/>
<path d="M94.0256 6.77158L-50.5728 90.2555L32.9112 234.854L177.51 151.37L94.0256 6.77158Z" fill="#EC7019"/>
<path d="M94.6958 7.93906L-49.9026 91.423L33.5813 236.021L178.18 152.537L94.6958 7.93906Z" fill="#EC7119"/>
<path d="M95.3672 9.0975L-49.2312 92.5814L34.2527 237.18L178.851 153.696L95.3672 9.0975Z" fill="#ED7219"/>
<path d="M96.0381 10.2651L-48.5603 93.749L34.9236 238.347L179.522 154.863L96.0381 10.2651Z" fill="#ED731A"/>
<path d="M96.7136 11.4245L-47.8848 94.9084L35.5992 239.507L180.198 156.023L96.7136 11.4245Z" fill="#ED741A"/>
<path d="M97.3831 12.5918L-47.2153 96.0757L36.2686 240.674L180.867 157.19L97.3831 12.5918Z" fill="#ED751A"/>
<path d="M98.0559 13.7496L-46.5425 97.2335L36.9414 241.832L181.54 158.348L98.0559 13.7496Z" fill="#EE761A"/>
<path d="M98.7264 14.917L-45.8719 98.4009L37.612 242.999L182.21 159.515L98.7264 14.917Z" fill="#EE771A"/>
<path d="M99.3967 16.0859L-45.2017 99.5698L38.2823 244.168L182.881 160.684L99.3967 16.0859Z" fill="#EE781A"/>
<path d="M100.071 17.2447L-44.5269 100.729L38.957 245.327L183.555 161.843L100.071 17.2447Z" fill="#EF791A"/>
<path d="M100.743 18.412L-43.8557 101.896L39.6283 246.494L184.227 163.01L100.743 18.412Z" fill="#EF7A1B"/>
<path d="M101.413 19.5698L-43.185 103.054L40.2989 247.652L184.897 164.168L101.413 19.5698Z" fill="#EF7B1B"/>
<path d="M102.083 20.7372L-42.5149 104.221L40.969 248.819L185.567 165.336L102.083 20.7372Z" fill="#EF7C1B"/>
<path d="M102.76 21.8977L-41.8382 105.382L41.6457 249.98L186.244 166.496L102.76 21.8977Z" fill="#F07D1B"/>
<path d="M103.431 23.0649L-41.1672 106.549L42.3167 251.147L186.915 167.663L103.431 23.0649Z" fill="#F07E1B"/>
<path d="M104.102 24.223L-40.4963 107.707L42.9876 252.305L187.586 168.821L104.102 24.223Z" fill="#F07F1B"/>
<path d="M104.772 25.3916L-39.8261 108.875L43.6578 253.474L188.256 169.99L104.772 25.3916Z" fill="#F0801B"/>
<path d="M105.443 26.5588L-39.1555 110.043L44.3284 254.641L188.927 171.157L105.443 26.5588Z" fill="#F1801C"/>
<path d="M106.12 27.7182L-38.4785 111.202L45.0055 255.801L189.604 172.317L106.12 27.7182Z" fill="#F1811C"/>
<path d="M106.791 28.8855L-37.8076 112.369L45.6764 256.968L190.275 173.484L106.791 28.8855Z" fill="#F1821C"/>
<path d="M107.462 30.0432L-37.1365 113.527L46.3474 258.125L190.946 174.642L107.462 30.0432Z" fill="#F1831C"/>
<path d="M108.132 31.2119L-36.4668 114.696L47.0171 259.294L191.616 175.81L108.132 31.2119Z" fill="#F2841C"/>
<path d="M108.803 32.3794L-35.7955 115.863L47.6884 260.462L192.287 176.978L108.803 32.3794Z" fill="#F2851C"/>
<path d="M109.478 33.5381L-35.1204 117.022L48.3636 261.62L192.962 178.136L109.478 33.5381Z" fill="#F2861C"/>
<path d="M110.148 34.6965L-34.4505 118.18L49.0334 262.779L193.632 179.295L110.148 34.6965Z" fill="#F2871D"/>
<path d="M110.819 35.864L-33.7792 119.348L49.7047 263.946L194.303 180.462L110.819 35.864Z" fill="#F3881D"/>
<path d="M111.49 37.032L-33.1086 120.516L50.3753 265.114L194.974 181.63L111.49 37.032Z" fill="#F3891D"/>
<path d="M112.166 38.1911L-32.4323 121.675L51.0516 266.273L195.65 182.79L112.166 38.1911Z" fill="#F38A1D"/>
<path d="M112.837 39.3586L-31.761 122.843L51.7229 267.441L196.321 183.957L112.837 39.3586Z" fill="#F48B1D"/>
<path d="M113.507 40.5168L-31.0912 124.001L52.3927 268.599L196.991 185.115L113.507 40.5168Z" fill="#F48C1D"/>
<path d="M114.179 41.6845L-30.4199 125.168L53.0641 269.767L197.662 186.283L114.179 41.6845Z" fill="#F48D1D"/>
<path d="M114.849 42.8515L-29.7493 126.335L53.7346 270.934L198.333 187.45L114.849 42.8515Z" fill="#F48E1E"/>
<path d="M115.525 44.011L-29.073 127.495L54.4109 272.093L199.009 188.609L115.525 44.011Z" fill="#F58F1E"/>
<path d="M116.196 45.1689L-28.402 128.653L55.0819 273.251L199.68 189.767L116.196 45.1689Z" fill="#F5901E"/>
<path d="M116.867 46.3366L-27.7315 129.821L55.7524 274.419L200.351 190.935L116.867 46.3366Z" fill="#F5911E"/>
<path d="M117.538 47.5044L-27.0605 130.988L56.4234 275.587L201.022 192.103L117.538 47.5044Z" fill="#F5921E"/>
<path d="M118.213 48.664L-26.3853 132.148L57.0986 276.746L201.697 193.262L118.213 48.664Z" fill="#F6931E"/>
<path d="M118.883 49.8315L-25.7156 133.315L57.7683 277.914L202.367 194.43L118.883 49.8315Z" fill="#F6941E"/>
<path d="M119.553 50.989L-25.045 134.473L58.4389 279.071L203.037 195.587L119.553 50.989Z" fill="#F6951E"/>
<path d="M120.226 52.1567L-24.3725 135.641L59.1114 280.239L203.71 196.755L120.226 52.1567Z" fill="#F6961F"/>
<path d="M120.894 53.3249L-23.7039 136.809L59.78 281.407L204.378 197.923L120.894 53.3249Z" fill="#F7971F"/>
<path d="M121.572 54.4841L-23.0269 137.968L60.4571 282.566L205.055 199.082L121.572 54.4841Z" fill="#F7981F"/>
<path d="M122.242 55.6421L-22.3562 139.126L61.1277 283.724L205.726 200.24L122.242 55.6421Z" fill="#F7991F"/>
<path d="M122.913 56.8093L-21.6853 140.293L61.7986 284.892L206.397 201.408L122.913 56.8093Z" fill="#F79A1F"/>
<path d="M123.583 57.977L-21.0156 141.461L62.4684 286.059L207.067 202.575L123.583 57.977Z" fill="#F89B1F"/>
<path d="M124.261 59.1364L-20.3372 142.62L63.1467 287.219L207.745 203.735L124.261 59.1364Z" fill="#F89C1F"/>
<path d="M124.931 60.3044L-19.6675 143.788L63.8165 288.387L208.415 204.903L124.931 60.3044Z" fill="#F89D20"/>
<path d="M125.602 61.4626L-18.9966 144.947L64.4873 289.545L209.086 206.061L125.602 61.4626Z" fill="#F89E20"/>
<path d="M126.272 62.6299L-18.3267 146.114L65.1572 290.712L209.756 207.228L126.272 62.6299Z" fill="#F99F20"/>
<path d="M126.943 63.7976L-17.6554 147.281L65.8285 291.88L210.427 208.396L126.943 63.7976Z" fill="#F9A020"/>
</g>
</g>
<defs>
<linearGradient id="paint0_linear_21_235" x1="47.8321" y1="50.0537" x2="43.3565" y2="43.0292" gradientUnits="userSpaceOnUse">
<stop stop-color="#FF9200"/>
<stop offset="0.21" stop-color="#FF8D00"/>
<stop offset="0.45" stop-color="#FF7F00"/>
<stop offset="0.62" stop-color="#FF7100"/>
<stop offset="0.82" stop-color="#FF5E00"/>
<stop offset="1" stop-color="#FF5200"/>
</linearGradient>
<linearGradient id="paint1_linear_21_235" x1="47.1306" y1="49.9549" x2="40.5704" y2="37.1506" gradientUnits="userSpaceOnUse">
<stop stop-color="#FF7100" stop-opacity="0"/>
<stop offset="0.03" stop-color="#FF6D00" stop-opacity="0.03"/>
<stop offset="0.21" stop-color="#FF5900" stop-opacity="0.25"/>
<stop offset="0.39" stop-color="#FF4800" stop-opacity="0.42"/>
<stop offset="0.56" stop-color="#FF3B00" stop-opacity="0.56"/>
<stop offset="0.72" stop-color="#FF3200" stop-opacity="0.66"/>
<stop offset="0.86" stop-color="#FF2C00" stop-opacity="0.72"/>
<stop offset="0.98" stop-color="#FF2B00" stop-opacity="0.74"/>
</linearGradient>
</defs>
</svg>
