<svg width="20" height="20" viewBox="0 0 20 20" fill="none" xmlns="http://www.w3.org/2000/svg">
<path d="M10.0003 18.4578C14.6027 18.4578 18.3337 14.7269 18.3337 10.1245C18.3337 5.52213 14.6027 1.79117 10.0003 1.79117C5.39795 1.79117 1.66699 5.52213 1.66699 10.1245C1.66699 14.7269 5.39795 18.4578 10.0003 18.4578Z" fill="#FF4500"/>
<path d="M15.5575 10.1243C15.5327 9.45317 14.9692 8.9291 14.296 8.95189C13.9977 8.96224 13.714 9.08446 13.4985 9.28953C12.5498 8.64325 11.4354 8.28903 10.2899 8.26417L10.8305 5.66454L12.614 6.03947C12.6638 6.49725 13.0739 6.82868 13.5317 6.77896C13.9895 6.72925 14.3209 6.31911 14.2712 5.86132C14.2215 5.40354 13.8113 5.07211 13.3535 5.12183C13.0905 5.14876 12.8543 5.30204 12.7238 5.5299L10.6814 5.12183C10.5426 5.09076 10.4038 5.17776 10.3728 5.31861C10.3728 5.32068 10.3728 5.32068 10.3728 5.32275L9.75754 8.21446C8.59755 8.2331 7.46862 8.58939 6.50748 9.23981C6.01863 8.77996 5.24806 8.80274 4.7882 9.29367C4.32835 9.78253 4.35113 10.5531 4.84206 11.013C4.93734 11.102 5.04713 11.1787 5.16934 11.2325C5.16106 11.3547 5.16106 11.477 5.16934 11.5992C5.16934 13.4655 7.34434 14.9839 10.0268 14.9839C12.7093 14.9839 14.8843 13.4676 14.8843 11.5992C14.8926 11.477 14.8926 11.3547 14.8843 11.2325C15.3027 11.0233 15.5658 10.5925 15.5575 10.1243ZM7.2242 10.9591C7.2242 10.4992 7.59912 10.1243 8.05898 10.1243C8.51883 10.1243 8.89376 10.4992 8.89376 10.9591C8.89376 11.419 8.51883 11.7939 8.05898 11.7939C7.59705 11.7897 7.2242 11.419 7.2242 10.9591ZM12.0651 13.2501C11.4727 13.6954 10.7477 13.9233 10.0061 13.8922C9.26455 13.9233 8.53955 13.6954 7.94712 13.2501C7.86841 13.1548 7.88291 13.0119 7.97819 12.9332C8.06105 12.8648 8.17912 12.8648 8.26405 12.9332C8.76533 13.2998 9.3764 13.4862 9.99783 13.4572C10.6193 13.4904 11.2324 13.3122 11.7399 12.9497C11.831 12.8607 11.9802 12.8627 12.0693 12.9539C12.1583 13.045 12.1563 13.1942 12.0651 13.2832V13.2501ZM11.916 11.8229C11.4561 11.8229 11.0812 11.448 11.0812 10.9881C11.0812 10.5282 11.4561 10.1533 11.916 10.1533C12.3758 10.1533 12.7508 10.5282 12.7508 10.9881C12.7694 11.448 12.411 11.8353 11.9512 11.854C11.9367 11.854 11.9243 11.854 11.9098 11.854L11.916 11.8229Z" fill="white"/>
</svg>
