<svg width="40" height="24" viewBox="0 0 40 24" fill="none" xmlns="http://www.w3.org/2000/svg">
<rect width="40" height="24" rx="2" fill="#FFFFFF"/>
<rect x="5" y="4" width="9" height="16" rx="2" fill="url(#jcb_gradient_1)"/>
<rect x="15.5" y="4" width="9" height="16" rx="2" fill="url(#jcb_gradient_2)"/>
<rect x="26" y="4" width="9" height="16" rx="2" fill="url(#jcb_gradient_3)"/>
<path d="M8.5 11.5V14C8.5 14.828 9.172 15.5 10 15.5H11.5V14H10.25C10.112 14 10 13.888 10 13.75V11.5H8.5Z" fill="white"/>
<path d="M19 10.5H21.5C22.328 10.5 23 11.172 23 12V12.25C23 12.664 22.664 13 22.25 13C22.664 13 23 13.336 23 13.75V14C23 14.828 22.328 15.5 21.5 15.5H19V10.5ZM20.5 12.5H21.25C21.388 12.5 21.5 12.388 21.5 12.25C21.5 12.112 21.388 12 21.25 12H20.5V12.5ZM20.5 14H21.25C21.388 14 21.5 13.888 21.5 13.75C21.5 13.612 21.388 13.5 21.25 13.5H20.5V14Z" fill="white"/>
<path d="M29.5 12.5C29.5 11.395 30.395 10.5 31.5 10.5H33V12H31.75C31.612 12 31.5 12.112 31.5 12.25V13.75C31.5 13.888 31.612 14 31.75 14H33V15.5H31.5C30.395 15.5 29.5 14.605 29.5 13.5V12.5Z" fill="white"/>
<defs>
<linearGradient id="jcb_gradient_1" x1="9.5" y1="4" x2="9.5" y2="20" gradientUnits="userSpaceOnUse">
<stop stop-color="#007B40"/>
<stop offset="1" stop-color="#55B330"/>
</linearGradient>
<linearGradient id="jcb_gradient_2" x1="20" y1="4" x2="20" y2="20" gradientUnits="userSpaceOnUse">
<stop stop-color="#1D4C8E"/>
<stop offset="1" stop-color="#0F7AC2"/>
</linearGradient>
<linearGradient id="jcb_gradient_3" x1="30.5" y1="4" x2="30.5" y2="20" gradientUnits="userSpaceOnUse">
<stop stop-color="#B41F36"/>
<stop offset="1" stop-color="#E5001A"/>
</linearGradient>
</defs>
</svg>
