<svg width="20" height="20" viewBox="0 0 20 20" fill="none" xmlns="http://www.w3.org/2000/svg">
<g clip-path="url(#clip0_984_22466)">
<path d="M6.55819 3.14952C7.81596 1.87061 8.44485 1.23113 9.17005 0.99155C9.80792 0.780812 10.4951 0.780812 11.1329 0.99155C11.8581 1.23113 12.487 1.87061 13.7448 3.14952L16.8889 6.34649C18.1467 7.6254 18.7756 8.26485 19.0112 9.00221C19.2185 9.65083 19.2185 10.3495 19.0112 10.9981C18.7756 11.7355 18.1467 12.3749 16.8889 13.6538L13.7448 16.8508C12.487 18.1297 11.8581 18.7692 11.1329 19.0088C10.4951 19.2195 9.80792 19.2195 9.17005 19.0088C8.44485 18.7692 7.81596 18.1297 6.55819 16.8508L5.96707 16.177C5.60935 15.7692 5.43048 15.5653 5.30295 15.3334C5.18987 15.1277 5.10687 14.9064 5.05665 14.6763C5 14.417 5 14.1438 5 13.5973V6.40297C5 5.85654 5 5.58334 5.05662 5.32398C5.10687 5.09395 5.18984 4.87259 5.30295 4.66692C5.43048 4.43504 5.60932 4.23114 5.96707 3.82336L6.55819 3.14952Z" fill="url(#paint0_radial_984_22466)"/>
<path d="M6.55819 3.14952C7.81596 1.87061 8.44485 1.23113 9.17005 0.99155C9.80792 0.780812 10.4951 0.780812 11.1329 0.99155C11.8581 1.23113 12.487 1.87061 13.7448 3.14952L16.8889 6.34649C18.1467 7.6254 18.7756 8.26485 19.0112 9.00221C19.2185 9.65083 19.2185 10.3495 19.0112 10.9981C18.7756 11.7355 18.1467 12.3749 16.8889 13.6538L13.7448 16.8508C12.487 18.1297 11.8581 18.7692 11.1329 19.0088C10.4951 19.2195 9.80792 19.2195 9.17005 19.0088C8.44485 18.7692 7.81596 18.1297 6.55819 16.8508L5.96707 16.177C5.60935 15.7692 5.43048 15.5653 5.30295 15.3334C5.18987 15.1277 5.10687 14.9064 5.05665 14.6763C5 14.417 5 14.1438 5 13.5973V6.40297C5 5.85654 5 5.58334 5.05662 5.32398C5.10687 5.09395 5.18984 4.87259 5.30295 4.66692C5.43048 4.43504 5.60932 4.23114 5.96707 3.82336L6.55819 3.14952Z" fill="url(#paint1_linear_984_22466)"/>
<path d="M6.15604 3.61628C6.80014 2.99987 7.12219 2.69166 7.49356 2.57618C7.82022 2.47461 8.17209 2.47461 8.49877 2.57618C8.87012 2.69166 9.19217 2.99987 9.83629 3.61628L14.6666 8.23897C15.3107 8.85538 15.6327 9.16359 15.7534 9.519C15.8595 9.83161 15.8595 10.1684 15.7534 10.481C15.6327 10.8364 15.3107 11.1446 14.6666 11.761L9.83627 16.3837C9.19217 17.0001 8.87012 17.3083 8.49877 17.4238C8.17209 17.5254 7.82022 17.5254 7.49356 17.4238C7.12219 17.3083 6.80014 17.0001 6.15604 16.3837L3.16585 13.522C1.87765 12.2892 1.23354 11.6728 0.992216 10.962C0.779938 10.3368 0.779939 9.66325 0.992216 9.038C1.23354 8.3272 1.87765 7.71079 3.16585 6.47796L6.15604 3.61628Z" fill="url(#paint2_radial_984_22466)"/>
</g>
<defs>
<radialGradient id="paint0_radial_984_22466" cx="0" cy="0" r="1" gradientUnits="userSpaceOnUse" gradientTransform="translate(6.57788 19.5241) rotate(-58.5684) scale(15.2338 23.6448)">
<stop stop-color="#FFD580"/>
<stop offset="0.09375" stop-color="#F6C592"/>
<stop offset="0.205" stop-color="#EBB6A2"/>
<stop offset="0.324466" stop-color="#DFA5AF"/>
<stop offset="0.42875" stop-color="#D397BE"/>
<stop offset="0.53375" stop-color="#C486CB"/>
<stop offset="0.64875" stop-color="#B578D9"/>
<stop offset="0.77125" stop-color="#A166E5"/>
<stop offset="0.89125" stop-color="#8B57F2"/>
<stop offset="1" stop-color="#704CFF"/>
</radialGradient>
<linearGradient id="paint1_linear_984_22466" x1="5.95688" y1="-2.80678" x2="9.57888" y2="18.9371" gradientUnits="userSpaceOnUse">
<stop stop-color="#6D4AFF"/>
<stop offset="0.392009" stop-color="#B39FFB" stop-opacity="0.978022"/>
<stop offset="1" stop-color="#FFE8DB" stop-opacity="0.8"/>
</linearGradient>
<radialGradient id="paint2_radial_984_22466" cx="0" cy="0" r="1" gradientUnits="userSpaceOnUse" gradientTransform="translate(5.05213 17.3846) rotate(-57.0028) scale(12.017 19.1462)">
<stop stop-color="#FFD580"/>
<stop offset="0.09375" stop-color="#F6C592"/>
<stop offset="0.205" stop-color="#EBB6A2"/>
<stop offset="0.324466" stop-color="#DFA5AF"/>
<stop offset="0.42875" stop-color="#D397BE"/>
<stop offset="0.53375" stop-color="#C486CB"/>
<stop offset="0.64875" stop-color="#B578D9"/>
<stop offset="0.77125" stop-color="#A166E5"/>
<stop offset="0.89125" stop-color="#8B57F2"/>
<stop offset="1" stop-color="#704CFF"/>
</radialGradient>
<clipPath id="clip0_984_22466">
<rect width="20" height="20" fill="white"/>
</clipPath>
</defs>
</svg>
