<svg width="19" height="18" viewBox="0 0 19 18" fill="none" xmlns="http://www.w3.org/2000/svg">
<path d="M3.92019 16.3875C4.02519 16.4925 4.16769 16.545 4.31019 16.545C4.46019 16.545 4.60269 16.485 4.71519 16.3725L5.96769 15.09C6.18519 14.865 6.18519 14.5125 5.96019 14.295C5.73519 14.085 5.38269 14.085 5.16519 14.31L3.91269 15.5925C3.69519 15.8175 3.69519 16.17 3.92019 16.3875Z" fill="#214CE8"/>
<path d="M9.30999 16.5449C9.31253 16.545 9.31393 16.545 9.31393 16.545H9.30518L9.30999 16.5449Z" fill="#214CE8"/>
<path fill-rule="evenodd" clip-rule="evenodd" d="M9.20761 16.5375C9.23378 16.544 9.29438 16.5449 9.30923 16.5449C9.45023 16.544 9.58358 16.4915 9.68761 16.395L11.8326 14.4C12.2526 14.0175 12.4926 13.4625 12.4926 12.8925V11.64C15.9426 9.7875 17.3301 6.81747 16.9926 2.06997C16.9776 1.79247 16.7526 1.57497 16.4751 1.55247C11.7276 1.20747 8.75761 2.60247 6.91259 6.04497H5.66009C5.08259 6.04497 4.53509 6.28497 4.14509 6.70497L2.15009 8.85C2.02259 8.9775 1.97009 9.1575 2.00759 9.3375C2.04509 9.5175 2.15759 9.6675 2.32259 9.7425C2.32259 9.7425 2.32702 9.7446 2.33297 9.74745C2.51954 9.8367 5.11266 11.0776 6.29009 12.255C7.46195 13.4342 8.71156 16.0331 8.79796 16.2129C8.80058 16.2184 8.80261 16.2225 8.80261 16.2225C8.88511 16.3875 9.03511 16.5 9.20761 16.5375ZM12.125 7.87493C12.9534 7.87493 13.625 7.20339 13.625 6.37496C13.625 5.54653 12.9534 4.87496 12.125 4.87496C11.2965 4.87496 10.625 5.54653 10.625 6.37496C10.625 7.20339 11.2965 7.87493 12.125 7.87493Z" fill="#214CE8"/>
<path d="M1.42263 15.5325C1.52763 15.6375 1.67013 15.69 1.81263 15.69C1.96263 15.69 2.10513 15.63 2.21763 15.5175L4.30263 13.3725C4.52013 13.1475 4.52013 12.795 4.29513 12.5775C4.07013 12.3675 3.71763 12.3675 3.50013 12.5925L1.41513 14.7375C1.19763 14.9625 1.19763 15.315 1.42263 15.5325Z" fill="#214CE8"/>
</svg>
