<svg width="40" height="24" viewBox="0 0 40 24" fill="none" xmlns="http://www.w3.org/2000/svg">
<rect width="40" height="24" rx="2" fill="#FFFFFF"/>
<path d="M8.5 3H15.5C16.052 3 16.5 3.448 16.5 4L13.5 20C13.5 20.552 13.052 21 12.5 21H5.5C4.948 21 4.5 20.552 4.5 20L7.5 4C7.5 3.448 7.948 3 8.5 3Z" fill="#E21836"/>
<path d="M15 3H22C22.552 3 23 3.448 23 4L20 20C20 20.552 19.552 21 19 21H12C11.448 21 11 20.552 11 20L14 4C14 3.448 14.448 3 15 3Z" fill="#00447C"/>
<path d="M21.5 3H28.5C29.052 3 29.5 3.448 29.5 4L26.5 20C26.5 20.552 26.052 21 25.5 21H18.5C17.948 21 17.5 20.552 17.5 20L20.5 4C20.5 3.448 20.948 3 21.5 3Z" fill="#007B84"/>
<path d="M28 3H35C35.552 3 36 3.448 36 4L33 20C33 20.552 32.552 21 32 21H25C24.448 21 24 20.552 24 20L27 4C27 3.448 27.448 3 28 3Z" fill="#1A4178"/>
<path d="M11 9H9L8 15H10L11 9Z" fill="white"/>
<path d="M13 9L11.5 15H13.5L14.5 11.5L14 15H16L17.5 9H15.5L14.5 12.5L15 9H13Z" fill="white"/>
<path d="M18 9L17 15H19L20 9H18Z" fill="white"/>
<path d="M23 9H20.5L19.5 15H22L22.25 13.5H23.25C24.5 13.5 25.5 12.5 25.5 11.25C25.5 10 24.5 9 23.25 9H23ZM22.5 12H23C23.414 12 23.75 11.664 23.75 11.25C23.75 10.836 23.414 10.5 23 10.5H22.75L22.5 12Z" fill="white"/>
<path d="M26 9L25 15H27L27.5 12.5L28.5 15H30.5L29 12L31 9H29L27.75 11.5L28 9H26Z" fill="white"/>
</svg>
