<svg width="71" height="70" viewBox="0 0 71 70" fill="none" xmlns="http://www.w3.org/2000/svg">
<path d="M19.092 9H35.342V25.25C35.342 27.7629 37.3791 29.8 39.892 29.8H56.142V56.45C56.142 58.9629 54.1049 61 51.592 61H36.3092C36.5247 60.39 36.642 59.7338 36.642 59.05V47.35C36.642 44.8797 35.1108 42.767 32.9456 41.9092C31.5743 37.1674 27.2006 33.7 22.017 33.7C19.1556 33.7 16.541 34.7564 14.542 36.5007V13.55C14.542 11.0371 16.5791 9 19.092 9Z" fill="#214CE8"/>
<path d="M54.8084 25.7097C54.8703 25.7715 54.9304 25.835 54.9884 25.9H39.8912C39.5322 25.9 39.2412 25.609 39.2412 25.25V10.153C39.3062 10.2109 39.3697 10.2708 39.4315 10.3327L54.8084 25.7097Z" fill="#214CE8"/>
<path opacity="0.5" fill-rule="evenodd" clip-rule="evenodd" d="M11.9414 47.35C11.9414 46.2731 12.8145 45.4 13.8914 45.4H14.5414C14.5414 41.092 18.0336 37.6 22.3414 37.6C26.6492 37.6 30.1414 41.092 30.1414 45.4H30.7914C31.8683 45.4 32.7414 46.2731 32.7414 47.35V59.05C32.7414 60.1269 31.8683 61 30.7914 61H13.8914C12.8145 61 11.9414 60.1269 11.9414 59.05V47.35ZM28.8414 49.3H15.8414V57.1H28.8414V49.3ZM26.2414 45.4C26.2414 43.2461 24.4953 41.5 22.3414 41.5C20.1875 41.5 18.4414 43.2461 18.4414 45.4H26.2414Z" fill="#214CE8"/>
</svg>
