<svg width="45" height="56" viewBox="0 0 45 56" fill="none" xmlns="http://www.w3.org/2000/svg">
<g clip-path="url(#clip0_0_6)">
<mask id="mask0_0_6" style="mask-type:luminance" maskUnits="userSpaceOnUse" x="0" y="0" width="45" height="56">
<path d="M45 0H0V56H45V0Z" fill="white"/>
</mask>
<g mask="url(#mask0_0_6)">
<path d="M22.5 56C22.93 56 23.64 55.83 24.31 55.45C39.72 46.61 45 42.86 45 32.74V11.53C45 8.62 43.78 7.7 41.48 6.71C38.29 5.35 27.97 1.55 24.77 0.42C24.04 0.17 23.26 0 22.5 0C21.74 0 20.96 0.22 20.25 0.42C17.05 1.36 6.71 5.38 3.52 6.71C1.25 7.68 0 8.62 0 11.53V32.74C0 42.86 5.31 46.57 20.69 55.45C21.39 55.84 22.07 56 22.5 56ZM22.5 50.98C22.07 50.98 21.63 50.81 20.82 50.32C8.31 42.56 4.3 40.28 4.3 31.72V12.39C4.3 11.45 4.46 11.09 5.22 10.78C9.34 9.12 17.32 6.37 21.41 4.71C21.84 4.52 22.2 4.46 22.49 4.46C22.78 4.46 23.14 4.54 23.57 4.71C27.66 6.37 35.59 9.31 39.79 10.78C40.52 11.06 40.68 11.44 40.68 12.39V31.71C40.68 40.28 36.67 42.52 24.16 50.31C23.37 50.81 22.91 50.97 22.48 50.97L22.5 50.98Z" fill="#0048DE"/>
</g>
</g>
<defs>
<clipPath id="clip0_0_6">
<rect width="45" height="56" fill="white"/>
</clipPath>
</defs>
</svg>
