<svg width="320" height="139" viewBox="0 0 320 139" fill="none" xmlns="http://www.w3.org/2000/svg">
<g clip-path="url(#clip0_4018_429)">
<path d="M89.6421 91.1415L82.0249 96.7544C80.6311 97.7809 78.7313 97.7809 77.3375 96.7544L69.7203 91.1415C66.8841 89.0526 65.2112 85.7392 65.2112 82.2169V65.3078C65.2112 64.2003 65.9297 63.2207 66.9849 62.8858L73.4605 60.8401C77.5086 59.5616 81.8538 59.5616 85.9019 60.8401L92.3774 62.8858C93.4345 63.2189 94.1512 64.1985 94.1512 65.3078V82.2169C94.1512 85.7392 92.4764 89.0526 89.6421 91.1415Z" fill="#214CE8"/>
<path d="M81.9942 73.2922C81.9942 71.0215 80.1592 69.1793 77.8921 69.1685C75.6105 69.1577 73.7485 71.0089 73.7485 73.2922C73.7485 74.8085 74.5679 76.1338 75.787 76.8487C75.9833 76.964 76.0841 77.1909 76.0319 77.4106L75.0235 81.6586C74.9478 81.9791 75.1909 82.2888 75.5205 82.2888H80.2241C80.5536 82.2888 80.7985 81.9809 80.7211 81.6586L79.7126 77.4124C79.6604 77.1909 79.7613 76.964 79.9575 76.8487C81.1767 76.132 81.996 74.8085 81.996 73.2922H81.9942Z" fill="white"/>
<path d="M86.7539 88.2602L79.1367 93.8732C77.7429 94.8996 75.8431 94.8996 74.4493 93.8732L66.8321 88.2602C63.9959 86.1714 62.323 82.858 62.323 79.3357V62.4266C62.323 61.3191 63.0415 60.3395 64.0967 60.0046L70.5723 57.9589C74.6204 56.6804 78.9656 56.6804 83.0137 57.9589L89.4892 60.0046C90.5463 60.3377 91.263 61.3173 91.263 62.4266V79.3357C91.263 82.858 89.5883 86.1714 86.7539 88.2602Z" stroke="black" stroke-width="0.720303" stroke-linecap="round" stroke-linejoin="round"/>
<path d="M80.923 71.0522C80.923 68.7814 79.0881 66.9393 76.8209 66.9285C74.5394 66.9176 72.6774 68.7688 72.6774 71.0522C72.6774 72.5684 73.4967 73.8938 74.7158 74.6087C74.9121 74.7239 75.013 74.9508 74.9607 75.1705L73.9523 79.4185C73.8767 79.739 74.1198 80.0488 74.4493 80.0488H79.1529C79.4824 80.0488 79.7273 79.7408 79.6499 79.4185L78.6415 75.1723C78.5893 74.9508 78.6901 74.7239 78.8864 74.6087C80.1055 73.892 80.9248 72.5684 80.9248 71.0522H80.923Z" stroke="black" stroke-width="0.720303" stroke-linecap="round" stroke-linejoin="round"/>
<path d="M130.719 27.546H94.8266C92.1638 27.546 90.0051 29.7046 90.0051 32.3674C90.0051 35.0302 92.1638 37.1888 94.8266 37.1888H130.719C133.382 37.1888 135.541 35.0302 135.541 32.3674C135.541 29.7046 133.382 27.546 130.719 27.546Z" fill="#AFC6F6"/>
<path d="M33 52.2938V41.4746C33 35.7938 37.605 31.1888 43.2857 31.1888H116.143C121.824 31.1888 126.429 35.7938 126.429 41.4746V103.617" stroke="black" stroke-width="1.37" stroke-linecap="round" stroke-linejoin="round"/>
<path d="M108.471 40.8317H56.5433C53.3869 40.8317 50.8283 38.2731 50.8283 35.1167" stroke="black" stroke-width="1.37" stroke-linecap="round" stroke-linejoin="round"/>
<path d="M79.7143 37.1888C80.306 37.1888 80.7857 36.7092 80.7857 36.1174C80.7857 35.5257 80.306 35.046 79.7143 35.046C79.1225 35.046 78.6428 35.5257 78.6428 36.1174C78.6428 36.7092 79.1225 37.1888 79.7143 37.1888Z" stroke="black" stroke-width="0.857143" stroke-linecap="round" stroke-linejoin="round"/>
<path d="M127.179 94.9389H126.536V80.3674H127.179C127.652 80.3674 128.036 80.751 128.036 81.2246V94.0817C128.036 94.5553 127.652 94.9389 127.179 94.9389Z" stroke="black" stroke-linecap="round" stroke-linejoin="round"/>
<path d="M127.179 80.3674H126.536V65.796H127.179C127.652 65.796 128.036 66.1795 128.036 66.6531V79.5102C128.036 79.9838 127.652 80.3674 127.179 80.3674Z" stroke="black" stroke-linecap="round" stroke-linejoin="round"/>
<path d="M33 103.189V49" stroke="black" stroke-width="1.37" stroke-linecap="round" stroke-linejoin="round"/>
</g>
<path opacity="0.2" d="M247.406 108H207.752C206.733 108 205.907 108.824 205.907 109.84C205.907 110.857 206.733 111.681 207.752 111.681H247.406C248.425 111.681 249.251 110.857 249.251 109.84C249.251 108.824 248.425 108 247.406 108Z" stroke="black" stroke-width="1.37349" stroke-linecap="round" stroke-linejoin="round"/>
<path opacity="0.2" d="M242.775 28H167.154C164.289 28 161.967 30.3175 161.967 33.1764C161.967 36.0352 164.289 38.3527 167.154 38.3527H242.775C245.64 38.3527 247.962 36.0352 247.962 33.1764C247.962 30.3175 245.64 28 242.775 28Z" fill="#214CE8"/>
<path opacity="0.2" d="M275.808 32.3943H179.438C175.363 32.3943 172.06 35.6903 172.06 39.7562V95.4308C172.06 99.4966 175.363 102.793 179.438 102.793H275.808C279.883 102.793 283.186 99.4966 283.186 95.4308V39.7562C283.186 35.6903 279.883 32.3943 275.808 32.3943Z" stroke="black" stroke-width="1.37349" stroke-linecap="round" stroke-linejoin="round"/>
<rect width="18" height="4.26014" transform="matrix(0.852671 -0.522448 -0.522448 -0.852671 168.226 106.037)" fill="white"/>
<rect width="18" height="4.26014" transform="matrix(0.852671 -0.522448 -0.522448 -0.852671 273.226 46.0366)" fill="white"/>
<path d="M163.659 103.406L290.659 30.4061" stroke="black" stroke-width="2.37" stroke-linecap="round"/>
<defs>
<clipPath id="clip0_4018_429">
<rect width="120" height="85.7143" fill="white" transform="translate(24 27.546)"/>
</clipPath>
</defs>
</svg>
