<svg width="20" height="20" viewBox="0 0 20 20" fill="none" xmlns="http://www.w3.org/2000/svg">
<path fill-rule="evenodd" clip-rule="evenodd" d="M3.51884 18.3333H16.4818C17.5046 18.3333 18.3337 17.5042 18.3337 16.4815V3.51851C18.3337 2.49576 17.5046 1.66666 16.4818 1.66666H3.51884C2.49609 1.66666 1.66699 2.49576 1.66699 3.51851V16.4815C1.66699 17.5042 2.49609 18.3333 3.51884 18.3333Z" fill="#007EBB"/>
<path fill-rule="evenodd" clip-rule="evenodd" d="M16.0185 16.0181H13.5452V11.8057C13.5452 10.6507 13.1064 10.0053 12.1923 10.0053C11.1978 10.0053 10.6782 10.677 10.6782 11.8057V16.0181H8.29472V7.99346H10.6782V9.07438C10.6782 9.07438 11.3949 7.74829 13.0978 7.74829C14.7999 7.74829 16.0185 8.7877 16.0185 10.9374V16.0181ZM5.4512 6.94269C4.63933 6.94269 3.98145 6.27964 3.98145 5.4619C3.98145 4.64416 4.63933 3.98111 5.4512 3.98111C6.26307 3.98111 6.92057 4.64416 6.92057 5.4619C6.92057 6.27964 6.26307 6.94269 5.4512 6.94269ZM4.22046 16.0181H6.70584V7.99346H4.22046V16.0181Z" fill="white"/>
</svg>
