<svg width="24" height="24" viewBox="0 0 24 24" fill="none" xmlns="http://www.w3.org/2000/svg">
<path fill-rule="evenodd" clip-rule="evenodd" d="M2.68564 12C2.68564 14.5938 3.74587 16.9401 5.45661 18.629L4.51209 19.7826C2.4705 17.8178 1.2002 15.0572 1.2002 12C1.2002 6.03534 6.03553 1.20001 12.0002 1.20001C17.9649 1.20001 22.8002 6.03534 22.8002 12C22.8002 17.9647 17.9649 22.8 12.0002 22.8C9.627 22.8 7.43261 22.0346 5.65039 20.7371L6.59324 19.5855C7.93045 20.5404 9.53082 21.1505 11.2644 21.286V19.3273C7.54306 18.9581 4.63658 15.8185 4.63658 12C4.63658 10.1008 5.35559 8.36954 6.53624 7.06354L7.54085 8.17009C6.8366 8.98935 6.35423 10.0048 6.18697 11.1233H8.17117C8.51587 9.6116 9.73277 8.43187 11.2644 8.14156V9.67101C10.2754 9.98318 9.55838 10.9079 9.55838 12C9.55838 13.3486 10.6517 14.4419 12.0002 14.4419C13.3488 14.4419 14.4421 13.3486 14.4421 12C14.4421 10.9129 13.7317 9.9918 12.7498 9.6754V8.1442C14.5602 8.49411 15.9275 10.0874 15.9275 12C15.9275 14.169 14.1692 15.9273 12.0002 15.9273C10.0382 15.9273 8.41233 14.4886 8.11982 12.6087H6.15316C6.45771 15.5691 8.9593 17.8782 12.0002 17.8782C14.9644 17.8782 17.4161 15.6842 17.8201 12.8315H19.3174C18.932 16.2612 16.1907 18.9781 12.7498 19.326V21.2849C17.5436 20.9031 21.3148 16.892 21.3148 12C21.3148 9.16374 20.0471 6.62348 18.0473 4.91505L16.8898 6.49401C18.2549 7.70714 19.1658 9.4202 19.3353 11.3461H17.8425C17.5172 8.40739 15.0256 6.12182 12.0002 6.12182C10.7521 6.12182 9.59484 6.51083 8.64305 7.17421L7.63786 6.06706C8.85888 5.16778 10.3675 4.63638 12.0002 4.63638C13.3431 4.63638 14.602 4.99583 15.686 5.62377L16.8448 4.04291C15.4333 3.18166 13.7747 2.68545 12.0002 2.68545C6.85591 2.68545 2.68564 6.85572 2.68564 12Z" fill="#214CE8"/>
</svg>
