<svg width="24" height="24" fill="none" xmlns="http://www.w3.org/2000/svg"><path fill-rule="evenodd" clip-rule="evenodd" d="M0 12C0 5.373 5.373 0 12 0s12 5.373 12 12-5.373 12-12 12S0 18.627 0 12Zm15.218-9.74-1.853-.474v5.748h1.515l3.95-3.25-1.539-1.135-2.073 1.705V2.26ZM9.74 1.532h1.853v7.512h3.826l4.604-3.673 1.154 1.45L16.07 10.9H9.741V1.533ZM2.445 15.748 4.3 17.326V6.996L2.445 8.697v7.05Zm5.496 3.802-1.855 1.618V3.004l1.855 1.618V19.55Zm7.277-.153 2.083 1.709 1.53-1.143-3.95-3.236h-1.516v5.738l1.853-.471v-2.597Zm4.806-.769-4.604-3.675h-3.826v7.512H9.74V13.1h6.328l5.11 4.078-1.155 1.45ZM17.674 12l3.79 3.129 1.189-1.43L20.594 12l2.059-1.699-1.19-1.43L17.674 12Z" fill="#ffc700"/><mask id="a" style="mask-type:alpha" maskUnits="userSpaceOnUse" x="0" y="0" width="24" height="24"><path fill-rule="evenodd" clip-rule="evenodd" d="M0 12C0 5.373 5.373 0 12 0s12 5.373 12 12-5.373 12-12 12S0 18.627 0 12Zm15.218-9.74-1.853-.474v5.748h1.515l3.95-3.25-1.539-1.135-2.073 1.705V2.26ZM9.74 1.532h1.853v7.512h3.826l4.604-3.673 1.154 1.45L16.07 10.9H9.741V1.533ZM2.445 15.748 4.3 17.326V6.996L2.445 8.697v7.05Zm5.496 3.802-1.855 1.618V3.004l1.855 1.618V19.55Zm7.277-.153 2.083 1.709 1.53-1.143-3.95-3.236h-1.516v5.738l1.853-.471v-2.597Zm4.806-.769-4.604-3.675h-3.826v7.512H9.74V13.1h6.328l5.11 4.078-1.155 1.45ZM17.674 12l3.79 3.129 1.189-1.43L20.594 12l2.059-1.699-1.19-1.43L17.674 12Z" fill="#ffc700"/></mask><g mask="url(#a)"><path fill="#ffc700" d="M0 0h24v24H0z"/></g></svg>