<svg width="90" height="70" viewBox="0 0 90 70" fill="none" xmlns="http://www.w3.org/2000/svg">
<path d="M90 55.3421C90 63.0438 83.7286 69.3152 76.0269 69.3152H0V13.9731C0 6.27137 6.27139 0 13.9731 0H90V55.3421Z" fill="white"/>
<path d="M70.3608 4.67676C64.8596 4.67676 60.3486 9.13273 60.3486 14.689V25.0862H74.4868C74.8168 25.0862 75.2019 25.0862 75.477 25.1412C78.6677 25.3063 81.0332 26.9566 81.0332 29.8173C81.0332 32.0728 79.4379 33.9982 76.4672 34.3833V34.4933C79.7129 34.7133 82.1885 36.5287 82.1885 39.3343C82.1885 42.36 79.4379 44.3404 75.8071 44.3404H60.2936V64.6949H74.9819C80.4831 64.6949 84.9941 60.2389 84.9941 54.6827V4.67676H70.3608Z" fill="url(#paint0_linear_21_215)"/>
<path d="M65.2451 41.1498H71.0214C71.1039 41.1498 71.2414 41.136 71.379 41.1223C71.5164 41.1085 71.654 41.0947 71.7365 41.0947C72.8368 40.8747 73.772 39.8845 73.772 38.5092C73.772 37.1889 72.8368 36.1987 71.7365 35.9236C71.5715 35.8686 71.2414 35.8686 71.0214 35.8686H65.2451V41.1498Z" fill="url(#paint1_linear_21_215)"/>
<path d="M71.0214 28.112C72.1216 28.277 73.0568 29.1572 73.0568 30.4775C73.0568 31.7978 72.1216 32.678 71.0214 32.843C70.9664 32.898 70.6363 32.898 70.4713 32.898H65.2451V28.0569H70.4712C70.5621 28.0569 70.6863 28.0736 70.798 28.0886C70.8891 28.1008 70.9719 28.112 71.0214 28.112Z" fill="url(#paint2_linear_21_215)"/>
<path d="M15.0175 4.67651C9.5163 4.67651 5.0053 9.13249 5.0053 14.6887V39.3891C7.81092 40.7644 10.7266 41.6446 13.6422 41.6446C17.108 41.6446 18.9784 39.5542 18.9784 36.6935V25.031H27.5603V36.6385C27.5603 41.1495 24.7547 44.8353 15.2376 44.8353C9.46129 44.8353 4.95029 43.57 4.95029 43.57V64.6396H19.6385C25.1398 64.6396 29.6508 60.1837 29.6508 54.6275V4.67651H15.0175Z" fill="url(#paint3_linear_21_215)"/>
<path d="M42.6881 4.67676C37.1869 4.67676 32.6759 9.13273 32.6759 14.689V27.7818C35.2065 25.6364 39.6074 24.2611 46.704 24.5911C50.4999 24.7562 54.5708 25.8014 54.5708 25.8014V30.0373C52.5353 28.9921 50.1148 28.0569 46.9791 27.8368C41.5879 27.4517 38.3422 30.0923 38.3422 34.7133C38.3422 39.3894 41.5879 42.0299 46.9791 41.5899C50.1148 41.3698 52.5353 40.3796 54.5708 39.3894V43.6253C54.5708 43.6253 50.5549 44.6705 46.704 44.8356C39.6074 45.1656 35.2065 43.7903 32.6759 41.6449V64.7499H47.3642C52.8654 64.7499 57.3764 60.2939 57.3764 54.7377V4.67676H42.6881Z" fill="url(#paint4_linear_21_215)"/>
<defs>
<linearGradient id="paint0_linear_21_215" x1="60.3392" y1="30.4706" x2="85.0612" y2="30.4706" gradientUnits="userSpaceOnUse">
<stop stop-color="#007940"/>
<stop offset="0.2285" stop-color="#00873F"/>
<stop offset="0.7433" stop-color="#40A737"/>
<stop offset="1" stop-color="#5CB531"/>
</linearGradient>
<linearGradient id="paint1_linear_21_215" x1="60.3392" y1="30.4706" x2="85.0612" y2="30.4706" gradientUnits="userSpaceOnUse">
<stop stop-color="#007940"/>
<stop offset="0.2285" stop-color="#00873F"/>
<stop offset="0.7433" stop-color="#40A737"/>
<stop offset="1" stop-color="#5CB531"/>
</linearGradient>
<linearGradient id="paint2_linear_21_215" x1="60.3392" y1="30.4706" x2="85.0612" y2="30.4706" gradientUnits="userSpaceOnUse">
<stop stop-color="#007940"/>
<stop offset="0.2285" stop-color="#00873F"/>
<stop offset="0.7433" stop-color="#40A737"/>
<stop offset="1" stop-color="#5CB531"/>
</linearGradient>
<linearGradient id="paint3_linear_21_215" x1="4.99365" y1="34.6616" x2="30.0974" y2="34.6616" gradientUnits="userSpaceOnUse">
<stop stop-color="#1F286F"/>
<stop offset="0.4751" stop-color="#004E94"/>
<stop offset="0.8261" stop-color="#0066B1"/>
<stop offset="1" stop-color="#006FBC"/>
</linearGradient>
<linearGradient id="paint4_linear_21_215" x1="32.5337" y1="34.6618" x2="56.9152" y2="34.6618" gradientUnits="userSpaceOnUse">
<stop stop-color="#6C2C2F"/>
<stop offset="0.1735" stop-color="#882730"/>
<stop offset="0.5731" stop-color="#BE1833"/>
<stop offset="0.8585" stop-color="#DC0436"/>
<stop offset="1" stop-color="#E60039"/>
</linearGradient>
</defs>
</svg>
