<svg xmlns="http://www.w3.org/2000/svg" width="279" height="90" viewBox="0 0 278 90"><path style="stroke:none;fill-rule:nonzero;fill:#1434cb;fill-opacity:1" d="M105.559 1.59 69.164 88.637H45.422L27.516 19.172c-1.09-4.281-2.036-5.848-5.34-7.652C16.777 8.586 7.859 5.832.016 4.12L.55 1.59H38.77c4.87 0 9.25 3.254 10.355 8.875l9.457 50.37L81.957 1.59zm93.027 58.629c.094-22.977-31.688-24.242-31.469-34.504.067-3.125 3.031-6.445 9.528-7.293 3.218-.422 12.085-.742 22.14 3.898l3.945-18.46C197.328 1.894 190.375 0 181.723 0c-22.203 0-37.825 11.832-37.957 28.773-.145 12.532 11.152 19.528 19.66 23.692 8.754 4.262 11.691 7.004 11.66 10.816-.063 5.84-6.984 8.418-13.45 8.52-11.288.176-17.84-3.063-23.062-5.496l-4.07 19.07c5.246 2.414 14.934 4.52 24.976 4.625 23.598 0 39.032-11.684 39.106-29.781m58.625 28.418h20.773L259.852 1.59h-19.176c-4.313 0-7.95 2.52-9.559 6.387l-33.703 80.66H221l4.68-13h28.816zm-25.063-30.84 11.82-32.684 6.805 32.684zm-94.5-56.207-18.574 87.047H96.617L115.195 1.59zm0 0"/></svg>