<svg width="90" height="32" viewBox="0 0 90 32" fill="none" xmlns="http://www.w3.org/2000/svg">
<path d="M44.5631 0.566199L38.5492 31.5161H31.2771L37.2919 0.566199H44.5631ZM75.1596 20.5506L78.9882 8.92791L81.1913 20.5506H75.1596ZM83.2734 31.5161H90L84.1302 0.566199H77.9214C76.5262 0.566199 75.3491 1.45958 74.825 2.83687L63.9147 31.5161H71.5516L73.0677 26.8944H82.3978L83.2734 31.5161ZM64.2937 21.4107C64.3249 13.242 54.0329 12.7924 54.1041 9.14342C54.1255 8.03159 55.0873 6.85218 57.188 6.54948C58.2317 6.39961 61.1012 6.285 64.3596 7.93559L65.6355 1.3724C63.8853 0.672974 61.6333 0 58.8323 0C51.6448 0 46.5856 4.20731 46.5429 10.2317C46.4975 14.6869 50.1544 17.1731 52.91 18.6542C55.7431 20.1716 56.6951 21.1433 56.6826 22.5C56.664 24.5777 54.4226 25.4926 52.3317 25.5289C48.6747 25.5926 46.5526 24.4425 44.8612 23.5746L43.5434 30.3563C45.242 31.2154 48.3784 31.9618 51.6323 32C59.271 32 64.2688 27.8446 64.2937 21.4107ZM34.1715 0.566199L22.3892 31.5161H14.7007L8.90302 6.81593C8.55067 5.29464 8.24459 4.73824 7.1742 4.09661C5.42758 3.05336 2.54029 2.0728 0 1.46545L0.173504 0.566199H12.5475C14.1242 0.566199 15.5433 1.7221 15.901 3.72143L18.9636 21.6321L26.5311 0.566199H34.1715Z" fill="#1434CB"/>
</svg>
