<svg width="20" height="20" viewBox="0 0 20 20" fill="none" xmlns="http://www.w3.org/2000/svg">
<g clip-path="url(#clip0_984_30404)">
<path fill-rule="evenodd" clip-rule="evenodd" d="M9.99967 0.833344C15.0624 0.833344 19.1663 5.04077 19.1663 10.2319C19.1663 14.3834 16.5428 17.9053 12.9028 19.1492C12.438 19.2418 12.273 18.9483 12.273 18.698C12.273 18.3882 12.284 17.3762 12.284 16.1186C12.284 15.2422 11.9907 14.6703 11.6616 14.3788C13.703 14.1459 15.848 13.3511 15.848 9.74129C15.848 8.71463 15.4923 7.87684 14.9038 7.21867C14.9992 6.98125 15.3136 6.02529 14.814 4.73096C14.814 4.73096 14.0458 4.47913 12.2959 5.69462C11.5635 5.48654 10.7788 5.38184 9.99967 5.37818C9.22051 5.38184 8.43676 5.48654 7.70526 5.69462C5.95351 4.47913 5.18351 4.73096 5.18351 4.73096C4.68576 6.02529 5.00018 6.98125 5.09459 7.21867C4.50884 7.87684 4.15043 8.71463 4.15043 9.74129C4.15043 13.342 6.29084 14.149 8.32676 14.3864C8.06459 14.6211 7.82718 15.035 7.74468 15.6428C7.22218 15.8829 5.89484 16.2986 5.07717 14.8622C5.07717 14.8622 4.59226 13.9591 3.67192 13.8931C3.67192 13.8931 2.77817 13.8813 3.60959 14.4643C3.60959 14.4643 4.21001 14.753 4.62709 15.8393C4.62709 15.8393 5.16518 17.5167 7.71534 16.9484C7.71993 17.734 7.72818 18.4744 7.72818 18.698C7.72818 18.9464 7.5595 19.2372 7.10209 19.1501C3.45925 17.908 0.833008 14.3843 0.833008 10.2319C0.833008 5.04077 4.93784 0.833344 9.99967 0.833344Z" fill="black"/>
</g>
<defs>
<clipPath id="clip0_984_30404">
<rect width="20" height="20" fill="white"/>
</clipPath>
</defs>
</svg>
