<svg width="40" height="24" viewBox="0 0 40 24" fill="none" xmlns="http://www.w3.org/2000/svg">
<rect width="40" height="24" rx="2" fill="#FFFFFF"/>
<path d="M17.5 3C12.253 3 8 7.253 8 12.5C8 17.747 12.253 22 17.5 22H22.5C27.747 22 32 17.747 32 12.5C32 7.253 27.747 3 22.5 3H17.5Z" fill="#0079BE"/>
<path d="M17.614 5.5C13.472 5.5 10.114 8.858 10.114 13C10.114 17.142 13.472 20.5 17.614 20.5C21.756 20.5 25.114 17.142 25.114 13C25.114 8.858 21.756 5.5 17.614 5.5Z" fill="white"/>
<path d="M14.114 13C14.114 11.067 15.181 9.4 16.714 8.533V17.467C15.181 16.6 14.114 14.933 14.114 13Z" fill="#0079BE"/>
<path d="M21.114 13C21.114 14.933 20.047 16.6 18.514 17.467V8.533C20.047 9.4 21.114 11.067 21.114 13Z" fill="#0079BE"/>
</svg>
