<svg width="40" height="24" viewBox="0 0 40 24" fill="none" xmlns="http://www.w3.org/2000/svg">
<rect width="40" height="24" rx="2" fill="#006FCF"/>
<path d="M7.5 16.5L5 11H6.5L8.25 15L10 11H11.5L9 16.5H7.5Z" fill="white"/>
<path d="M12 11H13.5V16.5H12V11Z" fill="white"/>
<path d="M14.5 14.5C14.5 15.5 15.3 16.5 16.5 16.5H18.5V15.25H16.75C16.25 15.25 16 14.9 16 14.5V13C16 12.6 16.25 12.25 16.75 12.25H18.5V11H16.5C15.3 11 14.5 12 14.5 13V14.5Z" fill="white"/>
<path d="M19.5 16.5H21L22 14.5L23 16.5H24.5L22.75 13.75L24.5 11H23L22 13L21 11H19.5L21.25 13.75L19.5 16.5Z" fill="white"/>
<path d="M25.5 11V16.5H27V14.5H28.25L29.5 16.5H31.25L29.75 14.25C30.4 14 31 13.4 31 12.5C31 11.5 30.25 11 29 11H25.5ZM27 12.25H28.75C29.25 12.25 29.5 12.5 29.5 12.75C29.5 13 29.25 13.25 28.75 13.25H27V12.25Z" fill="white"/>
<path d="M32 11V16.5H35.5V15.25H33.5V14.25H35.5V13H33.5V12.25H35.5V11H32Z" fill="white"/>
</svg>
