<svg width="24" height="24" viewBox="0 0 24 24" fill="none" xmlns="http://www.w3.org/2000/svg">
<path fill-rule="evenodd" clip-rule="evenodd" d="M12.637 21.5519C17.4259 21.2374 21.2532 17.4013 21.5539 12.6087H20.3237C20.0272 16.7232 16.7477 20.0114 12.637 20.3216V21.5519ZM12.0002 2.42728C17.0673 2.42728 21.2149 6.36419 21.5509 11.3461H20.3204C19.9868 7.04265 16.3892 3.65456 12.0002 3.65456C10.3373 3.65456 8.7879 4.14094 7.48669 4.97919L6.76456 3.98463C8.26911 2.99987 10.0677 2.42728 12.0002 2.42728ZM3.65473 12C3.65473 10.744 3.93219 9.55279 4.42918 8.48433L5.49717 9.10092C5.18241 9.80591 4.97893 10.5714 4.90903 11.3753H6.14199C6.45398 8.41551 8.95776 6.1091 12.0002 6.1091C12.4903 6.1091 12.9664 6.16896 13.4217 6.28175L12.9903 7.44169C12.6711 7.3727 12.3399 7.33638 12.0002 7.33638C11.1658 7.33638 10.3826 7.5555 9.70493 7.93933L10.465 8.92482C10.927 8.69368 11.4484 8.56365 12.0002 8.56365C13.898 8.56365 15.4366 10.1022 15.4366 12C15.4366 13.8978 13.898 15.4364 12.0002 15.4364C11.4563 15.4364 10.942 15.3101 10.4849 15.0851L11.2087 14.0631C11.4545 14.1574 11.7213 14.2091 12.0002 14.2091C13.2202 14.2091 14.2093 13.22 14.2093 12C14.2093 10.78 13.2202 9.7909 12.0002 9.7909C10.7802 9.7909 9.79109 10.78 9.79109 12C9.79109 12.4823 9.94565 12.9284 10.2079 13.2917L9.47328 14.3288C8.90866 13.7165 8.56382 12.8985 8.56382 12C8.56382 11.1093 8.90272 10.2978 9.4585 9.68729L8.70048 8.70431C7.85769 9.54811 7.33652 10.7132 7.33652 12C7.33652 14.5757 9.42448 16.6637 12.0002 16.6637C14.5758 16.6637 16.6638 14.5757 16.6638 12C16.6638 10.2104 15.6558 8.65618 14.1765 7.87426L14.6073 6.71596C15.16 6.98919 15.6637 7.34658 16.1015 7.77138L17.0481 6.9813C15.7588 5.68458 13.9732 4.88183 12.0002 4.88183C9.5526 4.88183 7.3936 6.11712 6.11253 7.99826L5.04706 7.38311C5.45166 6.77499 5.93391 6.22299 6.47966 5.74125L5.75573 4.7442C3.71776 6.4997 2.42747 9.09913 2.42747 12C2.42747 15.0199 3.8258 17.7131 6.01029 19.4676L5.29978 20.4708C2.80233 18.4926 1.2002 15.4334 1.2002 12C1.2002 6.03533 6.03552 1.20001 12.0002 1.20001C17.9649 1.20001 22.8002 6.03533 22.8002 12C22.8002 17.9647 17.9649 22.8 12.0002 22.8C9.92195 22.8 7.98082 22.213 6.33354 21.1957L7.04458 20.1918C8.32259 20.9666 9.79643 21.4508 11.3743 21.5526V20.3224C7.05757 20.0023 3.65473 16.3986 3.65473 12ZM12.0002 19.1182C15.9314 19.1182 19.1184 15.9313 19.1184 12C19.1184 10.496 18.652 9.10099 17.8558 7.95171L16.9089 8.74211C17.5295 9.67526 17.891 10.7954 17.891 12C17.891 15.2535 15.2536 17.8909 12.0002 17.8909C8.96221 17.8909 6.4614 15.5913 6.14339 12.6379H4.91019C5.23279 16.2703 8.2839 19.1182 12.0002 19.1182Z" fill="#214CE8"/>
</svg>
