<svg width="20" height="20" viewBox="0 0 20 20" fill="none" xmlns="http://www.w3.org/2000/svg">
<path d="M15.7852 4.44998C14.7064 3.92831 13.5528 3.54919 12.3468 3.33331C12.1987 3.61006 12.0256 3.98229 11.9063 4.27839C10.6243 4.07914 9.35403 4.07914 8.09557 4.27839C7.97629 3.98229 7.79932 3.61006 7.64988 3.33331C6.44255 3.54919 5.28766 3.92971 4.20879 4.45274C2.03272 7.85111 1.44282 11.1651 1.73777 14.432C3.18106 15.5459 4.57978 16.2225 5.95489 16.6653C6.29441 16.1824 6.59722 15.669 6.85809 15.128C6.36126 14.9329 5.88541 14.6921 5.43579 14.4126C5.55508 14.3213 5.67175 14.2258 5.78448 14.1276C8.52685 15.4532 11.5065 15.4532 14.2161 14.1276C14.3302 14.2258 14.4468 14.3213 14.5648 14.4126C14.1139 14.6935 13.6367 14.9343 13.1399 15.1294C13.4007 15.669 13.7022 16.1838 14.0431 16.6666C15.4195 16.2239 16.8195 15.5472 18.2628 14.432C18.6089 10.6448 17.6716 7.36127 15.7852 4.44998ZM7.2317 12.4229C6.40847 12.4229 5.73335 11.6286 5.73335 10.6614C5.73335 9.69419 6.39405 8.89857 7.2317 8.89857C8.06937 8.89857 8.74446 9.6928 8.73005 10.6614C8.73135 11.6286 8.06937 12.4229 7.2317 12.4229ZM12.7689 12.4229C11.9457 12.4229 11.2705 11.6286 11.2705 10.6614C11.2705 9.69419 11.9312 8.89857 12.7689 8.89857C13.6065 8.89857 14.2817 9.6928 14.2672 10.6614C14.2672 11.6286 13.6065 12.4229 12.7689 12.4229Z" fill="#5865F2"/>
</svg>
