<svg width="24" height="24" viewBox="0 0 24 24" fill="none" xmlns="http://www.w3.org/2000/svg">
<path fill-rule="evenodd" clip-rule="evenodd" d="M20.0157 15.9941C20.6095 14.7958 20.9434 13.4456 20.9434 12.0171C20.9434 7.40565 17.4641 3.60807 12.9913 3.11414V6.20004C15.7729 6.67205 17.8911 9.09683 17.8911 12.0171C17.8911 12.8429 17.7217 13.6292 17.4158 14.3428L20.0157 15.9941ZM3.057 12.0171C3.057 7.3626 6.60152 3.53725 11.1345 3.10117V6.18014C8.60253 6.55361 6.59469 8.54054 6.18566 11.0646H8.07883C8.50635 9.29277 10.0998 7.97663 12.0002 7.97663C14.2282 7.97663 16.0343 9.7856 16.0343 12.0171C16.0343 14.2486 14.2282 16.0576 12.0002 16.0576C10.0837 16.0576 8.47924 14.719 8.06817 12.9243H6.17849C6.61419 15.7523 9.05477 17.9174 12.0002 17.9174C13.7622 17.9174 15.3436 17.1425 16.4231 15.9145L19.022 17.5651C17.5768 19.3974 15.432 20.6506 12.9913 20.9201V22.7893C18.4915 22.2881 22.8002 17.6566 22.8002 12.0171C22.8002 6.043 17.9649 1.20001 12.0002 1.20001C6.03551 1.20001 1.2002 6.043 1.2002 12.0171C1.2002 17.6994 5.57462 22.3584 11.1345 22.8V20.9331C6.60152 20.497 3.057 16.6716 3.057 12.0171Z" fill="#214CE8"/>
</svg>
