<svg width="36" height="36" viewBox="0 0 36 36" fill="none" xmlns="http://www.w3.org/2000/svg">
<path d="M20.639 6.33229C18.9202 6.33571 17.2333 6.78871 15.7516 7.6448C14.2698 8.50088 13.0466 9.72918 12.2075 11.2036C11.4853 10.8579 10.6926 10.6777 9.88931 10.6766C8.63021 10.6798 7.41322 11.1226 6.4554 11.9259C5.49757 12.7292 4.86119 13.8408 4.65975 15.0624C3.32975 15.6098 2.194 16.5313 1.3952 17.7112C0.596399 18.891 0.170184 20.2766 0.170105 21.6939C0.171981 23.6001 0.943961 25.4276 2.31632 26.7745C3.68867 28.1215 5.54906 28.8776 7.48846 28.8767C7.79537 28.874 8.1018 28.8523 8.40594 28.8117H28.7405C28.8473 28.8193 28.9543 28.8244 29.0613 28.8269C29.1633 28.8241 29.2652 28.819 29.367 28.8117H29.8539V28.7761C31.5096 28.5837 33.0362 27.798 34.1444 26.568C35.2526 25.3381 35.8654 23.7493 35.8666 22.1029V22.09C35.8627 20.5264 35.3072 19.013 34.2956 17.8102C33.284 16.6073 31.8795 15.7903 30.3238 15.4996C30.2315 13.0363 29.1704 10.7043 27.364 8.99445C25.5576 7.2846 23.1468 6.33026 20.639 6.33229Z" fill="url(#paint0_linear_61_16465)"/>
<defs>
<linearGradient id="paint0_linear_61_16465" x1="35.9749" y1="22.1211" x2="0.15716" y2="21.6185" gradientUnits="userSpaceOnUse">
<stop stop-color="#3E82F4"/>
<stop offset="1" stop-color="#93DCF7"/>
</linearGradient>
</defs>
</svg>
