<svg width="20" height="20" viewBox="0 0 20 20" fill="none" xmlns="http://www.w3.org/2000/svg">
<g clip-path="url(#clip0_984_30410)">
<g clip-path="url(#clip1_984_30410)">
<path d="M18.2212 5.98947C18.0292 5.27198 17.4653 4.70815 16.7478 4.51609C15.4487 4.16763 10.237 4.16763 10.237 4.16763C10.237 4.16763 5.02528 4.16763 3.72612 4.51609C3.00865 4.70815 2.44481 5.27198 2.25275 5.98947C1.9043 7.28861 1.9043 10.0008 1.9043 10.0008C1.9043 10.0008 1.9043 12.713 2.25275 14.0121C2.44481 14.7296 3.00865 15.2934 3.72612 15.4855C5.02528 15.8339 10.237 15.8339 10.237 15.8339C10.237 15.8339 15.4487 15.8339 16.7478 15.4855C17.4653 15.2934 18.0292 14.7296 18.2212 14.0121C18.5697 12.713 18.5697 10.0008 18.5697 10.0008C18.5697 10.0008 18.5683 7.28861 18.2212 5.98947Z" fill="#FF0000"/>
<path d="M8.56934 12.4999L12.8989 10.0004L8.56934 7.50085V12.4999Z" fill="white"/>
</g>
</g>
<defs>
<clipPath id="clip0_984_30410">
<rect width="16.6653" height="11.6663" fill="white" transform="translate(1.90527 4.16666)"/>
</clipPath>
<clipPath id="clip1_984_30410">
<rect width="16.6653" height="11.6663" fill="white" transform="translate(1.90527 4.16666)"/>
</clipPath>
</defs>
</svg>
