<svg width="24" height="24" viewBox="0 0 24 24" fill="none" xmlns="http://www.w3.org/2000/svg">
<path d="M12.8939 1.16129C14.3638 1.66738 18.0843 3.0428 19.5635 3.63865C20.543 4.03765 21 4.41263 21 5.58425V13.9814C21 17.8453 19.0035 19.378 12.7389 22.7814C12.4702 22.9182 12.1952 23 12.0047 23C11.8048 23 11.5298 22.9276 11.2705 22.7814C5.09513 19.1995 3 17.8453 3 13.9814V5.58425C3 4.41263 3.45701 4.0234 4.43646 3.63865C5.91572 3.05212 9.63176 1.66384 11.1061 1.16129C11.3997 1.07109 11.6973 1 12.0047 1C12.3027 1 12.6003 1.06177 12.8939 1.16129ZM10.8699 16.1228C10.8699 16.7114 11.3971 17.2112 12.0047 17.2112C12.6172 17.2112 13.1301 16.7207 13.1301 16.1228C13.1301 15.5057 12.6265 15.0201 12.0047 15.0201C11.3878 15.0201 10.8699 15.515 10.8699 16.1228ZM11.0894 6.72782L11.2208 12.7991C11.2208 13.3113 11.5121 13.6032 12.0047 13.6032C12.4834 13.6032 12.7606 13.3207 12.7699 12.7991L12.9155 6.72782C12.9249 6.21072 12.5309 5.83045 11.9953 5.83045C11.4553 5.83045 11.08 6.20139 11.0894 6.72782Z" fill="#FF1D2D"/>
</svg>
