<svg width="320" height="160" viewBox="0 0 320 160" fill="none" xmlns="http://www.w3.org/2000/svg">
<path d="M129.096 146.894V140.713" stroke="white" stroke-width="1.37349" stroke-linecap="round" stroke-linejoin="round"/>
<path d="M120.169 137.966H126.349" stroke="white" stroke-width="1.37349" stroke-linecap="round" stroke-linejoin="round"/>
<path d="M129.096 129.039V135.219" stroke="white" stroke-width="1.37349" stroke-linecap="round" stroke-linejoin="round"/>
<path d="M138.024 137.966H131.843" stroke="white" stroke-width="1.37349" stroke-linecap="round" stroke-linejoin="round"/>
<path d="M54.9277 28.0868V34.2675" stroke="white" stroke-width="1.37349" stroke-linecap="round" stroke-linejoin="round"/>
<path d="M63.8554 37.0145H57.6747" stroke="white" stroke-width="1.37349" stroke-linecap="round" stroke-linejoin="round"/>
<path d="M54.9277 45.9422V39.7615" stroke="white" stroke-width="1.37349" stroke-linecap="round" stroke-linejoin="round"/>
<path d="M46 37.0145H52.1807" stroke="white" stroke-width="1.37349" stroke-linecap="round" stroke-linejoin="round"/>
<path d="M174.185 34.9777C174.162 35.3562 173.836 35.6439 173.457 35.6202L167.288 35.2344C166.91 35.2107 166.622 34.8846 166.646 34.5061C166.67 34.1276 166.996 33.8399 167.374 33.8636L172.857 34.2065L173.2 28.7233C173.224 28.3447 173.55 28.057 173.929 28.0807C174.307 28.1044 174.595 28.4305 174.571 28.809L174.185 34.9777ZM173.5 34.9348L172.985 35.3891C165.862 27.3157 151.902 19.6499 135.669 17.8538C119.468 16.0611 101.04 20.1194 84.931 35.4325L84.4578 34.9348L83.9847 34.4371C100.418 18.8154 119.261 14.6563 135.82 16.4886C152.348 18.3174 166.638 26.1191 174.015 34.4805L173.5 34.9348Z" fill="white"/>
<path d="M110.496 63.2173V122.724C110.496 128.379 105.895 132.96 100.222 132.96H77.6662C71.9937 132.96 67.3925 128.376 67.3925 122.724V63.2173C67.3925 57.5619 71.9937 52.9813 77.6662 52.9813H100.222C105.895 52.9813 110.496 57.5654 110.496 63.2173Z" fill="#007CF9"/>
<path d="M106.963 55.5532V116.313C106.963 121.622 102.643 125.924 97.3172 125.924H73.5008C68.1751 125.924 63.8555 121.622 63.8555 116.313V55.5532C63.8555 50.2446 68.1751 45.9421 73.5008 45.9421H97.3172C102.643 45.9421 106.963 50.2446 106.963 55.5532Z" stroke="white" stroke-width="1.37349" stroke-linecap="round" stroke-linejoin="round"/>
<path d="M99.0544 53.5892H78.8263C76.5223 53.5892 74.6543 51.7281 74.6543 49.4309" stroke="white" stroke-width="1.37349" stroke-linecap="round" stroke-linejoin="round"/>
<path d="M94.024 84.2734L89.0108 87.9544C88.094 88.6274 86.8441 88.6274 85.9273 87.9544L80.914 84.2734C79.0495 82.9034 77.9473 80.7298 77.9473 78.4223V67.3348C77.9473 66.6068 78.4211 65.9647 79.1147 65.7484L83.376 64.4093C86.0406 63.5714 88.8974 63.5714 91.562 64.4093L95.8233 65.7484C96.5169 65.9682 96.9908 66.6103 96.9908 67.3348V78.4223C96.9908 80.7332 95.8885 82.9034 94.024 84.2734Z" fill="white"/>
<path d="M91.9637 81.5365L86.9505 85.2174C86.0337 85.8905 84.7838 85.8905 83.867 85.2174L78.8537 81.5365C76.9892 80.1664 75.887 77.9929 75.887 75.6854V64.5979C75.887 63.8699 76.3608 63.2278 77.0544 63.0115L81.3157 61.6723C83.9803 60.8345 86.8371 60.8345 89.5017 61.6723L93.763 63.0115C94.4566 63.2312 94.9305 63.8733 94.9305 64.5979V75.6854C94.9305 77.9963 93.8282 80.1664 91.9637 81.5365Z" stroke="white" stroke-width="1.37349" stroke-linecap="round" stroke-linejoin="round"/>
<path d="M232.406 130.906H192.752C191.733 130.906 190.907 131.73 190.907 132.746C190.907 133.763 191.733 134.587 192.752 134.587H232.406C233.425 134.587 234.251 133.763 234.251 132.746C234.251 131.73 233.425 130.906 232.406 130.906Z" stroke="white" stroke-width="1.37349" stroke-linecap="round" stroke-linejoin="round"/>
<path d="M213.271 56.3663H211.887C211.505 56.3663 211.196 56.6753 211.196 57.0565C211.196 57.4377 211.505 57.7467 211.887 57.7467H213.271C213.653 57.7467 213.962 57.4377 213.962 57.0565C213.962 56.6753 213.653 56.3663 213.271 56.3663Z" stroke="white" stroke-width="1.03012" stroke-linecap="round" stroke-linejoin="round"/>
<path d="M227.775 49.3931H152.154C149.289 49.3931 146.967 51.7106 146.967 54.5694C146.967 57.4282 149.289 59.7458 152.154 59.7458H227.775C230.64 59.7458 232.962 57.4282 232.962 54.5694C232.962 51.7106 230.64 49.3931 227.775 49.3931Z" fill="#007CF9"/>
<path d="M260.808 53.3364H164.438C160.363 53.3364 157.06 56.6325 157.06 60.6984V116.373C157.06 120.439 160.363 123.735 164.438 123.735H260.808C264.883 123.735 268.186 120.439 268.186 116.373V60.6984C268.186 56.6325 264.883 53.3364 260.808 53.3364Z" stroke="white" stroke-width="1.37349" stroke-linecap="round" stroke-linejoin="round"/>
<path d="M214.726 110.496C224.551 110.496 232.517 102.531 232.517 92.7056C232.517 82.8801 224.551 74.9149 214.726 74.9149C204.9 74.9149 196.935 82.8801 196.935 92.7056C196.935 102.531 204.9 110.496 214.726 110.496Z" fill="#004687"/>
<path d="M211.441 108.307C221.267 108.307 229.232 100.342 229.232 90.516C229.232 80.6905 221.267 72.7253 211.441 72.7253C201.616 72.7253 193.651 80.6905 193.651 90.516C193.651 100.342 201.616 108.307 211.441 108.307Z" stroke="white" stroke-width="1.09481" stroke-linecap="round" stroke-linejoin="round"/>
<path d="M211.557 73.185V108.307" stroke="white" stroke-width="1.09481" stroke-linecap="round" stroke-linejoin="round"/>
<path d="M229.233 90.6309H204.67" stroke="white" stroke-width="1.09481" stroke-linecap="round" stroke-linejoin="round"/>
<path d="M199.161 90.6309H193.882" stroke="white" stroke-width="1.09481" stroke-linecap="round" stroke-linejoin="round"/>
<path d="M220.967 90.516C220.967 95.5248 219.842 100.024 218.06 103.249C216.265 106.498 213.895 108.307 211.439 108.307C208.984 108.307 206.614 106.498 204.819 103.249C203.037 100.024 201.912 95.5248 201.912 90.516C201.912 85.5072 203.037 81.0075 204.819 77.7833C206.614 74.5345 208.984 72.7253 211.439 72.7253C213.895 72.7253 216.265 74.5345 218.06 77.7833C219.842 81.0075 220.967 85.5072 220.967 90.516Z" stroke="white" stroke-width="1.09481" stroke-linecap="round" stroke-linejoin="round"/>
<path d="M223.723 78.465C220.707 80.2961 216.322 81.4484 211.442 81.4484C206.562 81.4484 202.177 80.2961 199.161 78.465" stroke="white" stroke-width="1.09481" stroke-linecap="round" stroke-linejoin="round"/>
<path d="M199.161 103.027C202.177 101.196 206.562 100.044 211.442 100.044C216.322 100.044 220.707 101.196 223.723 103.027" stroke="white" stroke-width="1.09481" stroke-linecap="round" stroke-linejoin="round"/>
<path d="M250.307 33.5807V30.4904" stroke="white" stroke-width="1.37349" stroke-linecap="round" stroke-linejoin="round"/>
<path d="M245.843 29.1169H248.934" stroke="white" stroke-width="1.37349" stroke-linecap="round" stroke-linejoin="round"/>
<path d="M250.307 24.653V27.7434" stroke="white" stroke-width="1.37349" stroke-linecap="round" stroke-linejoin="round"/>
<path d="M254.771 29.1169H251.681" stroke="white" stroke-width="1.37349" stroke-linecap="round" stroke-linejoin="round"/>
</svg>
