<svg width="20" height="20" viewBox="0 0 20 20" fill="none" xmlns="http://www.w3.org/2000/svg">
<g clip-path="url(#clip0_984_22433)">
<g clip-path="url(#clip1_984_22433)">
<path d="M9.99935 14.5807C12.5307 14.5807 14.5827 12.5287 14.5827 9.9974C14.5827 7.46609 12.5307 5.41406 9.99935 5.41406C7.46804 5.41406 5.41602 7.46609 5.41602 9.9974C5.41602 12.5287 7.46804 14.5807 9.99935 14.5807Z" fill="white"/>
<path d="M9.99936 5.41636H17.9366C17.1323 4.02279 15.9753 2.86554 14.5819 2.06098C13.1885 1.25641 11.6078 0.832896 9.99875 0.833008C8.38974 0.83312 6.80911 1.25686 5.4158 2.06162C4.0225 2.86638 2.86563 4.02378 2.06152 5.41747L6.03016 12.2914L6.03371 12.2904C5.62999 11.5943 5.41694 10.8039 5.41604 9.99918C5.41514 9.19441 5.62641 8.40362 6.02855 7.70654C6.4307 7.00945 7.00952 6.4307 7.70665 6.02862C8.40378 5.62655 9.19459 5.41537 9.99936 5.41636Z" fill="url(#paint0_linear_984_22433)"/>
<path d="M9.99957 13.628C12.0035 13.628 13.628 12.0035 13.628 9.99957C13.628 7.99562 12.0035 6.37109 9.99957 6.37109C7.99562 6.37109 6.37109 7.99562 6.37109 9.99957C6.37109 12.0035 7.99562 13.628 9.99957 13.628Z" fill="#1A73E8"/>
<path d="M13.9683 12.2924L9.99969 19.1663C11.6087 19.1665 13.1894 18.7431 14.5829 17.9387C15.9764 17.1342 17.1335 15.977 17.9379 14.5835C18.7423 13.19 19.1656 11.6093 19.1653 10.0003C19.165 8.39127 18.7411 6.8107 17.9362 5.41748H9.999L9.99805 5.42103C10.8028 5.41948 11.5938 5.63012 12.2912 6.03172C12.9886 6.43331 13.5678 7.01167 13.9704 7.70849C14.373 8.40531 14.5848 9.19596 14.5845 10.0007C14.5841 10.8055 14.3716 11.596 13.9683 12.2924Z" fill="url(#paint1_linear_984_22433)"/>
<path d="M6.03107 12.2928L2.06244 5.41895C1.25773 6.81228 0.834044 8.39292 0.833984 10.0019C0.833924 11.611 1.25749 13.1916 2.0621 14.585C2.8667 15.9784 4.02399 17.1354 5.41758 17.9397C6.81117 18.7439 8.39195 19.1671 10.001 19.1667L13.9696 12.2928L13.967 12.2902C13.566 12.9879 12.9881 13.5675 12.2916 13.9707C11.5951 14.3739 10.8046 14.5863 9.99983 14.5866C9.19506 14.5869 8.40443 14.375 7.70766 13.9723C7.01089 13.5696 6.4326 12.9903 6.03107 12.2928Z" fill="url(#paint2_linear_984_22433)"/>
</g>
</g>
<defs>
<linearGradient id="paint0_linear_984_22433" x1="2.06152" y1="6.56219" x2="17.9366" y2="6.56219" gradientUnits="userSpaceOnUse">
<stop stop-color="#D93025"/>
<stop offset="1" stop-color="#EA4335"/>
</linearGradient>
<linearGradient id="paint1_linear_984_22433" x1="8.74737" y1="19.0437" x2="16.6849" y2="5.29549" gradientUnits="userSpaceOnUse">
<stop stop-color="#FCC934"/>
<stop offset="1" stop-color="#FBBC04"/>
</linearGradient>
<linearGradient id="paint2_linear_984_22433" x1="10.9923" y1="18.5943" x2="3.05477" y2="4.84603" gradientUnits="userSpaceOnUse">
<stop stop-color="#1E8E3E"/>
<stop offset="1" stop-color="#34A853"/>
</linearGradient>
<clipPath id="clip0_984_22433">
<rect width="20" height="20" fill="white"/>
</clipPath>
<clipPath id="clip1_984_22433">
<rect width="18.3333" height="18.3333" fill="white" transform="translate(0.833008 0.833008)"/>
</clipPath>
</defs>
</svg>
