<svg width="320" height="164" viewBox="0 0 320 164" fill="none" xmlns="http://www.w3.org/2000/svg">
<path d="M245.928 25V31.1807" stroke="white" stroke-width="1.37349" stroke-linecap="round" stroke-linejoin="round"/>
<path d="M254.856 33.9277H248.675" stroke="white" stroke-width="1.37349" stroke-linecap="round" stroke-linejoin="round"/>
<path d="M245.928 42.8554V36.6747" stroke="white" stroke-width="1.37349" stroke-linecap="round" stroke-linejoin="round"/>
<path d="M237 33.9277H243.181" stroke="white" stroke-width="1.37349" stroke-linecap="round" stroke-linejoin="round"/>
<path d="M213.185 34.884C213.213 35.2623 212.929 35.5916 212.551 35.6197L206.387 36.0769C206.009 36.1049 205.679 35.8211 205.651 35.4428C205.623 35.0646 205.907 34.7352 206.285 34.7071L211.764 34.3008L211.358 28.8218C211.33 28.4436 211.614 28.1142 211.992 28.0862C212.37 28.0581 212.7 28.342 212.728 28.7202L213.185 34.884ZM212.5 34.9348L212.052 35.455C211.025 34.5697 209.954 33.6849 208.84 32.8091L209.264 32.2692L209.689 31.7294C210.82 32.6186 211.907 33.5167 212.948 34.4146L212.5 34.9348ZM202.424 27.414L202.056 27.9936C199.772 26.543 197.354 25.1744 194.803 23.9373L195.103 23.3194L195.403 22.7015C198.004 23.9634 200.468 25.3581 202.792 26.8343L202.424 27.414ZM187.341 20.14L187.123 20.7911C184.557 19.9298 181.882 19.2185 179.101 18.695L179.228 18.0201L179.355 17.3452C182.202 17.8809 184.937 18.6086 187.56 19.489L187.341 20.14ZM170.9 17.0576L170.87 17.7437C168.193 17.6257 165.431 17.688 162.583 17.9584L162.519 17.2747L162.454 16.591C165.365 16.3146 168.191 16.2508 170.931 16.3715L170.9 17.0576ZM154.237 18.6125L154.389 19.2821C151.792 19.8726 149.132 20.6381 146.41 21.5969L146.182 20.9491L145.954 20.3014C148.725 19.3255 151.435 18.5452 154.085 17.9428L154.237 18.6125ZM138.43 24.135L138.721 24.7567C136.307 25.8896 133.847 27.1749 131.344 28.6238L131 28.0295L130.656 27.4351C133.192 25.9672 135.686 24.6635 138.138 23.5133L138.43 24.135ZM123.895 32.5077L124.282 33.0752C123.151 33.8462 122.011 34.6506 120.863 35.4893L120.458 34.9348L120.053 34.3803C121.213 33.5329 122.364 32.7199 123.508 31.9402L123.895 32.5077Z" fill="white"/>
<path d="M119.773 139.5C119.745 139.122 120.029 138.793 120.407 138.765L126.571 138.307C126.949 138.279 127.278 138.563 127.306 138.942C127.334 139.32 127.051 139.649 126.672 139.677L121.193 140.084L121.6 145.563C121.628 145.941 121.344 146.27 120.966 146.298C120.588 146.326 120.258 146.042 120.23 145.664L119.773 139.5ZM120.458 139.45L120.906 138.929C121.933 139.815 123.004 140.699 124.118 141.575L123.693 142.115L123.269 142.655C122.138 141.766 121.051 140.868 120.009 139.97L120.458 139.45ZM130.534 146.97L130.902 146.391C133.186 147.841 135.604 149.21 138.154 150.447L137.855 151.065L137.555 151.683C134.953 150.421 132.489 149.026 130.166 147.55L130.534 146.97ZM145.617 154.244L145.835 153.593C148.401 154.455 151.075 155.166 153.857 155.689L153.73 156.364L153.603 157.039C150.756 156.503 148.02 155.776 145.398 154.895L145.617 154.244ZM162.057 157.327L162.088 156.641C164.764 156.759 167.527 156.696 170.374 156.426L170.439 157.11L170.504 157.793C167.593 158.07 164.767 158.134 162.027 158.013L162.057 157.327ZM178.721 155.772L178.569 155.102C181.165 154.512 183.825 153.746 186.548 152.787L186.776 153.435L187.004 154.083C184.233 155.059 181.523 155.839 178.873 156.442L178.721 155.772ZM194.528 150.249L194.237 149.628C196.651 148.495 199.11 147.209 201.614 145.76L201.958 146.355L202.302 146.949C199.766 148.417 197.271 149.721 194.82 150.871L194.528 150.249ZM209.063 141.877L208.676 141.309C209.807 140.538 210.947 139.734 212.095 138.895L212.5 139.45L212.905 140.004C211.745 140.851 210.593 141.664 209.449 142.444L209.063 141.877Z" fill="white"/>
<path d="M240.641 60.236V119.743C240.641 125.398 236.04 129.979 230.367 129.979H207.811C202.138 129.979 197.537 125.395 197.537 119.743V60.236C197.537 54.5806 202.138 50 207.811 50H230.367C236.04 50 240.641 54.584 240.641 60.236Z" fill="#007CF9"/>
<path d="M237.107 53.611V114.371C237.107 119.68 232.787 123.982 227.462 123.982H203.645C198.32 123.982 194 119.68 194 114.371V53.611C194 48.3025 198.32 44 203.645 44H227.462C232.787 44 237.107 48.3025 237.107 53.611Z" stroke="white" stroke-width="1.37349" stroke-linecap="round" stroke-linejoin="round"/>
<path d="M229.199 51.647H208.971C206.667 51.647 204.799 49.7859 204.799 47.4887" stroke="white" stroke-width="1.37349" stroke-linecap="round" stroke-linejoin="round"/>
<path d="M224.169 82.3312L219.155 86.0121C218.238 86.6852 216.989 86.6852 216.072 86.0121L211.059 82.3312C209.194 80.9611 208.092 78.7876 208.092 76.4801V65.3926C208.092 64.6646 208.566 64.0225 209.259 63.8062L213.521 62.467C216.185 61.6292 219.042 61.6292 221.707 62.467L225.968 63.8062C226.661 64.0259 227.135 64.668 227.135 65.3926V76.4801C227.135 78.791 226.033 80.9611 224.169 82.3312Z" fill="black"/>
<path d="M222.108 79.5943L217.095 83.2752C216.178 83.9483 214.928 83.9483 214.011 83.2752L208.998 79.5943C207.134 78.2242 206.031 76.0507 206.031 73.7432V62.6557C206.031 61.9277 206.505 61.2856 207.199 61.0693L211.46 59.7301C214.125 58.8923 216.982 58.8923 219.646 59.7301L223.908 61.0693C224.601 61.289 225.075 61.9311 225.075 62.6557V73.7432C225.075 76.0541 223.973 78.2242 222.108 79.5943Z" stroke="white" stroke-width="1.37349" stroke-linecap="round" stroke-linejoin="round"/>
<path d="M126.406 128H86.7516C85.733 128 84.9072 128.824 84.9072 129.84C84.9072 130.857 85.733 131.681 86.7516 131.681H126.406C127.425 131.681 128.251 130.857 128.251 129.84C128.251 128.824 127.425 128 126.406 128Z" stroke="white" stroke-width="1.37349" stroke-linecap="round" stroke-linejoin="round"/>
<path d="M107.271 55.4241H105.887C105.505 55.4241 105.196 55.7331 105.196 56.1143C105.196 56.4955 105.505 56.8045 105.887 56.8045H107.271C107.653 56.8045 107.962 56.4955 107.962 56.1143C107.962 55.7331 107.653 55.4241 107.271 55.4241Z" stroke="white" stroke-width="1.03012" stroke-linecap="round" stroke-linejoin="round"/>
<path d="M121.775 48.4509H46.1539C43.289 48.4509 40.9666 50.7684 40.9666 53.6273C40.9666 56.4861 43.289 58.8036 46.1539 58.8036H121.775C124.64 58.8036 126.962 56.4861 126.962 53.6273C126.962 50.7684 124.64 48.4509 121.775 48.4509Z" fill="#007CF9"/>
<path d="M154.808 52.3943H58.438C54.3635 52.3943 51.0604 55.6903 51.0604 59.7562V115.431C51.0604 119.497 54.3635 122.793 58.438 122.793H154.808C158.883 122.793 162.186 119.497 162.186 115.431V59.7562C162.186 55.6903 158.883 52.3943 154.808 52.3943Z" stroke="white" stroke-width="1.37349" stroke-linecap="round" stroke-linejoin="round"/>
<path d="M108.726 109.554C118.551 109.554 126.517 101.589 126.517 91.7635C126.517 81.938 118.551 73.9728 108.726 73.9728C98.9002 73.9728 90.9351 81.938 90.9351 91.7635C90.9351 101.589 98.9002 109.554 108.726 109.554Z" fill="#004687"/>
<path d="M105.441 107.365C115.267 107.365 123.232 99.3994 123.232 89.5739C123.232 79.7483 115.267 71.7831 105.441 71.7831C95.6158 71.7831 87.6506 79.7483 87.6506 89.5739C87.6506 99.3994 95.6158 107.365 105.441 107.365Z" stroke="white" stroke-width="1.09481" stroke-linecap="round" stroke-linejoin="round"/>
<path d="M105.557 72.2429V107.364" stroke="white" stroke-width="1.09481" stroke-linecap="round" stroke-linejoin="round"/>
<path d="M123.233 89.6888H98.6704" stroke="white" stroke-width="1.09481" stroke-linecap="round" stroke-linejoin="round"/>
<path d="M93.1613 89.6888H87.8816" stroke="white" stroke-width="1.09481" stroke-linecap="round" stroke-linejoin="round"/>
<path d="M114.967 89.5739C114.967 94.5826 113.842 99.0823 112.06 102.307C110.265 105.555 107.895 107.365 105.439 107.365C102.984 107.365 100.614 105.555 98.8186 102.307C97.0368 99.0823 95.9119 94.5826 95.9119 89.5739C95.9119 84.5651 97.0368 80.0654 98.8186 76.8412C100.614 73.5923 102.984 71.7831 105.439 71.7831C107.895 71.7831 110.265 73.5923 112.06 76.8412C113.842 80.0654 114.967 84.5651 114.967 89.5739Z" stroke="white" stroke-width="1.09481" stroke-linecap="round" stroke-linejoin="round"/>
<path d="M117.723 77.5229C114.707 79.354 110.322 80.5063 105.442 80.5063C100.562 80.5063 96.1772 79.354 93.161 77.5229" stroke="white" stroke-width="1.09481" stroke-linecap="round" stroke-linejoin="round"/>
<path d="M93.161 102.085C96.1772 100.254 100.562 99.1016 105.442 99.1016C110.322 99.1016 114.707 100.254 117.723 102.085" stroke="white" stroke-width="1.09481" stroke-linecap="round" stroke-linejoin="round"/>
<path d="M103.464 33.5807V30.4904" stroke="white" stroke-width="1.37349" stroke-linecap="round" stroke-linejoin="round"/>
<path d="M99 29.1169H102.09" stroke="white" stroke-width="1.37349" stroke-linecap="round" stroke-linejoin="round"/>
<path d="M103.464 24.653V27.7434" stroke="white" stroke-width="1.37349" stroke-linecap="round" stroke-linejoin="round"/>
<path d="M107.928 29.1169H104.837" stroke="white" stroke-width="1.37349" stroke-linecap="round" stroke-linejoin="round"/>
<g clip-path="url(#clip0_4518_337)">
<rect x="158" y="26.3843" width="14" height="14" rx="7" fill="#214CE8"/>
<path d="M165.066 36.3843V31.0582H164.996L163.4 32.1964V31.2296L165.07 30.043H166.055V36.3843H165.066Z" fill="white"/>
</g>
<g clip-path="url(#clip1_4518_337)">
<rect x="160.958" y="137" width="14" height="14" rx="7" fill="#214CE8"/>
<path d="M165.857 147L165.857 146.328L167.967 144.122C168.248 143.829 168.466 143.588 168.621 143.401C168.777 143.21 168.885 143.041 168.947 142.891C169.011 142.742 169.043 142.581 169.043 142.408L169.043 142.399C169.043 142.191 168.998 142.006 168.907 141.845C168.819 141.681 168.692 141.554 168.525 141.463C168.358 141.369 168.158 141.322 167.927 141.322C167.693 141.322 167.486 141.371 167.307 141.467C167.129 141.564 166.99 141.699 166.89 141.872C166.79 142.044 166.74 142.247 166.74 142.478L166.74 142.496L165.809 142.491L165.804 142.482C165.807 142.096 165.901 141.754 166.086 141.458C166.27 141.16 166.527 140.927 166.855 140.76C167.183 140.59 167.559 140.505 167.984 140.505C168.377 140.505 168.727 140.583 169.034 140.738C169.345 140.89 169.59 141.103 169.768 141.375C169.947 141.645 170.036 141.954 170.036 142.302L170.036 142.315C170.036 142.556 169.992 142.789 169.905 143.014C169.817 143.24 169.664 143.487 169.448 143.757C169.234 144.026 168.935 144.352 168.551 144.732L166.951 146.328L167.206 145.884L167.206 146.328L166.956 146.156L170.137 146.156L170.137 147L165.857 147Z" fill="white"/>
</g>
<defs>
<clipPath id="clip0_4518_337">
<rect x="158" y="26.3843" width="14" height="14" rx="7" fill="white"/>
</clipPath>
<clipPath id="clip1_4518_337">
<rect x="160.958" y="137" width="14" height="14" rx="7" fill="white"/>
</clipPath>
</defs>
</svg>
