<svg width="21" height="20" viewBox="0 0 21 20" fill="none" xmlns="http://www.w3.org/2000/svg">
<path d="M6.03731 5.83333C7.19632 4.55568 8.89675 3.75 10.75 3.75C14.2017 3.75 17 6.54822 17 10C17 10.2651 16.9835 10.5261 16.9516 10.782C16.9089 11.1246 17.1519 11.4368 17.4945 11.4796C17.837 11.5223 18.1493 11.2793 18.192 10.9368C18.2303 10.6296 18.25 10.3169 18.25 10C18.25 5.85787 14.8921 2.5 10.75 2.5C8.64923 2.5 6.71281 3.36452 5.33331 4.75935V3.125C5.33331 2.77983 5.05349 2.5 4.70831 2.5C4.36314 2.5 4.08331 2.77983 4.08331 3.125V5.83333C4.08331 6.52369 4.64295 7.08333 5.33331 7.08333H8.04165C8.38682 7.08333 8.66665 6.80351 8.66665 6.45833C8.66665 6.11316 8.38682 5.83333 8.04165 5.83333H6.03731Z" fill="#214CE8"/>
<path d="M4.54838 9.21801C4.5911 8.87542 4.34805 8.56317 4.00552 8.52042C3.663 8.47776 3.35071 8.72076 3.30799 9.06326C3.2697 9.37042 3.25 9.68309 3.25 10C3.25 14.1422 6.60787 17.5 10.75 17.5C12.8558 17.5 14.7964 16.6313 16.1765 15.2307V16.875C16.1765 17.2202 16.4563 17.5 16.8015 17.5C17.1468 17.5 17.4265 17.2202 17.4265 16.875V14.1667C17.4265 13.4763 16.8669 12.9167 16.1765 12.9167H13.4682C13.123 12.9167 12.8432 13.1965 12.8432 13.5417C12.8432 13.8868 13.123 14.1667 13.4682 14.1667H15.4627C14.3037 15.4443 12.6032 16.25 10.75 16.25C7.29822 16.25 4.5 13.4518 4.5 10C4.5 9.73492 4.51648 9.47392 4.54838 9.21801Z" fill="#214CE8"/>
</svg>
