<svg width="40" height="40" viewBox="0 0 40 40" fill="none" xmlns="http://www.w3.org/2000/svg">
<path d="M5.5 37C5.5 38.3807 4.38071 39.5 3 39.5C1.61929 39.5 0.5 38.3807 0.5 37L5.5 37ZM37 0.499997C38.3807 0.499997 39.5 1.61928 39.5 3C39.5 4.38071 38.3807 5.5 37 5.5L37 0.499997ZM0.5 37L0.499999 27L5.5 27L5.5 37L0.5 37ZM27 0.499998L37 0.499997L37 5.5L27 5.5L27 0.499998ZM0.499999 27C0.499998 12.3645 12.3645 0.499999 27 0.499998L27 5.5C15.1259 5.5 5.5 15.1259 5.5 27L0.499999 27Z" fill="white"/>
</svg>
