<svg width="153" height="70" viewBox="0 0 153 70" fill="none" xmlns="http://www.w3.org/2000/svg">
<rect x="1" y="0.5" width="69" height="69" rx="34.5" fill="#AFC6F6"/>
<rect x="1" y="0.5" width="69" height="69" rx="34.5" stroke="#F2F2F7"/>
<path d="M31.75 47.0833H39.25M26.75 52.0833H44.25C45.1705 52.0833 45.9166 51.3371 45.9166 50.4166V19.5833C45.9166 18.6628 45.1705 17.9166 44.25 17.9166H26.75C25.8295 17.9166 25.0833 18.6628 25.0833 19.5833V50.4166C25.0833 51.3371 25.8295 52.0833 26.75 52.0833Z" stroke="white" stroke-width="2" stroke-linecap="round" stroke-linejoin="round"/>
<rect x="42.5" y="1" width="68" height="68" rx="34" fill="#3E77E8"/>
<rect x="42.5" y="1" width="68" height="68" rx="34" stroke="#F2F2F7" stroke-width="2"/>
<path fill-rule="evenodd" clip-rule="evenodd" d="M63.3044 35C63.3044 38.6745 64.8064 41.9984 67.2299 44.391L65.8919 46.0252C62.9996 43.2418 61.2 39.331 61.2 35C61.2 26.55 68.0501 19.7 76.5 19.7C84.95 19.7 91.8 26.55 91.8 35C91.8 43.4499 84.95 50.3 76.5 50.3C73.138 50.3 70.0293 49.2156 67.5045 47.3775L68.8402 45.7461C70.7345 47.0988 73.0017 47.9631 75.4576 48.1551V45.3803C70.1857 44.8573 66.0682 40.4095 66.0682 35C66.0682 32.3094 67.0868 29.8568 68.7594 28.0066L70.1826 29.5742C69.1849 30.7348 68.5016 32.1734 68.2646 33.7579H71.0756C71.5639 31.6164 73.2878 29.9451 75.4576 29.5338V31.7005C74.0566 32.1428 73.0408 33.4527 73.0408 35C73.0408 36.9104 74.5896 38.4593 76.5 38.4593C78.4105 38.4593 79.9593 36.9104 79.9593 35C79.9593 33.4599 78.953 32.155 77.562 31.7067V29.5376C80.1267 30.0333 82.0637 32.2904 82.0637 35C82.0637 38.0727 79.5728 40.5636 76.5 40.5636C73.7206 40.5636 71.4172 38.5254 71.0028 35.8623H68.2167C68.6482 40.0562 72.1921 43.3274 76.5 43.3274C80.6993 43.3274 84.1726 40.2193 84.7449 36.1779H86.8661C86.3201 41.0366 82.4366 44.8856 77.562 45.3785V48.1535C84.3532 47.6127 89.6956 41.9302 89.6956 35C89.6956 30.9819 87.8998 27.3832 85.0667 24.9629L83.427 27.1998C85.3608 28.9184 86.6512 31.3452 86.8913 34.0735H84.7766C84.3158 29.9104 80.786 26.6725 76.5 26.6725C74.7318 26.6725 73.0924 27.2236 71.7441 28.1634L70.32 26.5949C72.0498 25.321 74.187 24.5681 76.5 24.5681C78.4024 24.5681 80.1859 25.0774 81.7215 25.9669L83.3633 23.7274C81.3636 22.5073 79.0139 21.8043 76.5 21.8043C69.2123 21.8043 63.3044 27.7122 63.3044 35Z" fill="white"/>
<rect x="83.5" y="1" width="68" height="68" rx="34" fill="#0036BB"/>
<rect x="83.5" y="1" width="68" height="68" rx="34" stroke="#F2F2F7" stroke-width="2"/>
<path d="M110.845 35L103.737 38.5367C102.56 39.1222 102.56 40.8127 103.737 41.3984L116.798 47.8974C117.241 48.1176 117.76 48.1176 118.202 47.8974L131.263 41.3984C132.44 40.8127 132.44 39.1222 131.263 38.5367L124.156 35M110.845 35L103.737 31.4634C102.56 30.8777 102.56 29.1873 103.737 28.6016L116.798 22.1026C117.241 21.8825 117.76 21.8825 118.202 22.1026L131.263 28.6016C132.44 29.1873 132.44 30.8777 131.263 31.4634L124.156 35M110.845 35L116.798 37.9624C117.241 38.1825 117.76 38.1825 118.202 37.9624L124.156 35" stroke="white" stroke-width="2" stroke-linecap="square" stroke-linejoin="round"/>
</svg>
