<svg width="152" height="70" viewBox="0 0 152 70" fill="none" xmlns="http://www.w3.org/2000/svg">
<rect x="0.5" y="0.5" width="69" height="69" rx="34.5" fill="#004687"/>
<rect x="0.5" y="0.5" width="69" height="69" rx="34.5" stroke="black"/>
<path d="M31.25 47.0833H38.75M26.25 52.0833H43.75C44.6705 52.0833 45.4167 51.3371 45.4167 50.4166V19.5833C45.4167 18.6628 44.6705 17.9166 43.75 17.9166H26.25C25.3296 17.9166 24.5834 18.6628 24.5834 19.5833V50.4166C24.5834 51.3371 25.3296 52.0833 26.25 52.0833Z" stroke="white" stroke-width="2" stroke-linecap="round" stroke-linejoin="round"/>
<rect x="42" y="1" width="68" height="68" rx="34" fill="#0067E2"/>
<rect x="42" y="1" width="68" height="68" rx="34" stroke="black" stroke-width="2"/>
<path fill-rule="evenodd" clip-rule="evenodd" d="M62.8043 35C62.8043 38.6745 64.3063 41.9984 66.7299 44.391L65.3918 46.0252C62.4996 43.2418 60.7 39.331 60.7 35C60.7 26.55 67.55 19.7 76 19.7C84.4499 19.7 91.3 26.55 91.3 35C91.3 43.4499 84.4499 50.3 76 50.3C72.6379 50.3 69.5292 49.2156 67.0044 47.3775L68.3401 45.7461C70.2345 47.0988 72.5017 47.9631 74.9576 48.1551V45.3803C69.6857 44.8573 65.5682 40.4095 65.5682 35C65.5682 32.3094 66.5868 29.8568 68.2593 28.0066L69.6825 29.5742C68.6849 30.7348 68.0015 32.1734 67.7646 33.7579H70.5755C71.0638 31.6164 72.7878 29.9451 74.9576 29.5338V31.7005C73.5565 32.1428 72.5407 33.4527 72.5407 35C72.5407 36.9104 74.0895 38.4593 76 38.4593C77.9104 38.4593 79.4593 36.9104 79.4593 35C79.4593 33.4599 78.453 32.155 77.062 31.7067V29.5376C79.6267 30.0333 81.5636 32.2904 81.5636 35C81.5636 38.0727 79.0727 40.5636 76 40.5636C73.2205 40.5636 70.9171 38.5254 70.5028 35.8623H67.7166C68.1481 40.0562 71.692 43.3274 76 43.3274C80.1993 43.3274 83.6725 40.2193 84.2448 36.1779H86.366C85.8201 41.0366 81.9365 44.8856 77.062 45.3785V48.1535C83.8531 47.6127 89.1956 41.9302 89.1956 35C89.1956 30.9819 87.3997 27.3832 84.5667 24.9629L82.927 27.1998C84.8608 28.9184 86.1512 31.3452 86.3913 34.0735H84.2765C83.8157 29.9104 80.286 26.6725 76 26.6725C74.2318 26.6725 72.5924 27.2236 71.244 28.1634L69.82 26.5949C71.5498 25.321 73.687 24.5681 76 24.5681C77.9023 24.5681 79.6858 25.0774 81.2215 25.9669L82.8632 23.7274C80.8635 22.5073 78.5139 21.8043 76 21.8043C68.7122 21.8043 62.8043 27.7122 62.8043 35Z" fill="white"/>
<rect x="83" y="1" width="68" height="68" rx="34" fill="#009EFA"/>
<rect x="83" y="1" width="68" height="68" rx="34" stroke="black" stroke-width="2"/>
<path d="M110.345 35L103.237 38.5367C102.06 39.1222 102.06 40.8127 103.237 41.3984L116.298 47.8974C116.741 48.1176 117.26 48.1176 117.702 47.8974L130.763 41.3984C131.94 40.8127 131.94 39.1222 130.763 38.5367L123.656 35M110.345 35L103.237 31.4634C102.06 30.8777 102.06 29.1873 103.237 28.6016L116.298 22.1026C116.741 21.8825 117.26 21.8825 117.702 22.1026L130.763 28.6016C131.94 29.1873 131.94 30.8777 130.763 31.4634L123.656 35M110.345 35L116.298 37.9624C116.741 38.1825 117.26 38.1825 117.702 37.9624L123.656 35" stroke="white" stroke-width="2" stroke-linecap="square" stroke-linejoin="round"/>
</svg>
