<svg width="57" height="66" viewBox="0 0 57 66" fill="none" xmlns="http://www.w3.org/2000/svg">
<g clip-path="url(#clip0_2150_18385)">
<path d="M46.6115 54.5258L30.8447 64.8045C29.5898 65.6169 27.9574 65.6261 26.7025 64.8228L10.5583 54.5075C4.28365 50.4992 0.5 43.7003 0.5 36.424V11.4566C0.5 8.17943 2.77397 5.31307 6.03867 4.47508L20.8053 0.668486C25.8439 -0.636891 31.1561 -0.636891 36.1947 0.668486L50.9613 4.47508C54.226 5.3149 56.5 8.18125 56.5 11.4584V36.5527C56.5094 43.7642 52.8012 50.501 46.6115 54.5267V54.5258Z" fill="#214CE8"/>
<path d="M41.0972 21.5222H16.0487C14.0683 21.5222 12.4678 19.9437 12.4678 17.9906C12.4678 16.0375 14.0683 14.459 16.0487 14.459H41.0972C43.0775 14.459 44.6781 16.0375 44.6781 17.9906C44.6691 19.9437 43.0685 21.5222 41.0972 21.5222Z" fill="white"/>
<path d="M24.992 32.1067H16.0487C14.0683 32.1067 12.4678 30.5281 12.4678 28.5751C12.4678 26.622 14.0683 25.0435 16.0487 25.0435H24.992C26.9724 25.0435 28.5729 26.622 28.5729 28.5751C28.5729 30.5281 26.9724 32.1067 24.992 32.1067Z" fill="white"/>
<path d="M19.0515 39.1348C19.3951 39.1348 19.6483 39.4469 19.585 39.7769C19.2776 41.4178 17.8217 42.6664 16.0674 42.6664C14.3131 42.6664 12.8572 41.4178 12.5498 39.7769C12.4865 39.4469 12.7397 39.1348 13.0833 39.1348H19.0515Z" fill="white"/>
<path d="M14.222 38.109C14.0954 38.109 13.9779 38.0823 13.8603 38.0199C13.4715 37.8237 13.3178 37.351 13.5167 36.9675C14.005 36.0222 14.9816 35.4336 16.0577 35.4336C17.1338 35.4336 18.1104 36.0222 18.5987 36.9675C18.7977 37.351 18.6439 37.8237 18.2551 38.0199C18.1466 38.0734 18.02 38.109 17.8934 38.109C17.595 38.109 17.3237 37.9485 17.1881 37.681C16.971 37.2618 16.537 37.0032 16.0577 37.0032C15.5784 37.0032 15.1444 37.2618 14.9274 37.681C14.8008 37.9396 14.5295 38.109 14.222 38.109Z" fill="white"/>
</g>
<defs>
<clipPath id="clip0_2150_18385">
<rect width="56" height="66" fill="white" transform="translate(0.5)"/>
</clipPath>
</defs>
</svg>
