<svg width="90" height="90" viewBox="0 0 90 90" fill="none" xmlns="http://www.w3.org/2000/svg">
<g clip-path="url(#clip0_21_915)">
<path d="M0 -0.363892V89.6361H90V-0.363892H0Z" fill="white"/>
<path d="M73.944 21.7221L76.824 13.8921H90V-0.363892H0V89.6361H90V75.4161H77.58L72.99 70.0521L68.22 75.4161H32.94V46.8321H21.294L35.856 13.8921H50.022L53.442 21.3621V13.8921H71.028L73.962 21.7221H73.944ZM64.026 26.9061L63.99 23.7561L65.196 26.9061L71.046 42.5301H76.86L82.746 26.9061L83.88 23.7921V42.5481H90V18.5541H79.83L75.204 30.7401L73.98 34.0341L72.72 30.7401L68.076 18.5541H57.906V42.5481H64.026V26.9061ZM50.85 42.5301H57.906L47.34 18.5361H39.15L28.53 42.5301H35.496L37.35 37.9041H48.996L50.85 42.5301ZM41.976 26.6721L43.182 23.6661L44.388 26.6721L46.872 32.7381H39.492L41.976 26.6721ZM37.854 46.8501V70.7541H57.888V65.5701H43.974V61.3941H57.618V56.2281H43.974V52.0341H57.888V46.8501H37.854ZM80.19 70.7721H88.146L76.932 58.7661L88.146 46.8501H80.316L73.08 54.6261L65.88 46.8501H57.906L69.102 58.8561L57.906 70.7721H65.646L72.936 62.9781L80.19 70.7721ZM83.214 58.7301L90 65.6241V51.9081L83.214 58.7121V58.7301Z" fill="#006FCF"/>
</g>
<defs>
<clipPath id="clip0_21_915">
<rect width="90" height="90" rx="8.18175" fill="white"/>
</clipPath>
</defs>
</svg>
