<svg xmlns="http://www.w3.org/2000/svg" width="90" height="90"><path style="fill:#fff;fill-opacity:1;stroke:none" d="M0 0h90v90H0z"/><path style="stroke:none;fill-rule:nonzero;fill:#006fcf;fill-opacity:1" d="M90 90V75.738H79.14l-5.59-6.18-5.616 6.18H32.137V46.93H20.582l14.332-32.434h13.82l4.934 11.113V14.496h17.11l2.968 8.371 2.992-8.37H90V0H0v90zm-9.027-17.867H90L78.059 59.465 90 46.945h-8.887l-7.375 8.059-7.304-8.059h-9.032L69.277 59.54 57.402 72.133h8.782L73.594 64zm2.109-12.656L90 66.836V52.18zM42.828 66.3v-3.922h14.215V56.69H42.828v-3.918h14.574v-5.832H35.957V72.13h21.445V66.3zM83.2 43.289H90V18.102H79.418L73.77 33.789l-5.614-15.687H57.398v25.187H64.2V25.656l6.477 17.633h6.047l6.476-17.668zm-33.535 0h7.734L46.281 18.102H37.43L26.313 43.289h7.554l2.086-5.039H47.54zm-4.496-10.687h-6.84l3.418-8.243zm0 0"/></svg>