<svg width="20" height="20" viewBox="0 0 20 20" fill="none" xmlns="http://www.w3.org/2000/svg">
<g clip-path="url(#clip0_984_22447)">
<path d="M7.07827 12.5891C7.07827 12.3797 7.42225 12.2466 7.7057 12.3465L9.45395 12.9888C9.59087 13.0374 9.6759 13.1306 9.6759 13.2319V18.0457C9.6759 18.2557 9.33432 18.3888 9.05135 18.2888L7.30023 17.646C7.16331 17.5975 7.07827 17.5043 7.07827 17.4029V12.5891ZM3.83496 2.12463C3.83496 1.91517 4.17942 1.78161 4.46239 1.88154L6.21304 2.52434C6.34996 2.57527 6.43547 2.66607 6.43547 2.76744V17.8656C6.43547 18.075 6.09101 18.2081 5.80804 18.1087L4.05691 17.4654C3.92 17.4173 3.83496 17.3237 3.83496 17.2223V2.12463ZM10.3211 11.7811C10.3211 11.5716 10.6656 11.438 10.9485 11.538L12.6997 12.1808C12.8366 12.2293 12.9216 12.3225 12.9216 12.4239V16.8601C12.9216 17.0695 12.5772 17.2026 12.2942 17.1027L10.5431 16.4599V16.4589C10.4066 16.4109 10.3211 16.3177 10.3211 16.2163V11.7811ZM13.5659 6.37587C13.5659 6.1664 13.9074 6.03285 14.1904 6.13277L15.9415 6.77558H15.9439C16.0809 6.8241 16.1664 6.9173 16.1664 7.01867V14.3047C16.1664 14.5142 15.8219 14.6472 15.5389 14.5473L13.7878 13.9045C13.6509 13.8565 13.5659 13.7633 13.5659 13.6619V6.37587ZM10.3211 3.81715C10.3211 3.61009 10.6656 3.47702 10.9485 3.57694L12.6997 4.21974C12.8366 4.26779 12.9216 4.35858 12.9216 4.45995V8.89615C12.9216 9.10561 12.5772 9.23917 12.2942 9.13924L10.5431 8.49644C10.4066 8.44792 10.3211 8.35471 10.3211 8.25335V3.81715ZM7.07827 1.94111C7.07827 1.73405 7.42225 1.60098 7.7057 1.7009L9.45395 2.34323C9.59087 2.39175 9.6759 2.48495 9.6759 2.58632V7.41261C9.6759 7.62207 9.33432 7.75563 9.05135 7.6557L7.30023 7.0129C7.16331 6.96486 7.07827 6.87118 7.07827 6.76981V1.94111Z" fill="#10363D"/>
</g>
<defs>
<clipPath id="clip0_984_22447">
<rect width="16.6667" height="16.6667" fill="white" transform="translate(1.66699 1.66699)"/>
</clipPath>
</defs>
</svg>
