<svg xmlns="http://www.w3.org/2000/svg" width="90" height="53" viewBox="0 0 84 53"><path style="stroke:none;fill-rule:nonzero;fill:#ed171f;fill-opacity:1" d="M16.453.102h20.969c2.926 0 4.75 2.394 4.062 5.343l-9.761 42.11c-.688 2.949-3.621 5.343-6.547 5.343H4.21c-2.926 0-4.75-2.394-4.063-5.343L9.91 5.445c.688-2.949 3.61-5.343 6.543-5.343zm0 0"/><path style="stroke:none;fill-rule:nonzero;fill:#082f67;fill-opacity:1" d="M35.676.102h24.11c2.933 0 1.609 2.394.921 5.343l-9.762 42.11c-.68 2.949-.465 5.343-3.406 5.343H23.43c-2.933 0-4.745-2.394-4.05-5.343l9.754-42.11c.695-2.949 3.62-5.343 6.543-5.343zm0 0"/><path style="stroke:none;fill-rule:nonzero;fill:#006a65;fill-opacity:1" d="M58.832.102h20.969c2.922 0 4.75 2.394 4.062 5.343l-9.761 42.11c-.688 2.949-3.614 5.343-6.555 5.343H46.586c-2.922 0-4.746-2.394-4.063-5.343l9.766-42.11C52.977 2.496 55.9.102 58.832.102zm0 0"/><path style="stroke:none;fill-rule:evenodd;fill:#fff;fill-opacity:1" d="m62.266 31.188-2.551 8.5h.687l-.539 1.753h-.687l-.156.555h-2.434l.168-.555h-4.945l.5-1.625h.5l2.59-8.629.519-1.734h2.484l-.265.879s.668-.484 1.293-.64c.62-.169 4.218-.231 4.218-.231l-.527 1.727zM56.91 34.44l-.68 2.258s.747-.383 1.149-.504c.414-.097 1.023-.175 1.023-.175l.48-1.579zm.988-3.254-.656 2.18s.738-.336 1.14-.445c.403-.106 1.009-.145 1.009-.145l.48-1.59zm-2.57 8.528h1.984l.567-1.91H55.91zm0 0"/><path style="stroke:none;fill-rule:nonzero;fill:#fff;fill-opacity:1" d="M63.367 29.46h2.637l.039.997c-.02.164.125.246.434.238h.539l-.5 1.637h-1.422c-1.246.098-1.707-.445-1.68-1.035zm.34 7.77h-2.52l.43-1.457h2.887l.41-1.332H62.07l.492-1.644h7.926l-.5 1.644h-2.66l-.41 1.332h2.66l-.441 1.457H66.25l-.512.614h1.18l.285 1.832c.027.187.027.308.086.386.059.067.414.098.61.098h.363l-.54 1.785h-.902c-.136 0-.347-.011-.629-.03-.273-.02-.472-.177-.648-.267a.869.869 0 0 1-.469-.62l-.277-1.833L63.484 41c-.414.57-.98 1.004-1.933 1.004h-1.836l.48-1.598h.707c.196 0 .383-.078.512-.148a.823.823 0 0 0 .39-.324zM36.07 33.238h6.68l-.488 1.61h-2.68l-.414 1.359h2.738l-.5 1.656h-2.738l-.656 2.219c-.078.246.648.285.914.285l1.363-.195-.55 1.832h-3.083c-.246 0-.43-.04-.695-.098-.266-.058-.371-.18-.492-.355-.117-.188-.282-.336-.164-.719l.883-2.937h-1.524l.512-1.688h1.52l.402-1.36H35.59zm4.504-2.879h2.735l-.5 1.676h-3.746l-.403.356c-.18.168-.238.097-.46.218-.22.106-.66.325-1.24.325h-1.194l.48-1.618h.363c.305 0 .512-.03.618-.09.117-.078.25-.253.402-.53l.687-1.255h2.727zm0 0"/><path style="stroke:none;fill-rule:evenodd;fill:#fff;fill-opacity:1" d="M44.488 29.46h2.336l-.344 1.185s.735-.59 1.254-.81c.512-.187 1.68-.362 1.68-.362l3.777-.02-1.285 4.309c-.218.738-.472 1.21-.629 1.43a1.621 1.621 0 0 1-.636.59c-.32.171-.614.269-.875.296-.25.02-.637.035-1.168.04h-3.641l-1.02 3.402c-.097.343-.148.503-.09.59.063.081.18.18.356.18l1.598-.161-.54 1.875h-1.804c-.562 0-.988-.012-1.277-.04-.274-.019-.567 0-.754-.148-.176-.148-.43-.343-.422-.543.02-.183.09-.484.215-.906zm4.953 4.352h-3.824l-.238.778h3.316c.383-.05.473 0 .5-.012zm-3.62-.71s.757-.68 2.03-.907c.297-.062 2.11-.039 2.11-.039l.277-.918h-3.855zm0 0"/><path style="stroke:none;fill-rule:nonzero;fill:#fff;fill-opacity:1" d="m51.297 36.414-.215 1.035c-.098.324-.176.57-.422.778-.246.218-.55.445-1.258.445l-1.285.05-.02 1.173c-.007.335.079.296.13.355a.4.4 0 0 0 .175.098l.403-.02 1.234-.07-.508 1.707h-1.414c-1 0-1.734-.02-1.98-.219-.239-.144-.266-.344-.266-.668l.09-4.555h2.266l-.032.926h.551c.184.008.313-.015.39-.07a.471.471 0 0 0 .16-.234l.216-.73zm-32.36-22.863c-.09.363-1.539 7.117-1.539 7.117-.316 1.36-.543 2.348-1.316 2.969-.437.36-.957.543-1.55.543-.954 0-1.512-.485-1.61-1.383l-.02-.317s.293-1.82.293-1.832c0 0 1.532-6.152 1.809-6.96a.347.347 0 0 1 .02-.09c-2.973.02-3.504 0-3.536-.047-.02.058-.097.441-.097.441l-1.559 6.922-.137.594-.258 1.922c0 .562.114 1.039.336 1.43.715 1.25 2.739 1.437 3.887 1.437 1.48 0 2.852-.324 3.797-.895 1.617-.968 2.05-2.476 2.434-3.816l.175-.68s1.57-6.39 1.832-7.218c.008-.04.02-.07.032-.09-2.16.02-2.785 0-2.992-.047zm8.704 12.68a27.477 27.477 0 0 0-2.66.046l-.047-.097c.109-.47.218-.938.324-1.41l.156-.641c.223-1.004.45-2.18.48-2.524.02-.218.086-.75-.519-.75-.258 0-.52.118-.797.247-.144.53-.45 2.03-.59 2.71-.3 1.442-.32 1.61-.46 2.317l-.087.101c-1.09-.02-1.46-.02-2.718.047l-.059-.109c.215-.86.422-1.719.617-2.57.532-2.317.649-3.207.797-4.391l.098-.066c1.226-.168 1.52-.207 2.836-.473l.117.117-.207.738c.223-.128.445-.257.668-.382a4.137 4.137 0 0 1 1.695-.395c.582 0 1.207.156 1.473.828.258.602.09 1.34-.246 2.801l-.164.727c-.344 1.628-.395 1.925-.59 3.027zm4.277 0c-.629-.012-1.04-.02-1.441-.012-.395.011-.786.031-1.375.058l-.028-.058-.039-.051c.156-.61.242-.828.32-1.043.082-.219.16-.434.305-1.055.18-.82.297-1.383.375-1.875.086-.48.137-.894.195-1.37l.051-.04.047-.039c.637-.086 1.04-.148 1.442-.215.421-.058.835-.14 1.492-.265l.039.117a300.178 300.178 0 0 0-.715 3.027c-.234 1.063-.336 1.457-.383 1.742-.058.278-.07.426-.168.977zM41.398 22.582c.36-1.637.079-2.398-.285-2.86-.55-.71-1.511-.937-2.523-.937-.61 0-2.05.07-3.168 1.113-.805.75-1.188 1.774-1.414 2.75-.227.997-.492 2.793 1.156 3.461.512.22 1.238.278 1.711.278 1.207 0 2.43-.336 3.363-1.32.715-.81 1.04-2.005 1.16-2.485zm-2.757-.121c-.059.277-.297 1.293-.63 1.727-.226.324-.491.511-.784.511-.09 0-.61 0-.618-.777 0-.375.078-.777.164-1.203.286-1.23.61-2.266 1.446-2.266.656 0 .707.766.422 2.008zM67.172 26.336a47.22 47.22 0 0 0-2.817.039l-.078-.098a135.2 135.2 0 0 0 .934-3.656c.363-1.59.45-2.27.566-3.207l.102-.078a47.981 47.981 0 0 0 2.933-.473l.04.11c-.243 1-.48 2-.72 3.007-.48 2.098-.655 3.165-.843 4.27zm0 0"/><path style="stroke:none;fill-rule:nonzero;fill:#fff;fill-opacity:1" d="M67.781 22.719c.364-1.617-1.117-.137-1.355-.672-.371-.836-.137-2.531-1.61-3.094-.558-.219-1.882.07-3.011 1.106-.805.746-1.188 1.753-1.403 2.73-.234.984-.492 2.777 1.137 3.422.52.227.992.285 1.465.266 1.648-.09 2.902-2.586 3.824-3.57.719-.778.844.296.953-.188zm-2.523-.117c-.059.253-.293 1.289-.625 1.722-.219.309-.727.504-1.024.504-.086 0-.597 0-.617-.77 0-.382.078-.777.176-1.21.277-1.203.602-2.239 1.434-2.239.668 0 .941.75.656 1.993zM48.598 26.23a28.35 28.35 0 0 0-2.657.047l-.05-.097c.109-.47.222-.938.332-1.41l.148-.641c.234-1.004.453-2.18.48-2.524.02-.218.09-.75-.511-.75-.262 0-.528.118-.793.247-.149.53-.453 2.03-.598 2.71-.297 1.442-.324 1.61-.453 2.317l-.098.101a29.426 29.426 0 0 0-2.707.047l-.05-.109c.203-.86.406-1.719.609-2.57.52-2.317.648-3.207.797-4.391l.098-.066c1.214-.168 1.507-.207 2.835-.473l.098.117-.187.738c.214-.128.433-.257.656-.382a4.166 4.166 0 0 1 1.7-.395c.577 0 1.206.156 1.48.828.246.602.078 1.34-.254 2.801l-.168.727c-.344 1.628-.39 1.925-.578 3.027zM57.734 13.54l-.875.01c-2.285.028-3.199.02-3.57-.03-.039.168-.098.464-.098.464l-.816 3.805s-1.953 8.094-2.04 8.469c1.981-.02 2.806-.02 3.142.012l.546-2.633s.395-1.657.422-1.727c0 0 .117-.168.246-.238h.188c1.707 0 3.648 0 5.172-1.121 1.027-.77 1.734-1.903 2.05-3.285.087-.344.145-.75.145-1.145 0-.531-.105-1.055-.422-1.469-.765-1.082-2.304-1.101-4.09-1.113zm1.137 3.952c-.187.848-.726 1.559-1.422 1.903-.59.296-1.297.316-2.023.316h-.469l.04-.188s.874-3.796.862-3.785l.032-.195.007-.148.352.039s1.79.148 1.828.156c.715.265 1 .988.793 1.902zM77.594 18.855l-.098-.12c-1.305.265-1.543.308-2.738.464l-.09.09a.301.301 0 0 0-.008.059l-.012-.02c-.89 2.07-.863 1.625-1.59 3.242 0-.066-.003-.129-.007-.195l-.176-3.52-.121-.12c-1.352.265-1.39.308-2.649.464l-.105.09-.02.137.008.02c.157.82.13.632.285 1.902l.235 1.875c.129 1.035.195 1.547.344 3.125-.844 1.41-1.051 1.953-1.856 3.183l.04.117c1.237-.046 1.523-.046 2.425-.046l.207-.227c.684-1.488 5.926-10.52 5.926-10.52zm-44.52.868c.7-.485.785-1.157.2-1.508-.602-.356-1.63-.238-2.337.246-.707.48-.785 1.16-.195 1.508.586.343 1.637.246 2.332-.246zm0 0"/><path style="stroke:none;fill-rule:nonzero;fill:#fff;fill-opacity:1" d="m71.566 29.504-1.02 1.754c-.323.601-.921 1.055-1.882 1.062l-1.629-.027.473-1.586h.32c.164.004.293-.016.383-.062.082-.024.148-.086.207-.188l.598-.953zm0 0"/></svg>