<svg width="90" height="57" viewBox="0 0 90 57" fill="none" xmlns="http://www.w3.org/2000/svg">
<path fill-rule="evenodd" clip-rule="evenodd" d="M71.4808 57H5.82252C3.7972 57 2.17076 56.1477 1.15261 54.8248C0.150243 53.5218 -0.277477 51.7312 0.188005 49.7483L10.3126 6.60465C11.1653 2.95048 14.8424 0 18.5155 0H84.1778C86.2045 0 87.8323 0.852344 88.8498 2.17655C89.8508 3.48029 90.2778 5.27362 89.811 7.25993L79.6926 50.4063V50.4076C78.8344 54.0495 75.1573 57 71.4808 57Z" fill="white"/>
<path d="M18.4282 1.36392H40.1618C43.1959 1.36392 45.0846 3.82069 44.3767 6.84619L34.2565 49.9922C33.5415 53.0087 30.5054 55.4654 27.4704 55.4654H5.73574C2.70069 55.4654 0.813947 53.0087 1.52186 49.9922L11.6472 6.84619C12.3531 3.82069 15.3871 1.36392 18.4282 1.36392Z" fill="#ED171F"/>
<path d="M38.3544 1.36392H63.3498C66.3829 1.36392 65.0149 3.82069 64.3019 6.84619L54.1826 49.9922C53.4757 53.0087 53.6975 55.4654 50.6563 55.4654H25.6629C22.6248 55.4654 20.7431 53.0087 21.4571 49.9922L31.5723 6.84619C32.2873 3.82069 35.3203 1.36392 38.3544 1.36392Z" fill="#082F67"/>
<path d="M62.3609 1.36392H84.0915C87.1275 1.36392 89.0143 3.82069 88.3033 6.84619L78.1851 49.9922C77.4742 53.0087 74.4391 55.4654 71.3939 55.4654H49.6694C46.6283 55.4654 44.7446 53.0087 45.4576 49.9922L55.5727 6.84619C56.2847 3.82069 59.3187 1.36392 62.3609 1.36392Z" fill="#006A65"/>
<path fill-rule="evenodd" clip-rule="evenodd" d="M60.0891 15.1584H60.9983L61.1711 15.1621C62.9551 15.2005 64.453 15.2327 65.2138 16.2667C65.5031 16.6771 65.6271 17.2107 65.6271 17.7443C65.6271 18.1959 65.5444 18.6063 65.4617 18.9347C65.1311 20.3303 64.4285 21.5207 63.354 22.3005C61.7835 23.4499 59.7584 23.4499 57.9813 23.4499H57.816C57.692 23.532 57.568 23.6961 57.568 23.6961C57.568 23.7782 57.1547 25.4612 57.1547 25.4612C57.1547 25.4612 56.6588 27.8008 56.5761 28.1703C56.2455 28.1292 55.3776 28.1292 53.3525 28.1703C53.4352 27.7598 55.4603 19.5094 55.4603 19.5094L56.2868 15.6099L56.4108 15.1173C56.7828 15.1584 57.7333 15.1994 60.0891 15.1584ZM60.709 21.1512C61.4529 20.8229 61.9902 20.084 62.1968 19.222C62.4034 18.278 62.1142 17.5391 61.4116 17.2518C61.3702 17.2518 59.5105 17.0876 59.5105 17.0876L59.1385 17.0466V17.2107L59.0972 17.416L58.188 21.2744L58.1466 21.4796H58.6426C59.3865 21.4796 60.1304 21.4386 60.709 21.1512Z" fill="white"/>
<path d="M20.9098 15.1992C20.8271 15.5687 19.3393 22.4645 19.3393 22.4645C19.0087 23.8601 18.7607 24.8453 17.9755 25.502C17.5208 25.8714 16.9836 26.0356 16.3637 26.0356C15.3718 26.0356 14.7932 25.5431 14.7105 24.64L14.6692 24.3117L14.9585 22.4235C14.9585 22.4235 16.529 16.1433 16.8183 15.3224C16.8183 15.2813 16.8596 15.2403 16.8596 15.2403C13.8013 15.2813 13.2227 15.2403 13.2227 15.1992C13.2227 15.2813 13.14 15.6508 13.14 15.6508L11.5282 22.7108L11.4042 23.3265L11.1563 25.2968C11.1563 25.8714 11.2803 26.364 11.4869 26.7745C12.2308 28.0469 14.2972 28.2522 15.4958 28.2522C17.0249 28.2522 18.4301 27.9238 19.4219 27.3491C21.0469 26.4044 21.4936 24.9312 21.892 23.6173L21.943 23.4497L22.1083 22.7519C22.1083 22.7519 23.7201 16.2254 24.0094 15.3634V15.2813C23.4973 15.2719 23.0679 15.2647 22.7077 15.2586C21.4981 15.2381 21.069 15.2309 20.9098 15.1992Z" fill="white"/>
<path fill-rule="evenodd" clip-rule="evenodd" d="M65.7098 33.2189L63.0648 41.8798H63.7673L63.5054 42.7603L63.5606 42.5775H64.3045C64.5112 42.5775 64.6765 42.4954 64.8418 42.4134C64.9658 42.3723 65.0898 42.2902 65.2551 42.085L67.1975 39.3759H64.5938L65.0484 37.8982H68.0241L68.4374 36.5437H65.5031L65.999 34.8607H74.182L73.6861 36.5437H70.9584L70.5038 37.8982H73.2728L72.8182 39.3759H69.8425L69.3053 39.9916H70.5038L70.7931 41.8797C70.8069 41.9482 70.816 42.0029 70.8237 42.0485C70.839 42.1397 70.8482 42.1944 70.8757 42.2492C70.9171 42.3313 71.289 42.3723 71.4957 42.3723H71.8676L71.3304 44.1784H69.7599C69.5725 44.1518 69.4372 44.0736 69.3089 43.9994C69.2391 43.9591 69.1714 43.92 69.0986 43.891C68.9333 43.809 68.6853 43.6037 68.6027 43.2343L68.3134 41.3461L66.9495 43.1932C66.5363 43.7679 65.9577 44.2194 64.9658 44.2194H63.0647L63.2258 43.6859H62.5275L62.3622 44.2606H59.8411L60.0065 43.6859H54.8817L55.419 42.044H55.9149L59.1386 31.4539H61.7009L61.4116 32.357C61.4116 32.357 62.1142 31.8644 62.7341 31.7002C63.283 31.5639 65.9388 31.4842 66.8258 31.461L66.8255 31.4539H69.5532L69.5945 32.4801C69.5945 32.6443 69.7185 32.7264 70.0491 32.7264H70.6277L70.1318 34.4093H68.6439C67.3628 34.4914 66.8668 33.9578 66.9082 33.3421L66.8619 32.2852L66.5777 33.2189H65.7098ZM58.5186 41.9209H60.5437L61.1636 39.9917H59.0972L58.5186 41.9209ZM60.1718 36.5027L59.4692 38.8013C59.4692 38.8013 60.2544 38.3909 60.6677 38.2677C61.081 38.1856 61.7422 38.1035 61.7422 38.1035L62.2382 36.5027H60.1718ZM61.1636 33.2189L60.5024 35.4355C60.5024 35.4355 61.2463 35.1071 61.6596 34.984C62.0729 34.8608 62.6928 34.8198 62.6928 34.8198L63.1887 33.2189H61.1636Z" fill="white"/>
<path d="M38.6397 35.3124H45.5415L45.0456 36.9543H42.2766L41.8633 38.3499H44.6736L44.1777 40.0328H41.3674L40.6648 42.2904C40.5821 42.5366 41.326 42.5777 41.6153 42.5777L43.0205 42.3724L42.4419 44.2606H39.2596C39.0634 44.2606 38.893 44.2349 38.6871 44.2038C38.6328 44.1956 38.5761 44.1871 38.5157 44.1785C38.2678 44.1375 38.1438 43.9733 38.0198 43.8091C37.9991 43.7748 37.9772 43.7428 37.9557 43.7114C37.8487 43.5547 37.7512 43.4121 37.8545 43.0702L38.7637 40.0738H37.1932L37.6891 38.3499H39.2596L39.6729 36.9543H38.1024L38.6397 35.3124Z" fill="white"/>
<path d="M46.0787 32.357H43.2684L43.6817 31.4539H40.8713L40.1688 32.7264C40.0034 33.0137 39.8795 33.1779 39.7555 33.26C39.6728 33.301 39.4662 33.3421 39.1355 33.3421H38.7636L38.2677 34.984H39.5075C40.1274 34.984 40.582 34.7787 40.7887 34.6556C40.8672 34.6296 40.9292 34.6159 40.9825 34.6042C41.0973 34.5789 41.1717 34.5625 41.2846 34.4504L41.6979 34.0809H45.5828L46.0787 32.357Z" fill="white"/>
<path fill-rule="evenodd" clip-rule="evenodd" d="M47.3187 31.4539H49.7157L49.3851 32.6443C49.3851 32.6443 50.129 32.0286 50.6663 31.8234C51.2035 31.6181 52.402 31.4539 52.402 31.4539H56.2869L54.9644 35.8459C54.7164 36.5848 54.4685 37.0774 54.3031 37.3236C54.1378 37.5699 53.9725 37.7341 53.6419 37.9393C53.3113 38.1035 53.022 38.2267 52.7327 38.2267C52.4848 38.2677 52.0716 38.2677 51.5345 38.2677H47.7733L46.6987 41.7567C46.6794 41.8333 46.6602 41.901 46.643 41.9613C46.5865 42.1594 46.5527 42.278 46.6161 42.3724C46.6574 42.4545 46.7814 42.5366 46.988 42.5366L48.6412 42.3724L48.0626 44.3016H46.2028C45.6242 44.3016 45.1696 44.3016 44.8803 44.2606C44.7991 44.249 44.7179 44.244 44.6385 44.239C44.4351 44.2264 44.2437 44.2145 44.095 44.0964C44.0722 44.0737 44.0477 44.0502 44.0226 44.026C43.8659 43.8755 43.6818 43.6985 43.6818 43.5217C43.6818 43.3288 43.7548 43.0634 43.8665 42.6572L43.8884 42.5776L47.3187 31.4539ZM48.7238 35.1892C48.7238 35.1892 49.5091 34.4914 50.8316 34.2451C51.1209 34.2041 53.022 34.2041 53.022 34.2041L53.3113 33.26H49.3024L48.7238 35.1892ZM52.4434 35.887H48.4759L48.2279 36.6669H51.6581C51.9888 36.634 52.1078 36.6537 52.1633 36.6629C52.1772 36.6652 52.1871 36.6669 52.1954 36.6669L52.4434 35.887Z" fill="white"/>
<path d="M54.1376 39.6221L54.3442 38.5548H52.5258L52.2778 39.2937C52.2365 39.4168 52.1952 39.4989 52.1125 39.54C52.0299 39.581 51.8645 39.6221 51.6992 39.6221H51.1206L51.162 38.678H48.8062L48.7236 43.3163C48.7236 43.6447 48.7649 43.8499 49.0129 44.0141C49.2609 44.2193 50.0048 44.2604 51.038 44.2604H52.5258L53.0631 42.4953L51.7819 42.5774L51.3686 42.6185C51.3515 42.6015 51.3344 42.5915 51.3143 42.5799C51.2859 42.5634 51.2517 42.5434 51.2033 42.4953C51.1923 42.4735 51.1784 42.4604 51.1639 42.4467C51.1238 42.409 51.0793 42.367 51.0793 42.1259V40.9356L52.4018 40.8535C53.1044 40.8535 53.435 40.6072 53.683 40.402C53.9723 40.1967 54.0549 39.9504 54.1376 39.6221Z" fill="white"/>
<path d="M27.1504 28.1702C28.4316 28.1292 28.8448 28.1292 29.9194 28.1292L30.0434 28.006C30.1746 27.126 30.2538 26.7377 30.4464 25.793C30.4963 25.548 30.5539 25.2656 30.622 24.9275L30.7873 24.1887L30.7986 24.1366C31.1216 22.653 31.2804 21.924 31.0352 21.3154C30.7459 20.6176 30.0847 20.4534 29.5061 20.4534C29.0928 20.4534 28.3902 20.5355 27.729 20.8639C27.6256 20.9255 27.512 20.987 27.3983 21.0486C27.2847 21.1102 27.171 21.1717 27.0677 21.2333L27.2744 20.4945L27.1504 20.3713C25.8205 20.6515 25.473 20.6975 24.307 20.8518L24.2161 20.8639L24.1334 20.946L24.13 20.9703C23.9664 22.1487 23.8404 23.0556 23.3068 25.4201C23.2035 25.8511 23.1002 26.2923 22.9969 26.7336C22.8936 27.1746 22.7902 27.6163 22.6869 28.0471L22.7282 28.1702C24.0094 28.1292 24.4227 28.1292 25.5386 28.1292L25.6212 28.0471C25.6897 27.7411 25.7298 27.5336 25.7768 27.2906C25.8433 26.9469 25.9235 26.5319 26.1172 25.6664C26.17 25.4301 26.2356 25.1141 26.3057 24.776C26.4548 24.0569 26.6246 23.2381 26.7371 22.8752C27.0264 22.752 27.3157 22.6289 27.5637 22.6289C28.1836 22.6289 28.1423 23.2036 28.1009 23.4088C28.0596 23.7782 27.853 24.9686 27.605 25.9947L27.4397 26.6515C27.3709 27.0612 27.2736 27.4425 27.1714 27.8426C27.1508 27.9235 27.1299 28.0053 27.109 28.0881L27.1504 28.1702Z" fill="white"/>
<path d="M34.3414 28.1291H32.8535C32.6642 28.1291 32.475 28.1377 32.2698 28.1471C32.027 28.1581 31.7619 28.1702 31.4484 28.1702L31.3657 28.0881C31.531 27.4724 31.6137 27.2261 31.6963 27.0209C31.779 26.8156 31.8617 26.5693 31.9856 25.9536C32.1923 25.1327 32.3163 24.558 32.3989 24.0244C32.4402 23.7782 32.4712 23.5524 32.5022 23.3266C32.5332 23.1009 32.5642 22.8751 32.6056 22.6288L32.6882 22.5467C33.0039 22.5076 33.2631 22.4684 33.4927 22.4336C33.7441 22.3956 33.9601 22.363 34.176 22.3415C34.5893 22.3005 35.0439 22.2184 35.7052 22.0542L35.7465 22.0952V22.1363C35.6845 22.4031 35.6225 22.6597 35.5605 22.9162C35.4985 23.1728 35.4365 23.4293 35.3746 23.6961C35.3126 23.9629 35.2506 24.2195 35.1886 24.476C35.1266 24.7325 35.0646 24.9891 35.0026 25.2558C34.7546 26.3641 34.672 26.7335 34.5893 27.0619C34.57 27.1965 34.5506 27.304 34.527 27.4352C34.5002 27.5841 34.468 27.7633 34.424 28.047L34.3414 28.1291Z" fill="white"/>
<path fill-rule="evenodd" clip-rule="evenodd" d="M43.8471 21.4795C44.219 21.972 44.5083 22.7519 44.1364 24.3938C44.0124 24.8864 43.6818 26.1178 42.9792 26.8977C42.0286 27.9238 40.7475 28.2522 39.5076 28.2522C39.0117 28.2522 38.2678 28.1701 37.7305 27.9649C36.036 27.2671 36.284 25.461 36.532 24.4349C36.7386 23.4497 37.1519 22.4235 37.9785 21.6437C39.1356 20.5764 40.6235 20.5354 41.2434 20.5354C42.2766 20.5354 43.2685 20.7406 43.8471 21.4795ZM41.2329 24.5109C41.2537 24.428 41.2709 24.3596 41.2847 24.3117C41.574 23.0392 41.5327 22.2183 40.8301 22.3004C39.9622 22.3004 39.6316 23.3266 39.3423 24.599C39.3302 24.6648 39.3182 24.7289 39.3064 24.7916C39.2373 25.159 39.177 25.4799 39.177 25.8304C39.177 26.6103 39.7142 26.6103 39.7969 26.6103C40.1275 26.6103 40.3755 26.4051 40.6235 26.0767C40.9334 25.7005 41.1286 24.9251 41.2329 24.5109Z" fill="white"/>
<path fill-rule="evenodd" clip-rule="evenodd" d="M70.7517 28.2523C69.4292 28.2523 69.0573 28.2523 67.8174 28.2933L67.7347 28.2112L67.8666 27.7197C67.4169 28.0934 66.9321 28.3502 66.4124 28.3754C65.9578 28.3754 65.4619 28.2933 64.9246 28.0881C63.2301 27.4313 63.4781 25.5842 63.7261 24.5991C63.9327 23.614 64.346 22.5878 65.1726 21.8079C66.3711 20.7817 67.7349 20.4944 68.3135 20.6996C68.7423 20.8653 69.0304 21.1264 69.2321 21.4348L69.2639 21.1922L69.3465 21.1101C69.6184 21.0679 69.8484 21.0327 70.054 21.0012C70.8485 20.8794 71.2802 20.8132 72.3635 20.6176L72.4048 20.7407L71.6609 23.8192C71.2735 25.4868 71.0878 26.5281 70.9266 27.4323L70.9261 27.435C70.8811 27.6872 70.8381 27.9287 70.793 28.1702L70.7517 28.2523ZM68.8968 23.4947C68.8863 22.7894 68.5729 22.3826 68.0655 22.3826C67.1976 22.3826 66.867 23.4498 66.5777 24.6812L66.555 24.8044C66.4806 25.2077 66.4124 25.5771 66.4124 25.9126C66.4124 26.6925 66.9497 26.6925 67.0323 26.6925C67.363 26.6925 67.9002 26.5283 68.1069 26.1999C68.2319 26.0291 68.3452 25.7702 68.4421 25.501C68.5257 25.1618 68.607 24.8204 68.6853 24.476C68.7693 24.1053 68.8385 23.7828 68.8968 23.4947Z" fill="white"/>
<path d="M51.5754 28.1292C50.4595 28.1292 50.0875 28.1292 48.8477 28.1702L48.8064 28.0881C48.8272 28.0053 48.8481 27.9236 48.8687 27.8427C48.9709 27.4425 49.0682 27.0612 49.137 26.6515L49.3023 25.9947C49.5503 24.9686 49.7569 23.7782 49.7982 23.4088C49.8396 23.2036 49.8809 22.6289 49.261 22.6289C49.013 22.6289 48.7237 22.752 48.4344 22.8752C48.3219 23.2381 48.1521 24.0568 48.003 24.7759C47.9329 25.114 47.8673 25.4301 47.8145 25.6664C47.5539 26.8308 47.4987 27.1796 47.4263 27.6366C47.4069 27.7596 47.3861 27.8905 47.3599 28.0471L47.2772 28.1292C46.1613 28.1292 45.748 28.1292 44.4669 28.1702L44.4255 28.0471C44.5289 27.6161 44.6322 27.1748 44.7355 26.7336C44.8388 26.2923 44.9422 25.8511 45.0455 25.4201C45.5791 23.0556 45.705 22.1487 45.8687 20.9703L45.872 20.946L45.9547 20.8639L46.0456 20.8518C47.2116 20.6975 47.5591 20.6515 48.889 20.3713L49.013 20.4945L48.8064 21.2333C48.9097 21.1717 49.0233 21.1102 49.137 21.0486C49.2506 20.987 49.3643 20.9255 49.4676 20.8639C50.1289 20.5355 50.8314 20.4534 51.2034 20.4534C51.782 20.4534 52.4433 20.6176 52.7325 21.3154C52.9777 21.924 52.8189 22.653 52.4959 24.1366L52.4846 24.1887L52.3193 24.9275C52.0227 26.2366 51.9363 26.7107 51.8087 27.4108C51.7763 27.5888 51.7412 27.7814 51.6993 28.006L51.5754 28.1292Z" fill="white"/>
<path d="M81.5384 20.6174L81.4144 20.4943C80.0505 20.7816 79.8439 20.8227 78.6041 20.9869L78.5214 21.069V21.11C78.0357 22.2282 77.8095 22.6203 77.5907 22.9994C77.3999 23.3301 77.2148 23.6509 76.8683 24.4348V24.2296L76.703 20.6174L76.579 20.4943C76.2524 20.5611 75.9995 20.6146 75.7876 20.6594C75.0877 20.8074 74.8347 20.8609 73.8513 20.9869L73.7686 21.069C73.7686 21.11 73.7686 21.1511 73.7273 21.1921C73.8515 21.809 73.8591 21.8696 73.9253 22.4014C73.9472 22.5774 73.9755 22.805 74.0166 23.1213C74.0579 23.4497 74.0993 23.7678 74.1406 24.0859C74.1819 24.404 74.2232 24.7221 74.2646 25.0505C74.3083 25.427 74.3469 25.732 74.3858 26.0394C74.4572 26.6032 74.5295 27.1751 74.6365 28.2111C74.3061 28.7581 74.0715 29.1802 73.8598 29.5611C73.5154 30.1806 73.2315 30.6913 72.6941 31.4538L72.7354 31.577C74.0166 31.5359 74.3059 31.5359 75.2565 31.5359L75.4631 31.2896C76.1243 29.853 81.5384 20.6174 81.5384 20.6174Z" fill="white"/>
<path d="M35.7467 19.9607C36.3666 20.289 36.284 20.9868 35.5401 21.4794C34.7961 21.9719 33.7216 22.0951 33.1017 21.7667C32.4818 21.3973 32.5644 20.6995 33.3083 20.2069C34.0522 19.7144 35.1268 19.5912 35.7467 19.9607Z" fill="white"/>
</svg>
