<svg width="90" height="57" viewBox="0 0 90 57" fill="none" xmlns="http://www.w3.org/2000/svg">
<path d="M17.627 1.218e-06H40.0894C43.2252 1.218e-06 45.1773 2.58839 44.4456 5.77599L33.986 51.2336C33.247 54.4116 30.1091 57 26.9723 57H4.50892C1.3721 57 -0.577902 54.4116 0.153743 51.2336L10.6186 5.77599C11.3481 2.58839 14.4839 1.218e-06 17.627 1.218e-06Z" fill="#ED171F"/>
<path d="M38.2213 0H64.0549C67.1896 0 65.7757 2.58839 65.0388 5.77599L54.5803 51.2336C53.8497 54.4116 54.0789 57 50.9357 57H25.1043C21.9643 57 20.0195 54.4116 20.7575 51.2336L31.2118 5.77599C31.9508 2.58839 35.0855 0 38.2213 0Z" fill="#082F67"/>
<path d="M63.0328 0H85.492C88.6299 0 90.5799 2.58839 89.8451 5.77599L79.3876 51.2336C78.6528 54.4116 75.516 57 72.3687 57H49.9158C46.7726 57 44.8258 54.4116 45.5627 51.2336L56.017 5.77599C56.7529 2.58839 59.8886 0 63.0328 0Z" fill="#006A65"/>
<path fill-rule="evenodd" clip-rule="evenodd" d="M60.6848 14.5335H61.6245L61.8031 14.5375C63.6469 14.5778 65.195 14.6118 65.9813 15.7012C66.2803 16.1336 66.4085 16.6958 66.4085 17.258C66.4085 17.7337 66.323 18.1662 66.2376 18.5122C65.8959 19.9825 65.1698 21.2366 64.0592 22.0583C62.4361 23.2692 60.3431 23.2692 58.5064 23.2692H58.3355C58.2074 23.3557 58.0792 23.5287 58.0792 23.5287C58.0792 23.6152 57.6521 25.3883 57.6521 25.3883C57.6521 25.3883 57.1395 27.8533 57.0541 28.2425C56.7124 28.1993 55.8154 28.1993 53.7224 28.2425C53.8078 27.81 55.9008 19.1176 55.9008 19.1176L56.7551 15.0092L56.8832 14.4903C57.2676 14.5335 58.2501 14.5768 60.6848 14.5335ZM61.3255 20.8474C62.0943 20.5015 62.6496 19.723 62.8632 18.8149C63.0768 17.8202 62.7778 17.0418 62.0516 16.7391C62.0089 16.7391 60.0868 16.5661 60.0868 16.5661L59.7024 16.5228V16.6958L59.6596 16.912L58.7199 20.9772L58.6772 21.1934H59.1898C59.9586 21.1934 60.7275 21.1502 61.3255 20.8474Z" fill="white"/>
<path d="M20.1918 14.5766C20.1063 14.9658 18.5686 22.2311 18.5686 22.2311C18.2269 23.7015 17.9706 24.7394 17.1591 25.4313C16.6892 25.8205 16.1339 25.9935 15.4932 25.9935C14.4681 25.9935 13.8701 25.4745 13.7846 24.5231L13.7419 24.1772L14.0409 22.1879C14.0409 22.1879 15.6641 15.5712 15.9631 14.7063C15.9631 14.663 16.0058 14.6198 16.0058 14.6198C12.8449 14.6631 12.2469 14.6198 12.2469 14.5766C12.2469 14.6631 12.1615 15.0523 12.1615 15.0523L10.4956 22.4906L10.3675 23.1393L10.1112 25.2151C10.1112 25.8205 10.2394 26.3395 10.4529 26.7719C11.2218 28.1125 13.3575 28.3288 14.5962 28.3288C16.1766 28.3288 17.6289 27.9828 18.6541 27.3774C20.3335 26.382 20.7952 24.8299 21.207 23.4456L21.2596 23.269L21.4305 22.5338C21.4305 22.5338 23.0963 15.6577 23.3953 14.7495V14.663C22.8661 14.6531 22.4223 14.6455 22.05 14.6391C20.7999 14.6175 20.3563 14.6099 20.1918 14.5766Z" fill="white"/>
<path fill-rule="evenodd" clip-rule="evenodd" d="M66.494 33.5617L63.7602 42.6866H64.4864L64.2157 43.6142L64.2727 43.4216H65.0416C65.2552 43.4216 65.426 43.3352 65.5969 43.2487C65.725 43.2054 65.8532 43.1189 66.024 42.9027L68.0316 40.0485H65.3406L65.8105 38.4916H68.8859L69.313 37.0645H66.2803L66.7929 35.2914H75.2503L74.7377 37.0645H71.9186L71.4487 38.4916H74.3106L73.8407 40.0485H70.7653L70.21 40.6972H71.4487L71.7477 42.6865C71.762 42.7586 71.7715 42.8162 71.7794 42.8643C71.7952 42.9604 71.8047 43.018 71.8331 43.0757C71.8759 43.1622 72.2603 43.2054 72.4739 43.2054H72.8583L72.303 45.1082H70.6799C70.4862 45.0802 70.3463 44.9978 70.2138 44.9197C70.1416 44.8772 70.0717 44.836 69.9964 44.8055C69.8256 44.719 69.5693 44.5028 69.4839 44.1136L69.1849 42.1243L67.7753 44.0703C67.3482 44.6758 66.7502 45.1515 65.725 45.1515H63.7602L63.9267 44.5894H63.205L63.0341 45.1948H60.4285L60.5994 44.5894H55.3028L55.8581 42.8596H56.3707L59.7024 31.7021H62.3507L62.0517 32.6535C62.0517 32.6535 62.7778 32.1345 63.4185 31.9616C63.9858 31.818 66.7307 31.734 67.6474 31.7096L67.6471 31.7021H70.4662L70.5089 32.7832C70.5089 32.9562 70.6371 33.0427 70.9788 33.0427H71.5768L71.0642 34.8158H69.5265C68.2024 34.9023 67.6898 34.3401 67.7325 33.6914L67.6847 32.5779L67.391 33.5617H66.494ZM59.0617 42.7298H61.1547L61.7954 40.6973H59.6597L59.0617 42.7298ZM60.7703 37.0213L60.0441 39.4431C60.0441 39.4431 60.8557 39.0107 61.2828 38.8809C61.71 38.7944 62.3934 38.7079 62.3934 38.7079L62.906 37.0213H60.7703ZM61.7954 33.5617L61.112 35.8969C61.112 35.8969 61.8808 35.551 62.308 35.4212C62.7351 35.2915 63.3758 35.2483 63.3758 35.2483L63.8884 33.5617H61.7954Z" fill="white"/>
<path d="M38.5162 35.7673H45.6495L45.1369 37.4971H42.275L41.8479 38.9675H44.7525L44.2399 40.7405H41.3353L40.6092 43.1191C40.5238 43.3786 41.2926 43.4218 41.5916 43.4218L43.0439 43.2056L42.4459 45.1949H39.1569C38.9541 45.1949 38.778 45.1678 38.5652 45.1351C38.5091 45.1264 38.4504 45.1174 38.3881 45.1084C38.1318 45.0652 38.0036 44.8922 37.8755 44.7192C37.8541 44.6831 37.8315 44.6494 37.8093 44.6163C37.6986 44.4512 37.5979 44.3009 37.7046 43.9407L38.6443 40.7838H37.0212L37.5338 38.9675H39.1569L39.5841 37.4971H37.9609L38.5162 35.7673Z" fill="white"/>
<path d="M46.2047 32.6535H43.3001L43.7272 31.7021H40.8227L40.0965 33.0427C39.9257 33.3454 39.7975 33.5184 39.6694 33.6049C39.584 33.6482 39.3704 33.6914 39.0287 33.6914H38.6442L38.1317 35.4212H39.4131C40.0538 35.4212 40.5237 35.205 40.7372 35.0753C40.8184 35.0479 40.8825 35.0335 40.9375 35.0211C41.0562 34.9945 41.1331 34.9772 41.2498 34.859L41.677 34.4698H45.6921L46.2047 32.6535Z" fill="white"/>
<path fill-rule="evenodd" clip-rule="evenodd" d="M47.4862 31.7021H49.9636L49.6219 32.9562C49.6219 32.9562 50.3907 32.3075 50.946 32.0913C51.5013 31.8751 52.74 31.7021 52.74 31.7021H56.7551L55.3883 36.3294C55.132 37.1078 54.8757 37.6268 54.7049 37.8863C54.534 38.1457 54.3632 38.3187 54.0214 38.535C53.6797 38.7079 53.3807 38.8377 53.0817 38.8377C52.8255 38.8809 52.3985 38.8809 51.8434 38.8809H47.956L46.8455 42.5568C46.8255 42.6376 46.8056 42.7089 46.7878 42.7724C46.7295 42.9811 46.6945 43.1061 46.76 43.2055C46.8027 43.292 46.9309 43.3785 47.1445 43.3785L48.853 43.2055L48.255 45.2381H46.3329C45.7349 45.2381 45.265 45.2381 44.966 45.1948C44.8821 45.1827 44.7982 45.1774 44.7162 45.1722C44.5059 45.1588 44.3081 45.1463 44.1545 45.0218C44.1308 44.9979 44.1056 44.9732 44.0796 44.9477C43.9177 44.7891 43.7273 44.6026 43.7273 44.4164C43.7273 44.2132 43.8028 43.9335 43.9183 43.5056L43.9409 43.4217L47.4862 31.7021ZM48.9384 35.6375C48.9384 35.6375 49.75 34.9023 51.1169 34.6428C51.4159 34.5996 53.3807 34.5996 53.3807 34.5996L53.6797 33.6049H49.5364L48.9384 35.6375ZM52.7827 36.3727H48.6822L48.4259 37.1943H51.9712C52.3129 37.1597 52.4359 37.1805 52.4933 37.1902C52.5076 37.1926 52.5179 37.1943 52.5264 37.1943L52.7827 36.3727Z" fill="white"/>
<path d="M54.5338 40.3078L54.7473 39.1834H52.8679L52.6116 39.9619C52.5689 40.0916 52.5262 40.1781 52.4408 40.2213C52.3553 40.2646 52.1845 40.3078 52.0136 40.3078H51.4156L51.4583 39.3132H49.0236L48.9382 44.2C48.9382 44.5459 48.9809 44.7622 49.2372 44.9351C49.4935 45.1514 50.2623 45.1946 51.3302 45.1946H52.8679L53.4232 43.3351L52.0991 43.4215L51.6719 43.4648C51.6542 43.4469 51.6365 43.4364 51.6158 43.4241C51.5865 43.4067 51.5511 43.3857 51.501 43.3351C51.4897 43.312 51.4753 43.2982 51.4603 43.2838C51.4189 43.244 51.3729 43.1998 51.3729 42.9458V41.6917L52.7398 41.6052C53.4659 41.6052 53.8076 41.3457 54.0639 41.1295C54.3629 40.9133 54.4483 40.6538 54.5338 40.3078Z" fill="white"/>
<path d="M26.6416 28.2425C27.9658 28.1992 28.3929 28.1992 29.5035 28.1992L29.6316 28.0695C29.7673 27.1423 29.8491 26.7332 30.0481 25.7379C30.0997 25.4798 30.1592 25.1822 30.2296 24.826L30.4005 24.0476L30.4122 23.9927C30.746 22.4296 30.9101 21.6616 30.6567 21.0204C30.3577 20.2852 29.6743 20.1122 29.0763 20.1122C28.6492 20.1122 27.923 20.1987 27.2396 20.5447C27.1328 20.6095 27.0154 20.6744 26.8979 20.7393C26.7804 20.8041 26.663 20.869 26.5562 20.9339L26.7698 20.1555L26.6416 20.0257C25.2671 20.3209 24.908 20.3694 23.7029 20.532L23.6089 20.5447L23.5235 20.6312L23.52 20.6568C23.3509 21.8983 23.2207 22.8538 22.6692 25.345C22.5624 25.7991 22.4556 26.2639 22.3489 26.7288C22.2421 27.1935 22.1352 27.6588 22.0285 28.1127L22.0712 28.2425C23.3953 28.1992 23.8225 28.1992 24.9758 28.1992L25.0612 28.1127C25.132 27.7903 25.1734 27.5717 25.222 27.3157C25.2907 26.9536 25.3736 26.5164 25.5738 25.6045C25.6284 25.3555 25.6961 25.0226 25.7686 24.6664C25.9227 23.9088 26.0983 23.0461 26.2145 22.6637C26.5135 22.534 26.8125 22.4043 27.0688 22.4043C27.7095 22.4043 27.6668 23.0097 27.624 23.2259C27.5813 23.6151 27.3678 24.8693 27.1115 25.9504L26.9406 26.6424C26.8696 27.074 26.769 27.4757 26.6634 27.8973C26.642 27.9825 26.6205 28.0687 26.5989 28.156L26.6416 28.2425Z" fill="white"/>
<path d="M34.0737 28.1992H32.536C32.3404 28.1992 32.1447 28.2082 31.9327 28.2181C31.6818 28.2297 31.4078 28.2424 31.0837 28.2424L30.9983 28.1559C31.1692 27.5072 31.2546 27.2477 31.34 27.0315C31.4254 26.8153 31.5109 26.5558 31.639 25.9071C31.8526 25.0422 31.9807 24.4368 32.0662 23.8746C32.1089 23.6151 32.1409 23.3772 32.1729 23.1394C32.205 22.9015 32.237 22.6637 32.2797 22.4042L32.3652 22.3177C32.6914 22.2764 32.9593 22.2351 33.1966 22.1985C33.4564 22.1585 33.6796 22.1241 33.9029 22.1015C34.33 22.0582 34.7999 21.9717 35.4833 21.7987L35.526 21.842V21.8852C35.4619 22.1664 35.3978 22.4367 35.3338 22.707C35.2697 22.9773 35.2056 23.2475 35.1416 23.5286C35.0775 23.8097 35.0134 24.08 34.9493 24.3503C34.8853 24.6206 34.8212 24.8909 34.7571 25.1719C34.5009 26.3396 34.4154 26.7288 34.33 27.0748C34.31 27.2165 34.29 27.3299 34.2656 27.4681C34.2379 27.6249 34.2046 27.8138 34.1592 28.1127L34.0737 28.1992Z" fill="white"/>
<path fill-rule="evenodd" clip-rule="evenodd" d="M43.8982 21.1932C44.2826 21.7122 44.5816 22.5339 44.1972 24.2637C44.069 24.7827 43.7273 26.08 43.0012 26.9017C42.0188 27.9829 40.6946 28.3288 39.4132 28.3288C38.9006 28.3288 38.1318 28.2423 37.5765 28.0261C35.8252 27.2909 36.0815 25.3881 36.3378 24.307C36.5514 23.2691 36.9785 22.1879 37.8328 21.3662C39.0288 20.2418 40.5665 20.1986 41.2072 20.1986C42.275 20.1986 43.3002 20.4148 43.8982 21.1932ZM41.1963 24.387C41.2179 24.2997 41.2357 24.2277 41.2499 24.1772C41.5489 22.8366 41.5062 21.9717 40.7801 22.0582C39.8831 22.0582 39.5413 23.1393 39.2423 24.4799C39.2299 24.5493 39.2174 24.6168 39.2053 24.6828C39.1338 25.0699 39.0715 25.408 39.0715 25.7773C39.0715 26.599 39.6268 26.599 39.7122 26.599C40.0539 26.599 40.3102 26.3828 40.5665 26.0368C40.8868 25.6404 41.0885 24.8235 41.1963 24.387Z" fill="white"/>
<path fill-rule="evenodd" clip-rule="evenodd" d="M71.705 28.3289C70.3381 28.3289 69.9537 28.3289 68.6723 28.3722L68.5868 28.2857L68.7231 27.7678C68.2583 28.1615 67.7573 28.4321 67.2202 28.4586C66.7503 28.4586 66.2377 28.3721 65.6825 28.1559C63.9312 27.464 64.1874 25.5179 64.4437 24.48C64.6573 23.4421 65.0845 22.361 65.9387 21.5393C67.1774 20.4581 68.587 20.1554 69.185 20.3716C69.6282 20.5461 69.9259 20.8213 70.1344 21.1462L70.1673 20.8906L70.2527 20.8041C70.5337 20.7597 70.7713 20.7225 70.9838 20.6893C71.8049 20.561 72.2512 20.4913 73.3708 20.2852L73.4135 20.4149L72.6447 23.6584C72.2442 25.4153 72.0523 26.5123 71.8857 27.465L71.8852 27.4679C71.8387 27.7335 71.7942 27.988 71.7477 28.2424L71.705 28.3289ZM69.7878 23.3164C69.777 22.5733 69.4531 22.1447 68.9287 22.1447C68.0317 22.1447 67.69 23.2691 67.391 24.5665L67.3676 24.6963C67.2906 25.1212 67.2202 25.5104 67.2202 25.8639C67.2202 26.6856 67.7754 26.6856 67.8609 26.6856C68.2026 26.6856 68.7579 26.5126 68.9714 26.1666C69.1007 25.9866 69.2178 25.7138 69.3179 25.4302C69.4043 25.0728 69.4883 24.7131 69.5693 24.3503C69.656 23.9598 69.7276 23.62 69.7878 23.3164Z" fill="white"/>
<path d="M51.8856 28.1992C50.7323 28.1992 50.3479 28.1992 49.0665 28.2425L49.0238 28.156C49.0453 28.0687 49.0669 27.9826 49.0882 27.8974C49.1938 27.4758 49.2944 27.074 49.3655 26.6424L49.5363 25.9504C49.7926 24.8693 50.0062 23.6151 50.0489 23.2259C50.0916 23.0097 50.1343 22.4043 49.4936 22.4043C49.2373 22.4043 48.9383 22.534 48.6393 22.6637C48.5231 23.0461 48.3476 23.9087 48.1935 24.6663C48.121 25.0225 48.0532 25.3555 47.9986 25.6045C47.7293 26.8312 47.6722 27.1987 47.5975 27.6803C47.5773 27.8098 47.5559 27.9477 47.5288 28.1127L47.4433 28.1992C46.29 28.1992 45.8629 28.1992 44.5388 28.2425L44.496 28.1127C44.6028 27.6586 44.7096 27.1937 44.8164 26.7288C44.9232 26.2639 45.03 25.7991 45.1368 25.345C45.6883 22.8538 45.8184 21.8984 45.9876 20.6568L45.991 20.6312L46.0765 20.5447L46.1704 20.532C47.3756 20.3694 47.7347 20.3209 49.1092 20.0257L49.2373 20.1555L49.0238 20.9339C49.1305 20.869 49.248 20.8041 49.3655 20.7393C49.4829 20.6744 49.6004 20.6095 49.7072 20.5447C50.3906 20.1987 51.1167 20.1122 51.5012 20.1122C52.0992 20.1122 52.7826 20.2852 53.0816 21.0204C53.3349 21.6616 53.1709 22.4296 52.837 23.9927L52.8253 24.0476L52.6545 24.826C52.3479 26.2052 52.2587 26.7047 52.1268 27.4424C52.0933 27.6299 52.057 27.8328 52.0137 28.0695L51.8856 28.1992Z" fill="white"/>
<path d="M82.8533 20.285L82.7252 20.1553C81.3156 20.458 81.102 20.5013 79.8206 20.6743L79.7352 20.7607V20.804C79.2332 21.9821 78.9994 22.3952 78.7733 22.7946C78.5761 23.143 78.3848 23.481 78.0266 24.3069V24.0907L77.8558 20.285L77.7276 20.1553C77.3901 20.2257 77.1287 20.282 76.9097 20.3292C76.1863 20.4851 75.9248 20.5415 74.9085 20.6743L74.823 20.7607C74.823 20.804 74.823 20.8472 74.7803 20.8905C74.9087 21.5404 74.9165 21.6043 74.9849 22.1646C75.0076 22.35 75.0369 22.5897 75.0793 22.923C75.122 23.269 75.1648 23.6042 75.2075 23.9393C75.2502 24.2745 75.2929 24.6096 75.3356 24.9556C75.3808 25.3523 75.4207 25.6736 75.4609 25.9975C75.5347 26.5915 75.6095 27.194 75.72 28.2855C75.3785 28.8619 75.1361 29.3065 74.9172 29.7078C74.5613 30.3605 74.2679 30.8986 73.7125 31.702L73.7552 31.8317C75.0793 31.7885 75.3783 31.7885 76.3608 31.7885L76.5743 31.529C77.2578 30.0154 82.8533 20.285 82.8533 20.285Z" fill="white"/>
<path d="M35.5262 19.5931C36.1669 19.939 36.0815 20.6742 35.3126 21.1931C34.5438 21.7121 33.4332 21.8418 32.7925 21.4959C32.1518 21.1067 32.2372 20.3715 33.0061 19.8525C33.7749 19.3336 34.8855 19.2038 35.5262 19.5931Z" fill="white"/>
</svg>
