<svg width="20" height="20" viewBox="0 0 20 20" fill="none" xmlns="http://www.w3.org/2000/svg">
<g clip-path="url(#clip0_984_22442)">
<g clip-path="url(#clip1_984_22442)">
<path d="M16.4163 0.833008H3.58301C2.06422 0.833008 0.833008 2.06422 0.833008 3.58301V16.4163C0.833008 17.9351 2.06422 19.1663 3.58301 19.1663H16.4163C17.9351 19.1663 19.1663 17.9351 19.1663 16.4163V3.58301C19.1663 2.06422 17.9351 0.833008 16.4163 0.833008Z" fill="#175DDC"/>
<path d="M14.1536 11.4681V5.52409H10V16.0514C11.6829 15.0488 14.1178 13.4017 14.1536 11.4681ZM15.9082 4.37826V11.4681C15.9082 15.2637 10.4655 17.9492 10 17.9492C9.53451 17.9492 4.0918 15.2637 4.0918 11.4681V4.37826C4.0918 4.37826 4.0918 3.76953 4.70052 3.76953H15.2995C15.2995 3.76953 15.9082 3.76953 15.9082 4.37826Z" fill="white"/>
</g>
</g>
<defs>
<clipPath id="clip0_984_22442">
<rect width="20" height="20" fill="white"/>
</clipPath>
<clipPath id="clip1_984_22442">
<rect width="18.3333" height="18.3333" fill="white" transform="translate(0.833008 0.833008)"/>
</clipPath>
</defs>
</svg>
