<svg width="24" height="24" viewBox="0 0 24 24" fill="none" xmlns="http://www.w3.org/2000/svg">
<rect width="24" height="24" rx="12" fill="#214CE8"/>
<mask id="mask0_984_22755" style="mask-type:alpha" maskUnits="userSpaceOnUse" x="2" y="2" width="20" height="20">
<rect x="22" y="22" width="20" height="20" transform="rotate(180 22 22)" fill="#D9D9D9"/>
</mask>
<g mask="url(#mask0_984_22755)">
<path d="M15.458 11.1666L13.083 8.79157C12.9163 8.62491 12.8365 8.43046 12.8434 8.20824C12.8504 7.98602 12.9302 7.79157 13.083 7.62491C13.2497 7.45824 13.4476 7.37144 13.6768 7.36449C13.9059 7.35755 14.1038 7.43741 14.2705 7.60407L18.083 11.4166C18.2497 11.5832 18.333 11.7777 18.333 11.9999C18.333 12.2221 18.2497 12.4166 18.083 12.5832L14.2705 16.3957C14.1038 16.5624 13.9059 16.6423 13.6768 16.6353C13.4476 16.6284 13.2497 16.5416 13.083 16.3749C12.9302 16.2082 12.8504 16.0138 12.8434 15.7916C12.8365 15.5694 12.9163 15.3749 13.083 15.2082L15.458 12.8332L6.16634 12.8332C5.93023 12.8332 5.73231 12.7534 5.57259 12.5937C5.41287 12.4339 5.33301 12.236 5.33301 11.9999C5.33301 11.7638 5.41287 11.5659 5.57259 11.4062C5.73231 11.2464 5.93023 11.1666 6.16634 11.1666L15.458 11.1666Z" fill="white"/>
</g>
</svg>
