<svg width="20" height="20" viewBox="0 0 20 20" fill="none" xmlns="http://www.w3.org/2000/svg">
<g clip-path="url(#clip0_984_22457)">
<g clip-path="url(#clip1_984_22457)">
<path d="M16.4163 0.833008H3.58301C2.06422 0.833008 0.833008 2.06422 0.833008 3.58301V16.4163C0.833008 17.9351 2.06422 19.1663 3.58301 19.1663H16.4163C17.9351 19.1663 19.1663 17.9351 19.1663 16.4163V3.58301C19.1663 2.06422 17.9351 0.833008 16.4163 0.833008Z" fill="#D32D27"/>
<path d="M4.70052 11.5754C5.57066 11.5754 6.27604 10.87 6.27604 9.99984C6.27604 9.1297 5.57066 8.42432 4.70052 8.42432C3.83038 8.42432 3.125 9.1297 3.125 9.99984C3.125 10.87 3.83038 11.5754 4.70052 11.5754Z" fill="white"/>
<path d="M8.96126 11.5758C9.8314 11.5758 10.5368 10.8705 10.5368 10.0003C10.5368 9.13019 9.8314 8.4248 8.96126 8.4248C8.09113 8.4248 7.38574 9.13019 7.38574 10.0003C7.38574 10.8705 8.09113 11.5758 8.96126 11.5758Z" fill="white"/>
<path d="M13.2581 11.5758C14.1283 11.5758 14.8337 10.8705 14.8337 10.0003C14.8337 9.13019 14.1283 8.4248 13.2581 8.4248C12.388 8.4248 11.6826 9.13019 11.6826 10.0003C11.6826 10.8705 12.388 11.5758 13.2581 11.5758Z" fill="white"/>
<path d="M16.8753 6.92917C16.8753 6.72666 16.715 6.5625 16.5173 6.5625C16.3195 6.5625 16.1592 6.72666 16.1592 6.92917V13.0708C16.1592 13.2733 16.3195 13.4375 16.5173 13.4375C16.715 13.4375 16.8753 13.2733 16.8753 13.0708V6.92917Z" fill="white"/>
</g>
</g>
<defs>
<clipPath id="clip0_984_22457">
<rect width="20" height="20" fill="white"/>
</clipPath>
<clipPath id="clip1_984_22457">
<rect width="18.3333" height="18.3333" fill="white" transform="translate(0.833008 0.833008)"/>
</clipPath>
</defs>
</svg>
