<svg width="21" height="20" viewBox="0 0 21 20" fill="none" xmlns="http://www.w3.org/2000/svg">
<path fill-rule="evenodd" clip-rule="evenodd" d="M7.5 6.8V3.6C7.5 2.71634 8.17157 2 9 2H16.5C17.3285 2 18 2.71634 18 3.6V11.6C18 12.4837 17.3285 13.2 16.5 13.2H13.5V16.4C13.5 17.2837 12.8285 18 12 18H4.5C3.67157 18 3 17.2837 3 16.4V8.4C3 7.51634 3.67157 6.8 4.5 6.8H7.5ZM9 13.2C8.17157 13.2 7.5 12.4837 7.5 11.6V8H4.5C4.29289 8 4.125 8.17909 4.125 8.4V16.4C4.125 16.6209 4.29289 16.8 4.5 16.8H12C12.2071 16.8 12.375 16.6209 12.375 16.4V13.2H9Z" fill="#214CE8"/>
</svg>
