<svg xmlns="http://www.w3.org/2000/svg" fill="none" viewBox="0 0 96 96" id="Firefox--Streamline-Svg-Logos" height="24" width="24">
  <desc>
    Firefox Streamline Icon: https://streamlinehq.com
  </desc>
  <path fill="url(#a)" d="M90.1776 32.512c-1.9783-4.7598-5.9906-9.8989-9.1329-11.5233 2.2411 4.3405 3.7963 9.0018 4.6105 13.8184l.0082.0764c-5.1473-12.833-13.876-18.0073-21.0048-29.27449-.3683-.5744-.7257-1.15556-1.0724-1.74311-.1787-.30692-.346-.62023-.5016-.93958-.2959-.57263-.5236-1.17758-.6792-1.80314.0007-.05968-.044-.11013-.1034-.11759-.028-.007455-.0575-.007455-.0856 0-.0057 0-.0152.01066-.0223.01315-.0072.00213-.0224.01279-.0327.0174l.0174-.03055C50.7439 7.70132 46.8638 20.096 46.5068 26.2958c-4.5665.3137-8.9326 1.9968-12.5286 4.8286-.3752-.3175-.7673-.6149-1.1748-.8902-1.0372-3.6308-1.0813-7.4736-.1279-11.1272-4.1995 2.0344-7.9308 4.9182-10.9581 8.4691h-.0213c-1.8042-2.287-1.6774-9.8282-1.574-11.4036-.5336.2145-1.0433.4852-1.52.8071-1.5925 1.1367-3.0817 2.4123-4.4496 3.8116-1.5584 1.5804-2.9822 3.2883-4.2557 5.1064v.0067-.0081c-2.92673 4.1494-5.0027 8.8377-6.10817 13.7939l-.06074.3005c-.16803.9446-.31722 1.8923-.44759 2.8429 0 .0341-.00711.0657-.01066.0998-.39857 2.0714-.64545 4.1687-.73888 6.2759v.2351C2.56131 84.4916 40.5204 106.363 70.857 88.8126c11.6882-6.7617 19.7718-18.3632 22.0669-31.6697.0764-.5872.1385-1.1687.2067-1.762.9375-7.75-.0774-15.6116-2.953-22.8689ZM37.7063 68.1479c.2128.1023.4124.2128.6309.3101l.0316.0202c-.2206-.1058-.4415-.2159-.6625-.3303Zm47.9606-33.2538v-.0437l.0082.0484-.0082-.0047Z"></path>
  <path fill="url(#b)" d="M90.1776 32.5119c-1.9783-4.7597-5.9906-9.8988-9.1329-11.5233 2.2411 4.3406 3.7963 9.0019 4.6105 13.8185v.0433l.0082.0483c3.5089 10.0413 3.0013 21.0502-1.4167 30.7263C79.0291 76.8204 66.3993 88.2954 46.63 87.7373 25.2694 87.1324 6.45747 71.282 2.9407 50.5214c-.64013-3.2738 0-4.9335.32183-7.5941-.43906 2.0667-.68417 4.1696-.73177 6.2818v.2352C2.56131 84.4916 40.5204 106.363 70.857 88.8126c11.6882-6.7618 19.7718-18.3632 22.0669-31.6698.0764-.5872.1385-1.1687.2067-1.7619.9375-7.75-.0774-15.6116-2.953-22.869Z"></path>
  <path fill="url(#c)" d="M90.1776 32.5119c-1.9783-4.7597-5.9906-9.8988-9.1329-11.5233 2.2411 4.3406 3.7963 9.0019 4.6105 13.8185v.0433l.0082.0483c3.5089 10.0413 3.0013 21.0502-1.4167 30.7263C79.0291 76.8204 66.3993 88.2954 46.63 87.7373 25.2694 87.1324 6.45747 71.282 2.9407 50.5214c-.64013-3.2738 0-4.9335.32183-7.5941-.43906 2.0667-.68417 4.1696-.73177 6.2818v.2352C2.56131 84.4916 40.5204 106.363 70.857 88.8126c11.6882-6.7618 19.7718-18.3632 22.0669-31.6698.0764-.5872.1385-1.1687.2067-1.7619.9375-7.75-.0774-15.6116-2.953-22.869Z"></path>
  <path fill="url(#d)" d="M68.0543 37.8636c.0988.0693.1904.1386.2832.2078-1.1435-2.0276-2.5669-3.884-4.2287-5.5149-14.1495-14.152-3.7082-30.68507-1.9474-31.52483l.0175-.02593C50.744 7.70146 46.8638 20.0961 46.5068 26.2959c.5311-.0365 1.0572-.0813 1.6-.0813 8.2598.0153 15.8755 4.4627 19.9475 11.649Z"></path>
  <path fill="url(#e)" d="M48.1366 40.6898c-.0753 1.1325-4.0763 5.0379-5.4752 5.0379-12.9456 0-15.0471 7.8314-15.0471 7.8314.5733 6.5945 5.1685 12.0259 10.7233 14.899.2536.1318.5111.2505.7683.3666.4455.1975.891.3798 1.3368.5474 1.9061.6746 3.9029 1.0601 5.9234 1.1428 22.6907 1.0643 27.0863-27.1338 10.7116-35.3165 3.8631-.5027 7.7749.4472 10.977 2.6652-4.072-7.1863-11.6878-11.6337-19.9476-11.649-.5403 0-1.0689.0448-1.6.0813-4.5664.3137-8.9326 1.9968-12.5285 4.8287.6941.5875 1.4777 1.3722 3.1281 2.9988 3.0891 3.0436 11.0121 6.1963 11.0299 6.5664Z"></path>
  <path fill="url(#f)" d="M48.1366 40.6898c-.0753 1.1325-4.0763 5.0379-5.4752 5.0379-12.9456 0-15.0471 7.8314-15.0471 7.8314.5733 6.5945 5.1685 12.0259 10.7233 14.899.2536.1318.5111.2505.7683.3666.4455.1975.891.3798 1.3368.5474 1.9061.6746 3.9029 1.0601 5.9234 1.1428 22.6907 1.0643 27.0863-27.1338 10.7116-35.3165 3.8631-.5027 7.7749.4472 10.977 2.6652-4.072-7.1863-11.6878-11.6337-19.9476-11.649-.5403 0-1.0689.0448-1.6.0813-4.5664.3137-8.9326 1.9968-12.5285 4.8287.6941.5875 1.4777 1.3722 3.1281 2.9988 3.0891 3.0436 11.0121 6.1963 11.0299 6.5664Z"></path>
  <path fill="url(#g)" d="M31.8558 29.6104c.3687.2348.6731.4394.9395.6237-1.0372-3.6308-1.0816-7.4736-.1278-11.1272-4.1996 2.0344-7.9309 4.9182-10.9585 8.4691.222-.0061 6.8261-.1247 10.1468 2.0344Z"></path>
  <path fill="url(#h)" d="M2.94703 50.5215C6.46025 71.2822 25.2757 87.1326 46.6364 87.7375c19.7692.5591 32.3987-10.9169 37.6166-22.1123 4.418-9.6761 4.9256-20.685 1.4167-30.7263v-.0433c0-.0341-.0071-.0544 0-.0437l.0082.0763c1.6152 10.5447-3.7484 20.7607-12.1329 27.6685l-.0259.059c-16.3367 13.3051-31.9714 8.0275-35.1358 5.873-.2209-.1055-.4415-.2156-.6625-.33-9.5251-4.553-13.46-13.2312-12.6167-20.6737-4.6194.0682-8.8455-2.5903-10.7844-6.7834 5.0841-3.1147 11.4199-3.369 16.7374-.6718 5.3913 2.4476 11.5264 2.6884 17.0932.6718-.0174-.3702-7.9404-3.5239-11.0298-6.5661-1.6504-1.6269-2.4337-2.4106-3.1278-2.9988-.3752-.318-.7673-.6153-1.1748-.8906-.2703-.1844-.5744-.384-.9396-.6238-3.3206-2.1591-9.9247-2.0404-10.1432-2.0344h-.0209c-1.8042-2.287-1.6774-9.8281-1.5741-11.4032-.5339.2142-1.0433.4849-1.52.8067-1.5928 1.1368-3.0816 2.4124-4.4496 3.8116-1.5641 1.5762-2.9935 3.2802-4.2734 5.0947v.0068-.0082c-2.92674 4.1494-5.0027 8.8378-6.10817 13.7939-.02203.0927-1.63974 7.1639-.8419 10.8313Z"></path>
  <path fill="url(#i)" d="M64.1115 32.5564c1.6618 1.6326 3.0855 3.4912 4.2287 5.5209.25.189.4838.3769.6824.5592 10.3215 9.5144 4.9135 22.9641 4.5107 23.9215 8.3844-6.9082 13.7431-17.1238 12.1328-27.6688-5.1497-12.8387-13.8784-18.013-21.0072-29.28019-.3684-.5744-.7257-1.15556-1.0724-1.74311-.1787-.30692-.346-.62023-.5016-.93958-.2959-.57263-.5236-1.17758-.6792-1.80314.0007-.05968-.0441-.11013-.1034-.11759-.028-.007455-.0575-.007455-.0856 0-.0057 0-.0153.01066-.0224.01315-.0071.00213-.0224.01279-.0327.0174-1.7608.83515-12.2021 17.36826 1.9499 31.52026Z"></path>
  <path fill="url(#j)" d="M69.0151 38.6304c-.2184-.1968-.4465-.3833-.6824-.5591-.0927-.0693-.1843-.1385-.2831-.2078-3.202-2.2181-7.1142-3.1679-10.9769-2.6653C73.447 43.3855 69.0538 71.579 46.3611 70.5148c-2.0206-.0828-4.0173-.4682-5.9235-1.1428-.4458-.167-.8913-.3492-1.3367-.5474-.2576-.1176-.5147-.2348-.7684-.3666l.0316.0202c3.1644 2.1602 18.7942 7.4378 35.1358-5.8733l.0259-.0586c.4075-.9517 5.8155-14.4046-4.5107-23.9159Z"></path>
  <path fill="url(#k)" d="M27.6134 53.5591s2.1015-7.8314 15.0471-7.8314c1.3989 0 5.4034-3.9054 5.4752-5.0378-5.5672 2.0166-11.702 1.7758-17.0933-.6721-5.3174-2.6969-11.6533-2.4426-16.7377.6721 1.9388 4.1931 6.165 6.8516 10.7844 6.7834-.8433 7.4439 3.0916 16.1221 12.6167 20.6737.2128.1023.4124.2128.6309.3101-5.5594-2.872-10.15-8.3035-10.7233-14.898Z"></path>
  <path fill="url(#l)" d="M90.1776 32.512c-1.9783-4.7598-5.9906-9.8989-9.1329-11.5233 2.2411 4.3405 3.7963 9.0018 4.6105 13.8184l.0082.0764c-5.1473-12.833-13.876-18.0073-21.0048-29.27449-.3683-.5744-.7257-1.15556-1.0724-1.74311-.1787-.30692-.346-.62023-.5016-.93958-.2959-.57263-.5236-1.17758-.6792-1.80314.0007-.05968-.044-.11013-.1034-.11759-.028-.007455-.0575-.007455-.0856 0-.0057 0-.0152.01066-.0223.01315-.0072.00213-.0224.01279-.0327.0174l.0174-.03055C50.7439 7.70132 46.8638 20.096 46.5068 26.2958c.531-.0366 1.0571-.0813 1.5999-.0813 8.2598.0152 15.8756 4.4627 19.9476 11.649-3.2021-2.2181-7.1139-3.1679-10.977-2.6653C73.452 43.3855 69.0589 71.579 46.3657 70.5148c-2.0205-.0828-4.0173-.4682-5.9234-1.1428-.4458-.167-.8913-.3492-1.3367-.5474-.2572-.1176-.5148-.2348-.7684-.3666l.0316.0202c-.2206-.1058-.4415-.2159-.6625-.3303.2128.1023.4124.2128.6309.3101-5.5594-2.8731-10.15-8.3046-10.7233-14.899 0 0 2.1015-7.8314 15.0471-7.8314 1.3989 0 5.4034-3.9054 5.4752-5.0379-.0178-.3701-7.9408-3.5239-11.0299-6.5664-1.6504-1.6266-2.434-2.4102-3.1281-2.9989-.3752-.3175-.7673-.6149-1.1748-.8902-1.0372-3.6308-1.0813-7.4736-.1279-11.1272-4.1995 2.0344-7.9308 4.9182-10.9581 8.4691h-.0213c-1.8042-2.287-1.6774-9.8282-1.574-11.4036-.5336.2145-1.0433.4852-1.52.8071-1.5925 1.1367-3.0817 2.4123-4.4496 3.8116-1.5584 1.5804-2.9822 3.2883-4.2557 5.1064v.0067-.0081c-2.92673 4.1494-5.0027 8.8377-6.10817 13.7939l-.06074.3005c-.08597.4007-.46997 2.4351-.52539 2.872 0 .0331 0-.0341 0 0-.35132 2.1002-.57547 4.2195-.67174 6.3466v.2351C2.56131 84.4916 40.5204 106.363 70.857 88.8126c11.6882-6.7617 19.7718-18.3632 22.0669-31.6697.0764-.5872.1385-1.1687.2067-1.762.9375-7.75-.0774-15.6116-2.953-22.8689Z"></path>
  <defs>
    <radialGradient id="b" cx="0" cy="0" r="1" gradientTransform="translate(80.66 11.426) scale(94.9072)" gradientUnits="userSpaceOnUse">
      <stop offset=".129" stop-color="#ffbd4f"></stop>
      <stop offset=".186" stop-color="#ffac31"></stop>
      <stop offset=".247" stop-color="#ff9d17"></stop>
      <stop offset=".283" stop-color="#ff980e"></stop>
      <stop offset=".403" stop-color="#ff563b"></stop>
      <stop offset=".467" stop-color="#ff3750"></stop>
      <stop offset=".71" stop-color="#f5156c"></stop>
      <stop offset=".782" stop-color="#eb0878"></stop>
      <stop offset=".86" stop-color="#e50080"></stop>
    </radialGradient>
    <radialGradient id="c" cx="0" cy="0" r="1" gradientTransform="translate(45.98 50.227) scale(94.9072)" gradientUnits="userSpaceOnUse">
      <stop offset=".3" stop-color="#960e18"></stop>
      <stop offset=".351" stop-color="#b11927" stop-opacity=".74"></stop>
      <stop offset=".435" stop-color="#db293d" stop-opacity=".343"></stop>
      <stop offset=".497" stop-color="#f5334b" stop-opacity=".094"></stop>
      <stop offset=".53" stop-color="#ff3750" stop-opacity="0"></stop>
    </radialGradient>
    <radialGradient id="d" cx="0" cy="0" r="1" gradientTransform="translate(57.423 -10.112) scale(68.7562)" gradientUnits="userSpaceOnUse">
      <stop offset=".132" stop-color="#fff44f"></stop>
      <stop offset=".252" stop-color="#ffdc3e"></stop>
      <stop offset=".506" stop-color="#ff9d12"></stop>
      <stop offset=".526" stop-color="#ff980e"></stop>
    </radialGradient>
    <radialGradient id="e" cx="0" cy="0" r="1" gradientTransform="translate(35.483 75.018) scale(45.1895)" gradientUnits="userSpaceOnUse">
      <stop offset=".353" stop-color="#3a8ee6"></stop>
      <stop offset=".472" stop-color="#5c79f0"></stop>
      <stop offset=".669" stop-color="#9059ff"></stop>
      <stop offset="1" stop-color="#c139e6"></stop>
    </radialGradient>
    <radialGradient id="f" cx="0" cy="0" r="1" gradientTransform="matrix(23.2882 -5.63057 6.59198 27.26462 51.166 42.45)" gradientUnits="userSpaceOnUse">
      <stop offset=".206" stop-color="#9059ff" stop-opacity="0"></stop>
      <stop offset=".278" stop-color="#8c4ff3" stop-opacity=".064"></stop>
      <stop offset=".747" stop-color="#7716a8" stop-opacity=".45"></stop>
      <stop offset=".975" stop-color="#6e008b" stop-opacity=".6"></stop>
    </radialGradient>
    <radialGradient id="g" cx="0" cy="0" r="1" gradientTransform="translate(44.783 7.543) scale(32.5093)" gradientUnits="userSpaceOnUse">
      <stop stop-color="#ffe226"></stop>
      <stop offset=".121" stop-color="#ffdb27"></stop>
      <stop offset=".295" stop-color="#ffc82a"></stop>
      <stop offset=".502" stop-color="#ffa930"></stop>
      <stop offset=".732" stop-color="#ff7e37"></stop>
      <stop offset=".792" stop-color="#ff7139"></stop>
    </radialGradient>
    <radialGradient id="h" cx="0" cy="0" r="1" gradientTransform="translate(70.336 -13.077) scale(138.702)" gradientUnits="userSpaceOnUse">
      <stop offset=".113" stop-color="#fff44f"></stop>
      <stop offset=".456" stop-color="#ff980e"></stop>
      <stop offset=".622" stop-color="#ff5634"></stop>
      <stop offset=".716" stop-color="#ff3647"></stop>
      <stop offset=".904" stop-color="#e31587"></stop>
    </radialGradient>
    <radialGradient id="i" cx="0" cy="0" r="1" gradientTransform="rotate(83.976 32.303 29.897) scale(101.658 66.7174)" gradientUnits="userSpaceOnUse">
      <stop stop-color="#fff44f"></stop>
      <stop offset=".06" stop-color="#ffe847"></stop>
      <stop offset=".168" stop-color="#ffc830"></stop>
      <stop offset=".304" stop-color="#ff980e"></stop>
      <stop offset=".356" stop-color="#ff8b16"></stop>
      <stop offset=".455" stop-color="#ff672a"></stop>
      <stop offset=".57" stop-color="#ff3647"></stop>
      <stop offset=".737" stop-color="#e31587"></stop>
    </radialGradient>
    <radialGradient id="j" cx="0" cy="0" r="1" gradientTransform="translate(44.017 19.584) scale(86.5943)" gradientUnits="userSpaceOnUse">
      <stop offset=".137" stop-color="#fff44f"></stop>
      <stop offset=".48" stop-color="#ff980e"></stop>
      <stop offset=".592" stop-color="#ff5634"></stop>
      <stop offset=".655" stop-color="#ff3647"></stop>
      <stop offset=".904" stop-color="#e31587"></stop>
    </radialGradient>
    <radialGradient id="k" cx="0" cy="0" r="1" gradientTransform="translate(66.875 24.653) scale(94.7768)" gradientUnits="userSpaceOnUse">
      <stop offset=".094" stop-color="#fff44f"></stop>
      <stop offset=".231" stop-color="#ffe141"></stop>
      <stop offset=".509" stop-color="#ffaf1e"></stop>
      <stop offset=".626" stop-color="#ff980e"></stop>
    </radialGradient>
    <linearGradient id="a" x1="84.152" x2="8.577" y1="15.552" y2="88.468" gradientUnits="userSpaceOnUse">
      <stop offset=".048" stop-color="#fff44f"></stop>
      <stop offset=".111" stop-color="#ffe847"></stop>
      <stop offset=".225" stop-color="#ffc830"></stop>
      <stop offset=".368" stop-color="#ff980e"></stop>
      <stop offset=".401" stop-color="#ff8b16"></stop>
      <stop offset=".462" stop-color="#ff672a"></stop>
      <stop offset=".534" stop-color="#ff3647"></stop>
      <stop offset=".705" stop-color="#e31587"></stop>
    </linearGradient>
    <linearGradient id="l" x1="83.244" x2="18.937" y1="15.162" y2="79.468" gradientUnits="userSpaceOnUse">
      <stop offset=".167" stop-color="#fff44f" stop-opacity=".8"></stop>
      <stop offset=".266" stop-color="#fff44f" stop-opacity=".634"></stop>
      <stop offset=".489" stop-color="#fff44f" stop-opacity=".217"></stop>
      <stop offset=".6" stop-color="#fff44f" stop-opacity="0"></stop>
    </linearGradient>
  </defs>
</svg>